%TF.GenerationSoftware,KiCad,Pcbnew,7.0.9*%
%TF.CreationDate,2023-12-13T18:28:02+01:00*%
%TF.ProjectId,parasite,70617261-7369-4746-952e-6b696361645f,2.0.0*%
%TF.SameCoordinates,Original*%
%TF.FileFunction,Drillmap*%
%TF.FilePolarity,Positive*%
%FSLAX45Y45*%
G04 Gerber Fmt 4.5, Leading zero omitted, Abs format (unit mm)*
G04 Created by KiCad (PCBNEW 7.0.9) date 2023-12-13 18:28:02*
%MOMM*%
%LPD*%
G01*
G04 APERTURE LIST*
%ADD10C,0.050000*%
%ADD11C,0.200000*%
%ADD12C,0.100000*%
G04 APERTURE END LIST*
D10*
X6000000Y-2700000D02*
X7600000Y-2700000D01*
X6700000Y-15300000D02*
G75*
G03*
X6900000Y-15300000I100000J100000D01*
G01*
X6700000Y-15300000D02*
X5700000Y-14300000D01*
X6900000Y-15300000D02*
X7900000Y-14300000D01*
X5700000Y-3000000D02*
X5700000Y-14300000D01*
X7900000Y-14300000D02*
X7900000Y-3000000D01*
X7641421Y-6800000D02*
G75*
G03*
X7641421Y-6800000I-141421J0D01*
G01*
X6000000Y-2700000D02*
G75*
G03*
X5700000Y-3000000I0J-300000D01*
G01*
X6241421Y-6800000D02*
G75*
G03*
X6241421Y-6800000I-141421J0D01*
G01*
X7900000Y-3000000D02*
G75*
G03*
X7600000Y-2700000I-300000J0D01*
G01*
D11*
D12*
X5792800Y-4116200D02*
X5822800Y-4146200D01*
X5822800Y-4116200D02*
X5792800Y-4146200D01*
X5792800Y-4205100D02*
X5822800Y-4235100D01*
X5822800Y-4205100D02*
X5792800Y-4235100D01*
X5792800Y-4294000D02*
X5822800Y-4324000D01*
X5822800Y-4294000D02*
X5792800Y-4324000D01*
X5792800Y-4382900D02*
X5822800Y-4412900D01*
X5822800Y-4382900D02*
X5792800Y-4412900D01*
X5945200Y-4814700D02*
X5975200Y-4844700D01*
X5975200Y-4814700D02*
X5945200Y-4844700D01*
X5970600Y-6402200D02*
X6000600Y-6432200D01*
X6000600Y-6402200D02*
X5970600Y-6432200D01*
X5983300Y-3646300D02*
X6013300Y-3676300D01*
X6013300Y-3646300D02*
X5983300Y-3676300D01*
X6008700Y-4738500D02*
X6038700Y-4768500D01*
X6038700Y-4738500D02*
X6008700Y-4768500D01*
X6046800Y-6402200D02*
X6076800Y-6432200D01*
X6076800Y-6402200D02*
X6046800Y-6432200D01*
X6084900Y-3646300D02*
X6114900Y-3676300D01*
X6114900Y-3646300D02*
X6084900Y-3676300D01*
X6084900Y-4675000D02*
X6114900Y-4705000D01*
X6114900Y-4675000D02*
X6084900Y-4705000D01*
X6123000Y-6402200D02*
X6153000Y-6432200D01*
X6153000Y-6402200D02*
X6123000Y-6432200D01*
X6199200Y-6402200D02*
X6229200Y-6432200D01*
X6229200Y-6402200D02*
X6199200Y-6432200D01*
X6211900Y-3620900D02*
X6241900Y-3650900D01*
X6241900Y-3620900D02*
X6211900Y-3650900D01*
X6211900Y-5132200D02*
X6241900Y-5162200D01*
X6241900Y-5132200D02*
X6211900Y-5162200D01*
X6237300Y-3430400D02*
X6267300Y-3460400D01*
X6267300Y-3430400D02*
X6237300Y-3460400D01*
X6453200Y-3201800D02*
X6483200Y-3231800D01*
X6483200Y-3201800D02*
X6453200Y-3231800D01*
X6491300Y-4548000D02*
X6521300Y-4578000D01*
X6521300Y-4548000D02*
X6491300Y-4578000D01*
X6554800Y-3201800D02*
X6584800Y-3231800D01*
X6584800Y-3201800D02*
X6554800Y-3231800D01*
X6656400Y-3201800D02*
X6686400Y-3231800D01*
X6686400Y-3201800D02*
X6656400Y-3231800D01*
X6745300Y-4484500D02*
X6775300Y-4514500D01*
X6775300Y-4484500D02*
X6745300Y-4514500D01*
X6745300Y-4548000D02*
X6775300Y-4578000D01*
X6775300Y-4548000D02*
X6745300Y-4578000D01*
X6770700Y-3201800D02*
X6800700Y-3231800D01*
X6800700Y-3201800D02*
X6770700Y-3231800D01*
X6872300Y-3201800D02*
X6902300Y-3231800D01*
X6902300Y-3201800D02*
X6872300Y-3231800D01*
X6910400Y-3722500D02*
X6940400Y-3752500D01*
X6940400Y-3722500D02*
X6910400Y-3752500D01*
X6910400Y-3798700D02*
X6940400Y-3828700D01*
X6940400Y-3798700D02*
X6910400Y-3828700D01*
X6910400Y-3874900D02*
X6940400Y-3904900D01*
X6940400Y-3874900D02*
X6910400Y-3904900D01*
X6961200Y-3201800D02*
X6991200Y-3231800D01*
X6991200Y-3201800D02*
X6961200Y-3231800D01*
X6999300Y-4548000D02*
X7029300Y-4578000D01*
X7029300Y-4548000D02*
X6999300Y-4578000D01*
X6999800Y-4484500D02*
X7029800Y-4514500D01*
X7029800Y-4484500D02*
X6999800Y-4514500D01*
X7024700Y-4852800D02*
X7054700Y-4882800D01*
X7054700Y-4852800D02*
X7024700Y-4882800D01*
X7024700Y-4929000D02*
X7054700Y-4959000D01*
X7054700Y-4929000D02*
X7024700Y-4959000D01*
X7024700Y-5005200D02*
X7054700Y-5035200D01*
X7054700Y-5005200D02*
X7024700Y-5035200D01*
X7024700Y-5081400D02*
X7054700Y-5111400D01*
X7054700Y-5081400D02*
X7024700Y-5111400D01*
X7024700Y-5157600D02*
X7054700Y-5187600D01*
X7054700Y-5157600D02*
X7024700Y-5187600D01*
X7331800Y-3647255D02*
X7361800Y-3677255D01*
X7361800Y-3647255D02*
X7331800Y-3677255D01*
X7331800Y-3774255D02*
X7361800Y-3804255D01*
X7361800Y-3774255D02*
X7331800Y-3804255D01*
X7331800Y-4282255D02*
X7361800Y-4312255D01*
X7361800Y-4282255D02*
X7331800Y-4312255D01*
X7481900Y-6376800D02*
X7511900Y-6406800D01*
X7511900Y-6376800D02*
X7481900Y-6406800D01*
X7494600Y-3303400D02*
X7524600Y-3333400D01*
X7524600Y-3303400D02*
X7494600Y-3333400D01*
X7507300Y-3455800D02*
X7537300Y-3485800D01*
X7537300Y-3455800D02*
X7507300Y-3485800D01*
X7507300Y-3659000D02*
X7537300Y-3689000D01*
X7537300Y-3659000D02*
X7507300Y-3689000D01*
X7545400Y-4890900D02*
X7575400Y-4920900D01*
X7575400Y-4890900D02*
X7545400Y-4920900D01*
X7558100Y-6376800D02*
X7588100Y-6406800D01*
X7588100Y-6376800D02*
X7558100Y-6406800D01*
X7570800Y-5017900D02*
X7600800Y-5047900D01*
X7600800Y-5017900D02*
X7570800Y-5047900D01*
X7621600Y-4408300D02*
X7651600Y-4438300D01*
X7651600Y-4408300D02*
X7621600Y-4438300D01*
X7634300Y-4852800D02*
X7664300Y-4882800D01*
X7664300Y-4852800D02*
X7634300Y-4882800D01*
X7634300Y-6376800D02*
X7664300Y-6406800D01*
X7664300Y-6376800D02*
X7634300Y-6406800D01*
X7647000Y-5424300D02*
X7677000Y-5454300D01*
X7677000Y-5424300D02*
X7647000Y-5454300D01*
X7647000Y-5881500D02*
X7677000Y-5911500D01*
X7677000Y-5881500D02*
X7647000Y-5911500D01*
X7710500Y-6376800D02*
X7740500Y-6406800D01*
X7740500Y-6376800D02*
X7710500Y-6406800D01*
D11*
X5958277Y-15655405D02*
X5958277Y-15455405D01*
X5958277Y-15455405D02*
X6005896Y-15455405D01*
X6005896Y-15455405D02*
X6034467Y-15464929D01*
X6034467Y-15464929D02*
X6053515Y-15483976D01*
X6053515Y-15483976D02*
X6063039Y-15503024D01*
X6063039Y-15503024D02*
X6072562Y-15541119D01*
X6072562Y-15541119D02*
X6072562Y-15569691D01*
X6072562Y-15569691D02*
X6063039Y-15607786D01*
X6063039Y-15607786D02*
X6053515Y-15626833D01*
X6053515Y-15626833D02*
X6034467Y-15645881D01*
X6034467Y-15645881D02*
X6005896Y-15655405D01*
X6005896Y-15655405D02*
X5958277Y-15655405D01*
X6158277Y-15655405D02*
X6158277Y-15522072D01*
X6158277Y-15560167D02*
X6167801Y-15541119D01*
X6167801Y-15541119D02*
X6177324Y-15531595D01*
X6177324Y-15531595D02*
X6196372Y-15522072D01*
X6196372Y-15522072D02*
X6215420Y-15522072D01*
X6282086Y-15655405D02*
X6282086Y-15522072D01*
X6282086Y-15455405D02*
X6272562Y-15464929D01*
X6272562Y-15464929D02*
X6282086Y-15474453D01*
X6282086Y-15474453D02*
X6291610Y-15464929D01*
X6291610Y-15464929D02*
X6282086Y-15455405D01*
X6282086Y-15455405D02*
X6282086Y-15474453D01*
X6405896Y-15655405D02*
X6386848Y-15645881D01*
X6386848Y-15645881D02*
X6377324Y-15626833D01*
X6377324Y-15626833D02*
X6377324Y-15455405D01*
X6510658Y-15655405D02*
X6491610Y-15645881D01*
X6491610Y-15645881D02*
X6482086Y-15626833D01*
X6482086Y-15626833D02*
X6482086Y-15455405D01*
X6739229Y-15655405D02*
X6739229Y-15455405D01*
X6739229Y-15455405D02*
X6805896Y-15598262D01*
X6805896Y-15598262D02*
X6872562Y-15455405D01*
X6872562Y-15455405D02*
X6872562Y-15655405D01*
X7053515Y-15655405D02*
X7053515Y-15550643D01*
X7053515Y-15550643D02*
X7043991Y-15531595D01*
X7043991Y-15531595D02*
X7024943Y-15522072D01*
X7024943Y-15522072D02*
X6986848Y-15522072D01*
X6986848Y-15522072D02*
X6967801Y-15531595D01*
X7053515Y-15645881D02*
X7034467Y-15655405D01*
X7034467Y-15655405D02*
X6986848Y-15655405D01*
X6986848Y-15655405D02*
X6967801Y-15645881D01*
X6967801Y-15645881D02*
X6958277Y-15626833D01*
X6958277Y-15626833D02*
X6958277Y-15607786D01*
X6958277Y-15607786D02*
X6967801Y-15588738D01*
X6967801Y-15588738D02*
X6986848Y-15579214D01*
X6986848Y-15579214D02*
X7034467Y-15579214D01*
X7034467Y-15579214D02*
X7053515Y-15569691D01*
X7148753Y-15522072D02*
X7148753Y-15722072D01*
X7148753Y-15531595D02*
X7167801Y-15522072D01*
X7167801Y-15522072D02*
X7205896Y-15522072D01*
X7205896Y-15522072D02*
X7224943Y-15531595D01*
X7224943Y-15531595D02*
X7234467Y-15541119D01*
X7234467Y-15541119D02*
X7243991Y-15560167D01*
X7243991Y-15560167D02*
X7243991Y-15617310D01*
X7243991Y-15617310D02*
X7234467Y-15636357D01*
X7234467Y-15636357D02*
X7224943Y-15645881D01*
X7224943Y-15645881D02*
X7205896Y-15655405D01*
X7205896Y-15655405D02*
X7167801Y-15655405D01*
X7167801Y-15655405D02*
X7148753Y-15645881D01*
X7329705Y-15636357D02*
X7339229Y-15645881D01*
X7339229Y-15645881D02*
X7329705Y-15655405D01*
X7329705Y-15655405D02*
X7320182Y-15645881D01*
X7320182Y-15645881D02*
X7329705Y-15636357D01*
X7329705Y-15636357D02*
X7329705Y-15655405D01*
X7329705Y-15531595D02*
X7339229Y-15541119D01*
X7339229Y-15541119D02*
X7329705Y-15550643D01*
X7329705Y-15550643D02*
X7320182Y-15541119D01*
X7320182Y-15541119D02*
X7329705Y-15531595D01*
X7329705Y-15531595D02*
X7329705Y-15550643D01*
D12*
X5667500Y-15968921D02*
X5697500Y-15998921D01*
X5697500Y-15968921D02*
X5667500Y-15998921D01*
D11*
X5996372Y-15875405D02*
X6015420Y-15875405D01*
X6015420Y-15875405D02*
X6034467Y-15884929D01*
X6034467Y-15884929D02*
X6043991Y-15894453D01*
X6043991Y-15894453D02*
X6053515Y-15913500D01*
X6053515Y-15913500D02*
X6063039Y-15951595D01*
X6063039Y-15951595D02*
X6063039Y-15999214D01*
X6063039Y-15999214D02*
X6053515Y-16037310D01*
X6053515Y-16037310D02*
X6043991Y-16056357D01*
X6043991Y-16056357D02*
X6034467Y-16065881D01*
X6034467Y-16065881D02*
X6015420Y-16075405D01*
X6015420Y-16075405D02*
X5996372Y-16075405D01*
X5996372Y-16075405D02*
X5977324Y-16065881D01*
X5977324Y-16065881D02*
X5967801Y-16056357D01*
X5967801Y-16056357D02*
X5958277Y-16037310D01*
X5958277Y-16037310D02*
X5948753Y-15999214D01*
X5948753Y-15999214D02*
X5948753Y-15951595D01*
X5948753Y-15951595D02*
X5958277Y-15913500D01*
X5958277Y-15913500D02*
X5967801Y-15894453D01*
X5967801Y-15894453D02*
X5977324Y-15884929D01*
X5977324Y-15884929D02*
X5996372Y-15875405D01*
X6148753Y-16056357D02*
X6158277Y-16065881D01*
X6158277Y-16065881D02*
X6148753Y-16075405D01*
X6148753Y-16075405D02*
X6139229Y-16065881D01*
X6139229Y-16065881D02*
X6148753Y-16056357D01*
X6148753Y-16056357D02*
X6148753Y-16075405D01*
X6224943Y-15875405D02*
X6348753Y-15875405D01*
X6348753Y-15875405D02*
X6282086Y-15951595D01*
X6282086Y-15951595D02*
X6310658Y-15951595D01*
X6310658Y-15951595D02*
X6329705Y-15961119D01*
X6329705Y-15961119D02*
X6339229Y-15970643D01*
X6339229Y-15970643D02*
X6348753Y-15989691D01*
X6348753Y-15989691D02*
X6348753Y-16037310D01*
X6348753Y-16037310D02*
X6339229Y-16056357D01*
X6339229Y-16056357D02*
X6329705Y-16065881D01*
X6329705Y-16065881D02*
X6310658Y-16075405D01*
X6310658Y-16075405D02*
X6253515Y-16075405D01*
X6253515Y-16075405D02*
X6234467Y-16065881D01*
X6234467Y-16065881D02*
X6224943Y-16056357D01*
X6472562Y-15875405D02*
X6491610Y-15875405D01*
X6491610Y-15875405D02*
X6510658Y-15884929D01*
X6510658Y-15884929D02*
X6520182Y-15894453D01*
X6520182Y-15894453D02*
X6529705Y-15913500D01*
X6529705Y-15913500D02*
X6539229Y-15951595D01*
X6539229Y-15951595D02*
X6539229Y-15999214D01*
X6539229Y-15999214D02*
X6529705Y-16037310D01*
X6529705Y-16037310D02*
X6520182Y-16056357D01*
X6520182Y-16056357D02*
X6510658Y-16065881D01*
X6510658Y-16065881D02*
X6491610Y-16075405D01*
X6491610Y-16075405D02*
X6472562Y-16075405D01*
X6472562Y-16075405D02*
X6453515Y-16065881D01*
X6453515Y-16065881D02*
X6443991Y-16056357D01*
X6443991Y-16056357D02*
X6434467Y-16037310D01*
X6434467Y-16037310D02*
X6424943Y-15999214D01*
X6424943Y-15999214D02*
X6424943Y-15951595D01*
X6424943Y-15951595D02*
X6434467Y-15913500D01*
X6434467Y-15913500D02*
X6443991Y-15894453D01*
X6443991Y-15894453D02*
X6453515Y-15884929D01*
X6453515Y-15884929D02*
X6472562Y-15875405D01*
X6663039Y-15875405D02*
X6682086Y-15875405D01*
X6682086Y-15875405D02*
X6701134Y-15884929D01*
X6701134Y-15884929D02*
X6710658Y-15894453D01*
X6710658Y-15894453D02*
X6720182Y-15913500D01*
X6720182Y-15913500D02*
X6729705Y-15951595D01*
X6729705Y-15951595D02*
X6729705Y-15999214D01*
X6729705Y-15999214D02*
X6720182Y-16037310D01*
X6720182Y-16037310D02*
X6710658Y-16056357D01*
X6710658Y-16056357D02*
X6701134Y-16065881D01*
X6701134Y-16065881D02*
X6682086Y-16075405D01*
X6682086Y-16075405D02*
X6663039Y-16075405D01*
X6663039Y-16075405D02*
X6643991Y-16065881D01*
X6643991Y-16065881D02*
X6634467Y-16056357D01*
X6634467Y-16056357D02*
X6624943Y-16037310D01*
X6624943Y-16037310D02*
X6615420Y-15999214D01*
X6615420Y-15999214D02*
X6615420Y-15951595D01*
X6615420Y-15951595D02*
X6624943Y-15913500D01*
X6624943Y-15913500D02*
X6634467Y-15894453D01*
X6634467Y-15894453D02*
X6643991Y-15884929D01*
X6643991Y-15884929D02*
X6663039Y-15875405D01*
X6815420Y-16075405D02*
X6815420Y-15942072D01*
X6815420Y-15961119D02*
X6824943Y-15951595D01*
X6824943Y-15951595D02*
X6843991Y-15942072D01*
X6843991Y-15942072D02*
X6872563Y-15942072D01*
X6872563Y-15942072D02*
X6891610Y-15951595D01*
X6891610Y-15951595D02*
X6901134Y-15970643D01*
X6901134Y-15970643D02*
X6901134Y-16075405D01*
X6901134Y-15970643D02*
X6910658Y-15951595D01*
X6910658Y-15951595D02*
X6929705Y-15942072D01*
X6929705Y-15942072D02*
X6958277Y-15942072D01*
X6958277Y-15942072D02*
X6977324Y-15951595D01*
X6977324Y-15951595D02*
X6986848Y-15970643D01*
X6986848Y-15970643D02*
X6986848Y-16075405D01*
X7082086Y-16075405D02*
X7082086Y-15942072D01*
X7082086Y-15961119D02*
X7091610Y-15951595D01*
X7091610Y-15951595D02*
X7110658Y-15942072D01*
X7110658Y-15942072D02*
X7139229Y-15942072D01*
X7139229Y-15942072D02*
X7158277Y-15951595D01*
X7158277Y-15951595D02*
X7167801Y-15970643D01*
X7167801Y-15970643D02*
X7167801Y-16075405D01*
X7167801Y-15970643D02*
X7177324Y-15951595D01*
X7177324Y-15951595D02*
X7196372Y-15942072D01*
X7196372Y-15942072D02*
X7224943Y-15942072D01*
X7224943Y-15942072D02*
X7243991Y-15951595D01*
X7243991Y-15951595D02*
X7253515Y-15970643D01*
X7253515Y-15970643D02*
X7253515Y-16075405D01*
X7643991Y-15865881D02*
X7472563Y-16123024D01*
X7901134Y-15875405D02*
X7920182Y-15875405D01*
X7920182Y-15875405D02*
X7939229Y-15884929D01*
X7939229Y-15884929D02*
X7948753Y-15894453D01*
X7948753Y-15894453D02*
X7958277Y-15913500D01*
X7958277Y-15913500D02*
X7967801Y-15951595D01*
X7967801Y-15951595D02*
X7967801Y-15999214D01*
X7967801Y-15999214D02*
X7958277Y-16037310D01*
X7958277Y-16037310D02*
X7948753Y-16056357D01*
X7948753Y-16056357D02*
X7939229Y-16065881D01*
X7939229Y-16065881D02*
X7920182Y-16075405D01*
X7920182Y-16075405D02*
X7901134Y-16075405D01*
X7901134Y-16075405D02*
X7882086Y-16065881D01*
X7882086Y-16065881D02*
X7872563Y-16056357D01*
X7872563Y-16056357D02*
X7863039Y-16037310D01*
X7863039Y-16037310D02*
X7853515Y-15999214D01*
X7853515Y-15999214D02*
X7853515Y-15951595D01*
X7853515Y-15951595D02*
X7863039Y-15913500D01*
X7863039Y-15913500D02*
X7872563Y-15894453D01*
X7872563Y-15894453D02*
X7882086Y-15884929D01*
X7882086Y-15884929D02*
X7901134Y-15875405D01*
X8053515Y-16056357D02*
X8063039Y-16065881D01*
X8063039Y-16065881D02*
X8053515Y-16075405D01*
X8053515Y-16075405D02*
X8043991Y-16065881D01*
X8043991Y-16065881D02*
X8053515Y-16056357D01*
X8053515Y-16056357D02*
X8053515Y-16075405D01*
X8186848Y-15875405D02*
X8205896Y-15875405D01*
X8205896Y-15875405D02*
X8224944Y-15884929D01*
X8224944Y-15884929D02*
X8234467Y-15894453D01*
X8234467Y-15894453D02*
X8243991Y-15913500D01*
X8243991Y-15913500D02*
X8253515Y-15951595D01*
X8253515Y-15951595D02*
X8253515Y-15999214D01*
X8253515Y-15999214D02*
X8243991Y-16037310D01*
X8243991Y-16037310D02*
X8234467Y-16056357D01*
X8234467Y-16056357D02*
X8224944Y-16065881D01*
X8224944Y-16065881D02*
X8205896Y-16075405D01*
X8205896Y-16075405D02*
X8186848Y-16075405D01*
X8186848Y-16075405D02*
X8167801Y-16065881D01*
X8167801Y-16065881D02*
X8158277Y-16056357D01*
X8158277Y-16056357D02*
X8148753Y-16037310D01*
X8148753Y-16037310D02*
X8139229Y-15999214D01*
X8139229Y-15999214D02*
X8139229Y-15951595D01*
X8139229Y-15951595D02*
X8148753Y-15913500D01*
X8148753Y-15913500D02*
X8158277Y-15894453D01*
X8158277Y-15894453D02*
X8167801Y-15884929D01*
X8167801Y-15884929D02*
X8186848Y-15875405D01*
X8443991Y-16075405D02*
X8329706Y-16075405D01*
X8386848Y-16075405D02*
X8386848Y-15875405D01*
X8386848Y-15875405D02*
X8367801Y-15903976D01*
X8367801Y-15903976D02*
X8348753Y-15923024D01*
X8348753Y-15923024D02*
X8329706Y-15932548D01*
X8634468Y-16075405D02*
X8520182Y-16075405D01*
X8577325Y-16075405D02*
X8577325Y-15875405D01*
X8577325Y-15875405D02*
X8558277Y-15903976D01*
X8558277Y-15903976D02*
X8539229Y-15923024D01*
X8539229Y-15923024D02*
X8520182Y-15932548D01*
X8748753Y-15961119D02*
X8729706Y-15951595D01*
X8729706Y-15951595D02*
X8720182Y-15942072D01*
X8720182Y-15942072D02*
X8710658Y-15923024D01*
X8710658Y-15923024D02*
X8710658Y-15913500D01*
X8710658Y-15913500D02*
X8720182Y-15894453D01*
X8720182Y-15894453D02*
X8729706Y-15884929D01*
X8729706Y-15884929D02*
X8748753Y-15875405D01*
X8748753Y-15875405D02*
X8786849Y-15875405D01*
X8786849Y-15875405D02*
X8805896Y-15884929D01*
X8805896Y-15884929D02*
X8815420Y-15894453D01*
X8815420Y-15894453D02*
X8824944Y-15913500D01*
X8824944Y-15913500D02*
X8824944Y-15923024D01*
X8824944Y-15923024D02*
X8815420Y-15942072D01*
X8815420Y-15942072D02*
X8805896Y-15951595D01*
X8805896Y-15951595D02*
X8786849Y-15961119D01*
X8786849Y-15961119D02*
X8748753Y-15961119D01*
X8748753Y-15961119D02*
X8729706Y-15970643D01*
X8729706Y-15970643D02*
X8720182Y-15980167D01*
X8720182Y-15980167D02*
X8710658Y-15999214D01*
X8710658Y-15999214D02*
X8710658Y-16037310D01*
X8710658Y-16037310D02*
X8720182Y-16056357D01*
X8720182Y-16056357D02*
X8729706Y-16065881D01*
X8729706Y-16065881D02*
X8748753Y-16075405D01*
X8748753Y-16075405D02*
X8786849Y-16075405D01*
X8786849Y-16075405D02*
X8805896Y-16065881D01*
X8805896Y-16065881D02*
X8815420Y-16056357D01*
X8815420Y-16056357D02*
X8824944Y-16037310D01*
X8824944Y-16037310D02*
X8824944Y-15999214D01*
X8824944Y-15999214D02*
X8815420Y-15980167D01*
X8815420Y-15980167D02*
X8805896Y-15970643D01*
X8805896Y-15970643D02*
X8786849Y-15961119D01*
X8901134Y-15875405D02*
X8901134Y-15913500D01*
X8977325Y-15875405D02*
X8977325Y-15913500D01*
X9272563Y-16151595D02*
X9263039Y-16142072D01*
X9263039Y-16142072D02*
X9243991Y-16113500D01*
X9243991Y-16113500D02*
X9234468Y-16094453D01*
X9234468Y-16094453D02*
X9224944Y-16065881D01*
X9224944Y-16065881D02*
X9215420Y-16018262D01*
X9215420Y-16018262D02*
X9215420Y-15980167D01*
X9215420Y-15980167D02*
X9224944Y-15932548D01*
X9224944Y-15932548D02*
X9234468Y-15903976D01*
X9234468Y-15903976D02*
X9243991Y-15884929D01*
X9243991Y-15884929D02*
X9263039Y-15856357D01*
X9263039Y-15856357D02*
X9272563Y-15846833D01*
X9443991Y-15875405D02*
X9348753Y-15875405D01*
X9348753Y-15875405D02*
X9339230Y-15970643D01*
X9339230Y-15970643D02*
X9348753Y-15961119D01*
X9348753Y-15961119D02*
X9367801Y-15951595D01*
X9367801Y-15951595D02*
X9415420Y-15951595D01*
X9415420Y-15951595D02*
X9434468Y-15961119D01*
X9434468Y-15961119D02*
X9443991Y-15970643D01*
X9443991Y-15970643D02*
X9453515Y-15989691D01*
X9453515Y-15989691D02*
X9453515Y-16037310D01*
X9453515Y-16037310D02*
X9443991Y-16056357D01*
X9443991Y-16056357D02*
X9434468Y-16065881D01*
X9434468Y-16065881D02*
X9415420Y-16075405D01*
X9415420Y-16075405D02*
X9367801Y-16075405D01*
X9367801Y-16075405D02*
X9348753Y-16065881D01*
X9348753Y-16065881D02*
X9339230Y-16056357D01*
X9643991Y-16075405D02*
X9529706Y-16075405D01*
X9586849Y-16075405D02*
X9586849Y-15875405D01*
X9586849Y-15875405D02*
X9567801Y-15903976D01*
X9567801Y-15903976D02*
X9548753Y-15923024D01*
X9548753Y-15923024D02*
X9529706Y-15932548D01*
X9882087Y-16075405D02*
X9882087Y-15875405D01*
X9967801Y-16075405D02*
X9967801Y-15970643D01*
X9967801Y-15970643D02*
X9958277Y-15951595D01*
X9958277Y-15951595D02*
X9939230Y-15942072D01*
X9939230Y-15942072D02*
X9910658Y-15942072D01*
X9910658Y-15942072D02*
X9891611Y-15951595D01*
X9891611Y-15951595D02*
X9882087Y-15961119D01*
X10091611Y-16075405D02*
X10072563Y-16065881D01*
X10072563Y-16065881D02*
X10063039Y-16056357D01*
X10063039Y-16056357D02*
X10053515Y-16037310D01*
X10053515Y-16037310D02*
X10053515Y-15980167D01*
X10053515Y-15980167D02*
X10063039Y-15961119D01*
X10063039Y-15961119D02*
X10072563Y-15951595D01*
X10072563Y-15951595D02*
X10091611Y-15942072D01*
X10091611Y-15942072D02*
X10120182Y-15942072D01*
X10120182Y-15942072D02*
X10139230Y-15951595D01*
X10139230Y-15951595D02*
X10148753Y-15961119D01*
X10148753Y-15961119D02*
X10158277Y-15980167D01*
X10158277Y-15980167D02*
X10158277Y-16037310D01*
X10158277Y-16037310D02*
X10148753Y-16056357D01*
X10148753Y-16056357D02*
X10139230Y-16065881D01*
X10139230Y-16065881D02*
X10120182Y-16075405D01*
X10120182Y-16075405D02*
X10091611Y-16075405D01*
X10272563Y-16075405D02*
X10253515Y-16065881D01*
X10253515Y-16065881D02*
X10243992Y-16046833D01*
X10243992Y-16046833D02*
X10243992Y-15875405D01*
X10424944Y-16065881D02*
X10405896Y-16075405D01*
X10405896Y-16075405D02*
X10367801Y-16075405D01*
X10367801Y-16075405D02*
X10348753Y-16065881D01*
X10348753Y-16065881D02*
X10339230Y-16046833D01*
X10339230Y-16046833D02*
X10339230Y-15970643D01*
X10339230Y-15970643D02*
X10348753Y-15951595D01*
X10348753Y-15951595D02*
X10367801Y-15942072D01*
X10367801Y-15942072D02*
X10405896Y-15942072D01*
X10405896Y-15942072D02*
X10424944Y-15951595D01*
X10424944Y-15951595D02*
X10434468Y-15970643D01*
X10434468Y-15970643D02*
X10434468Y-15989691D01*
X10434468Y-15989691D02*
X10339230Y-16008738D01*
X10510658Y-16065881D02*
X10529706Y-16075405D01*
X10529706Y-16075405D02*
X10567801Y-16075405D01*
X10567801Y-16075405D02*
X10586849Y-16065881D01*
X10586849Y-16065881D02*
X10596373Y-16046833D01*
X10596373Y-16046833D02*
X10596373Y-16037310D01*
X10596373Y-16037310D02*
X10586849Y-16018262D01*
X10586849Y-16018262D02*
X10567801Y-16008738D01*
X10567801Y-16008738D02*
X10539230Y-16008738D01*
X10539230Y-16008738D02*
X10520182Y-15999214D01*
X10520182Y-15999214D02*
X10510658Y-15980167D01*
X10510658Y-15980167D02*
X10510658Y-15970643D01*
X10510658Y-15970643D02*
X10520182Y-15951595D01*
X10520182Y-15951595D02*
X10539230Y-15942072D01*
X10539230Y-15942072D02*
X10567801Y-15942072D01*
X10567801Y-15942072D02*
X10586849Y-15951595D01*
X10663039Y-16151595D02*
X10672563Y-16142072D01*
X10672563Y-16142072D02*
X10691611Y-16113500D01*
X10691611Y-16113500D02*
X10701134Y-16094453D01*
X10701134Y-16094453D02*
X10710658Y-16065881D01*
X10710658Y-16065881D02*
X10720182Y-16018262D01*
X10720182Y-16018262D02*
X10720182Y-15980167D01*
X10720182Y-15980167D02*
X10710658Y-15932548D01*
X10710658Y-15932548D02*
X10701134Y-15903976D01*
X10701134Y-15903976D02*
X10691611Y-15884929D01*
X10691611Y-15884929D02*
X10672563Y-15856357D01*
X10672563Y-15856357D02*
X10663039Y-15846833D01*
M02*
