G04 #@! TF.GenerationSoftware,KiCad,Pcbnew,7.0.9*
G04 #@! TF.CreationDate,2023-12-15T13:17:30+01:00*
G04 #@! TF.ProjectId,parasite,70617261-7369-4746-952e-6b696361645f,2.0.0*
G04 #@! TF.SameCoordinates,Original*
G04 #@! TF.FileFunction,Copper,L1,Top*
G04 #@! TF.FilePolarity,Positive*
%FSLAX46Y46*%
G04 Gerber Fmt 4.6, Leading zero omitted, Abs format (unit mm)*
G04 Created by KiCad (PCBNEW 7.0.9) date 2023-12-15 13:17:30*
%MOMM*%
%LPD*%
G01*
G04 APERTURE LIST*
G04 Aperture macros list*
%AMRoundRect*
0 Rectangle with rounded corners*
0 $1 Rounding radius*
0 $2 $3 $4 $5 $6 $7 $8 $9 X,Y pos of 4 corners*
0 Add a 4 corners polygon primitive as box body*
4,1,4,$2,$3,$4,$5,$6,$7,$8,$9,$2,$3,0*
0 Add four circle primitives for the rounded corners*
1,1,$1+$1,$2,$3*
1,1,$1+$1,$4,$5*
1,1,$1+$1,$6,$7*
1,1,$1+$1,$8,$9*
0 Add four rect primitives between the rounded corners*
20,1,$1+$1,$2,$3,$4,$5,0*
20,1,$1+$1,$4,$5,$6,$7,0*
20,1,$1+$1,$6,$7,$8,$9,0*
20,1,$1+$1,$8,$9,$2,$3,0*%
G04 Aperture macros list end*
G04 #@! TA.AperFunction,SMDPad,CuDef*
%ADD10RoundRect,0.250000X-0.475000X0.250000X-0.475000X-0.250000X0.475000X-0.250000X0.475000X0.250000X0*%
G04 #@! TD*
G04 #@! TA.AperFunction,SMDPad,CuDef*
%ADD11RoundRect,0.250000X-0.450000X0.262500X-0.450000X-0.262500X0.450000X-0.262500X0.450000X0.262500X0*%
G04 #@! TD*
G04 #@! TA.AperFunction,SMDPad,CuDef*
%ADD12RoundRect,0.250000X0.262500X0.450000X-0.262500X0.450000X-0.262500X-0.450000X0.262500X-0.450000X0*%
G04 #@! TD*
G04 #@! TA.AperFunction,SMDPad,CuDef*
%ADD13R,0.900000X0.800000*%
G04 #@! TD*
G04 #@! TA.AperFunction,SMDPad,CuDef*
%ADD14RoundRect,0.250000X-0.262500X-0.450000X0.262500X-0.450000X0.262500X0.450000X-0.262500X0.450000X0*%
G04 #@! TD*
G04 #@! TA.AperFunction,SMDPad,CuDef*
%ADD15C,1.000000*%
G04 #@! TD*
G04 #@! TA.AperFunction,SMDPad,CuDef*
%ADD16RoundRect,0.250000X0.475000X-0.250000X0.475000X0.250000X-0.475000X0.250000X-0.475000X-0.250000X0*%
G04 #@! TD*
G04 #@! TA.AperFunction,SMDPad,CuDef*
%ADD17R,1.000000X1.800000*%
G04 #@! TD*
G04 #@! TA.AperFunction,SMDPad,CuDef*
%ADD18RoundRect,0.218750X0.218750X0.256250X-0.218750X0.256250X-0.218750X-0.256250X0.218750X-0.256250X0*%
G04 #@! TD*
G04 #@! TA.AperFunction,SMDPad,CuDef*
%ADD19RoundRect,0.250000X0.450000X-0.262500X0.450000X0.262500X-0.450000X0.262500X-0.450000X-0.262500X0*%
G04 #@! TD*
G04 #@! TA.AperFunction,SMDPad,CuDef*
%ADD20RoundRect,0.087500X0.187500X0.087500X-0.187500X0.087500X-0.187500X-0.087500X0.187500X-0.087500X0*%
G04 #@! TD*
G04 #@! TA.AperFunction,SMDPad,CuDef*
%ADD21RoundRect,0.175000X0.175000X0.625000X-0.175000X0.625000X-0.175000X-0.625000X0.175000X-0.625000X0*%
G04 #@! TD*
G04 #@! TA.AperFunction,SMDPad,CuDef*
%ADD22RoundRect,0.225000X0.225000X0.375000X-0.225000X0.375000X-0.225000X-0.375000X0.225000X-0.375000X0*%
G04 #@! TD*
G04 #@! TA.AperFunction,SMDPad,CuDef*
%ADD23R,2.000000X1.000000*%
G04 #@! TD*
G04 #@! TA.AperFunction,SMDPad,CuDef*
%ADD24R,1.000000X2.000000*%
G04 #@! TD*
G04 #@! TA.AperFunction,SMDPad,CuDef*
%ADD25R,0.900000X0.900000*%
G04 #@! TD*
G04 #@! TA.AperFunction,SMDPad,CuDef*
%ADD26R,0.800000X0.800000*%
G04 #@! TD*
G04 #@! TA.AperFunction,SMDPad,CuDef*
%ADD27R,1.700000X0.800000*%
G04 #@! TD*
G04 #@! TA.AperFunction,ViaPad*
%ADD28C,0.600000*%
G04 #@! TD*
G04 #@! TA.AperFunction,Conductor*
%ADD29C,0.200000*%
G04 #@! TD*
G04 #@! TA.AperFunction,Conductor*
%ADD30C,0.500000*%
G04 #@! TD*
G04 #@! TA.AperFunction,Conductor*
%ADD31C,0.250000*%
G04 #@! TD*
G04 #@! TA.AperFunction,Conductor*
%ADD32C,10.000000*%
G04 #@! TD*
G04 APERTURE END LIST*
D10*
X70300000Y-58450000D03*
X70300000Y-60350000D03*
D11*
X72300000Y-58487500D03*
X72300000Y-60312500D03*
D12*
X62312500Y-57400000D03*
X60487500Y-57400000D03*
D13*
X65936000Y-60050000D03*
X65936000Y-58150000D03*
X63936000Y-59100000D03*
D14*
X60487500Y-55300000D03*
X62312500Y-55300000D03*
D15*
X77382000Y-34708000D03*
X77382000Y-37248000D03*
X67984000Y-58838000D03*
X61380000Y-59473000D03*
D12*
X61512500Y-50202000D03*
X59687500Y-50202000D03*
D16*
X71000000Y-56550000D03*
X71000000Y-54650000D03*
D17*
X69138500Y-49694000D03*
X66638500Y-49694000D03*
D18*
X61405500Y-52869000D03*
X59830500Y-52869000D03*
D10*
X69000000Y-52069000D03*
X69000000Y-53969000D03*
D16*
X66800000Y-53946000D03*
X66800000Y-52046000D03*
D11*
X74800000Y-52106500D03*
X74800000Y-53931500D03*
D19*
X77000000Y-53931500D03*
X77000000Y-52106500D03*
D20*
X75005000Y-56544000D03*
X75005000Y-55544000D03*
X73155000Y-55544000D03*
X73155000Y-56544000D03*
D21*
X74080000Y-56044000D03*
D22*
X68150000Y-56000000D03*
X64850000Y-56000000D03*
D15*
X77382000Y-42328000D03*
D23*
X60468000Y-31542550D03*
X60468000Y-32812550D03*
X60468000Y-34082550D03*
X60468000Y-35352550D03*
X60468000Y-36622550D03*
X60468000Y-37892550D03*
X60468000Y-39162550D03*
X60468000Y-40432550D03*
X60468000Y-41702550D03*
X60468000Y-42972550D03*
D24*
X62528000Y-45572550D03*
D25*
X63158000Y-43472550D03*
D24*
X63798000Y-45572550D03*
D25*
X64428000Y-43472550D03*
D24*
X65068000Y-45572550D03*
D25*
X65698000Y-43472550D03*
D24*
X66338000Y-45572550D03*
D25*
X66968000Y-43472550D03*
D24*
X67608000Y-45572550D03*
D25*
X68238000Y-43472550D03*
D24*
X68878000Y-45572550D03*
D25*
X69508000Y-43472550D03*
D24*
X70148000Y-45572550D03*
D25*
X70778000Y-43472550D03*
D24*
X71418000Y-45572550D03*
D23*
X73468000Y-42972550D03*
X73468000Y-41702550D03*
D25*
X71368000Y-41067550D03*
D23*
X73468000Y-40432550D03*
D25*
X71368000Y-39797550D03*
D23*
X73468000Y-39162550D03*
D25*
X71368000Y-38527550D03*
D23*
X73468000Y-37892550D03*
D25*
X71368000Y-37257550D03*
D23*
X73468000Y-36622550D03*
D25*
X71368000Y-35987550D03*
D23*
X73468000Y-35352550D03*
D25*
X71368000Y-34717550D03*
D23*
X73468000Y-34082550D03*
D25*
X71368000Y-33447550D03*
D23*
X73468000Y-32812550D03*
D25*
X71368000Y-32177550D03*
D23*
X73468000Y-31542550D03*
D12*
X59752500Y-29882000D03*
X57927500Y-29882000D03*
D26*
X58078000Y-33426000D03*
X58078000Y-31926000D03*
D15*
X77382000Y-32168000D03*
D27*
X72302000Y-48502000D03*
X72302000Y-51902000D03*
X63920000Y-48502000D03*
X63920000Y-51902000D03*
D15*
X77382000Y-29628000D03*
X77362000Y-39788000D03*
D28*
X60999000Y-36613000D03*
X74969000Y-63918000D03*
X75731000Y-63918000D03*
X60618000Y-64172000D03*
X58078000Y-42201000D03*
X77255000Y-63918000D03*
X64682000Y-32168000D03*
X62269000Y-51472000D03*
X58078000Y-43979000D03*
X70397000Y-51726000D03*
X59983000Y-36613000D03*
X69254000Y-38899000D03*
X76493000Y-63918000D03*
X58078000Y-41312000D03*
X59856000Y-64172000D03*
X70397000Y-48678000D03*
X61380000Y-64172000D03*
X67857000Y-32168000D03*
X68873000Y-32168000D03*
X66714000Y-32168000D03*
X70397000Y-50202000D03*
X65698000Y-32168000D03*
X69254000Y-37375000D03*
X62142000Y-64172000D03*
X70397000Y-49440000D03*
X69762000Y-32168000D03*
X70397000Y-50964000D03*
X58078000Y-43090000D03*
X69254000Y-38137000D03*
X60237000Y-47535000D03*
X62523000Y-34454000D03*
X67603000Y-45630000D03*
X75800000Y-50400000D03*
X75096000Y-33184000D03*
X67603000Y-44995000D03*
X76620000Y-58965000D03*
X70148000Y-44995000D03*
X70143000Y-45630000D03*
X76620000Y-55000000D03*
X65063000Y-45630000D03*
X59602000Y-48297000D03*
X60999000Y-46900000D03*
X62269000Y-36359000D03*
X75604000Y-49059000D03*
X73468000Y-36622550D03*
X73468000Y-37892550D03*
X76493000Y-48678000D03*
X73468000Y-42972550D03*
X76366000Y-44233000D03*
X75223000Y-36740000D03*
X75223000Y-34708000D03*
D29*
X58677511Y-39244511D02*
X57697000Y-38264000D01*
X57697000Y-38264000D02*
X57697000Y-33807000D01*
X57697000Y-33807000D02*
X58078000Y-33426000D01*
X58677511Y-39842061D02*
X58677511Y-39244511D01*
X59268000Y-40432550D02*
X58677511Y-39842061D01*
X60468000Y-40432550D02*
X59268000Y-40432550D01*
X62396000Y-29882000D02*
X59752500Y-29882000D01*
D30*
X70397000Y-48220572D02*
X70397000Y-48678000D01*
X63920000Y-51902000D02*
X63920000Y-53481000D01*
X62673000Y-53481000D02*
X63920000Y-53481000D01*
X72894000Y-56544000D02*
X71000000Y-54650000D01*
X69000000Y-53969000D02*
X70319000Y-53969000D01*
X70319000Y-53969000D02*
X71000000Y-54650000D01*
X62061000Y-52869000D02*
X61405500Y-52869000D01*
X68861500Y-53946000D02*
X68884500Y-53969000D01*
X68878000Y-45572550D02*
X68878000Y-46701572D01*
X62673000Y-53481000D02*
X62061000Y-52869000D01*
X68878000Y-46701572D02*
X70397000Y-48220572D01*
X73155000Y-56544000D02*
X72894000Y-56544000D01*
D29*
X62396000Y-29882000D02*
X64682000Y-32168000D01*
D30*
X68977000Y-53946000D02*
X69000000Y-53969000D01*
X66800000Y-53946000D02*
X68977000Y-53946000D01*
D29*
X59200000Y-49000000D02*
X59747529Y-49000000D01*
X59747529Y-49000000D02*
X60237000Y-48510529D01*
X60202000Y-47570000D02*
X60237000Y-47535000D01*
X68150000Y-56000000D02*
X67344256Y-56000000D01*
X68150000Y-56300000D02*
X70300000Y-58450000D01*
X68150000Y-56000000D02*
X68150000Y-56300000D01*
X67344256Y-56000000D02*
X65442776Y-54098520D01*
X60237000Y-48510529D02*
X60237000Y-47535000D01*
X60237000Y-47535000D02*
X60364000Y-47662000D01*
X58600000Y-49600000D02*
X59200000Y-49000000D01*
X65442776Y-54098520D02*
X59434520Y-54098520D01*
X70300000Y-58500000D02*
X72262500Y-58500000D01*
X62151550Y-34082550D02*
X60468000Y-34082550D01*
X58600000Y-53264000D02*
X58600000Y-49600000D01*
X59434520Y-54098520D02*
X58600000Y-53264000D01*
X72262500Y-58150000D02*
X72300000Y-58187500D01*
X62523000Y-34454000D02*
X62151550Y-34082550D01*
X65698000Y-47554000D02*
X66638500Y-48494500D01*
X63983764Y-47154000D02*
X64383765Y-47554000D01*
X64383765Y-47554000D02*
X65698000Y-47554000D01*
X62528000Y-46772550D02*
X62909450Y-47154000D01*
X62528000Y-45572550D02*
X62528000Y-46772550D01*
X66638500Y-49694000D02*
X66638500Y-51884500D01*
X66638500Y-48494500D02*
X66638500Y-49694000D01*
X66638500Y-51884500D02*
X66800000Y-52046000D01*
X62909450Y-47154000D02*
X63983764Y-47154000D01*
X69138500Y-49694000D02*
X69138500Y-51930500D01*
X64549450Y-47154000D02*
X67709685Y-47154000D01*
X69138500Y-51930500D02*
X69000000Y-52069000D01*
X63798000Y-45572550D02*
X63798000Y-46402550D01*
X69138500Y-48582815D02*
X69138500Y-49694000D01*
X67709685Y-47154000D02*
X69138500Y-48582815D01*
X63798000Y-46402550D02*
X64549450Y-47154000D01*
X59830500Y-52869000D02*
X59830500Y-52236500D01*
X59830500Y-52236500D02*
X61865000Y-50202000D01*
D30*
X75350000Y-57568000D02*
X75096000Y-57568000D01*
X75096000Y-57568000D02*
X75096000Y-56635000D01*
D29*
X67603000Y-44377550D02*
X67603000Y-44995000D01*
X74800000Y-53931500D02*
X75800000Y-52931500D01*
X76620000Y-55000000D02*
X76620000Y-54311500D01*
X76620000Y-54311500D02*
X77000000Y-53931500D01*
X70148000Y-44372550D02*
X70048489Y-44273039D01*
D30*
X75096000Y-57568000D02*
X75053000Y-57525000D01*
D29*
X70148000Y-45572550D02*
X70148000Y-44372550D01*
D30*
X76747000Y-58965000D02*
X75350000Y-57568000D01*
D29*
X75800000Y-52931500D02*
X75800000Y-50400000D01*
D30*
X76366000Y-33184000D02*
X77382000Y-32168000D01*
D29*
X70048489Y-44273039D02*
X67707511Y-44273039D01*
X67707511Y-44273039D02*
X67603000Y-44377550D01*
D30*
X71000000Y-56550000D02*
X71975000Y-57525000D01*
X76620000Y-58965000D02*
X76747000Y-58965000D01*
X71975000Y-57525000D02*
X75053000Y-57525000D01*
X75096000Y-33184000D02*
X76366000Y-33184000D01*
D29*
X62650000Y-85381000D02*
X67984000Y-90715000D01*
D31*
X64850000Y-56000000D02*
X64150000Y-55300000D01*
D29*
X67984000Y-101984000D02*
X68000000Y-102000000D01*
D31*
X64850000Y-56000000D02*
X65936000Y-57086000D01*
X66624000Y-58838000D02*
X67984000Y-58838000D01*
D32*
X68000000Y-102000000D02*
X68000000Y-142000000D01*
D29*
X67984000Y-58838000D02*
X67984000Y-74078000D01*
X62015000Y-55663000D02*
X62142000Y-55536000D01*
D31*
X65936000Y-58150000D02*
X66624000Y-58838000D01*
D29*
X67984000Y-90715000D02*
X67984000Y-101984000D01*
D31*
X64150000Y-55300000D02*
X62312500Y-55300000D01*
X65936000Y-57086000D02*
X65936000Y-58150000D01*
D29*
X62650000Y-79412000D02*
X62650000Y-85381000D01*
X67984000Y-74078000D02*
X62650000Y-79412000D01*
D31*
X65936000Y-60050000D02*
X65936000Y-59600000D01*
X63736000Y-57400000D02*
X62312500Y-57400000D01*
D29*
X62037000Y-57800000D02*
X62015000Y-57822000D01*
D31*
X65936000Y-59600000D02*
X63736000Y-57400000D01*
D29*
X58078000Y-31926000D02*
X58078000Y-30159000D01*
X58332000Y-34708000D02*
X58777511Y-34262489D01*
X58777511Y-34262489D02*
X58777511Y-32625511D01*
X58777511Y-32625511D02*
X58078000Y-31926000D01*
X60468000Y-39162550D02*
X59268000Y-39162550D01*
X58332000Y-38226550D02*
X58332000Y-34708000D01*
X59268000Y-39162550D02*
X58332000Y-38226550D01*
X59602000Y-48297000D02*
X59602000Y-48298000D01*
X58200000Y-53429686D02*
X60070315Y-55300000D01*
X59602000Y-48297000D02*
X59303000Y-48297000D01*
X60487500Y-55300000D02*
X60487500Y-57400000D01*
X58200000Y-49400000D02*
X58200000Y-53429686D01*
X60070315Y-55300000D02*
X60487500Y-55300000D01*
X60433314Y-55663000D02*
X60487500Y-55663000D01*
X59303000Y-48297000D02*
X58200000Y-49400000D01*
D31*
X60487500Y-58580500D02*
X61380000Y-59473000D01*
D29*
X60487500Y-57400000D02*
X60487500Y-58580500D01*
X61262550Y-35352550D02*
X62269000Y-36359000D01*
X60999000Y-48890500D02*
X59687500Y-50202000D01*
X60999000Y-46900000D02*
X60999000Y-48890500D01*
X61022000Y-46923000D02*
X60999000Y-46900000D01*
X60468000Y-35352550D02*
X61262550Y-35352550D01*
X74800000Y-49863000D02*
X74800000Y-52106500D01*
X74800000Y-52322000D02*
X73155000Y-53967000D01*
X74800000Y-52106500D02*
X74800000Y-52322000D01*
X73155000Y-53967000D02*
X73155000Y-55544000D01*
X75604000Y-49059000D02*
X74800000Y-49863000D01*
X76493000Y-48678000D02*
X77000000Y-49185000D01*
X75800000Y-54749000D02*
X75005000Y-55544000D01*
X77000000Y-52434256D02*
X75800000Y-53634256D01*
X77000000Y-52106500D02*
X77000000Y-52434256D01*
X75800000Y-53634256D02*
X75800000Y-54749000D01*
X77000000Y-49185000D02*
X77000000Y-52106500D01*
X77382000Y-42328000D02*
X77382000Y-43217000D01*
X77382000Y-43217000D02*
X76366000Y-44233000D01*
X73468000Y-47336000D02*
X72302000Y-48502000D01*
X73468000Y-42972550D02*
X73468000Y-47336000D01*
X63470000Y-48502000D02*
X60468000Y-45500000D01*
X63920000Y-48502000D02*
X63470000Y-48502000D01*
X60468000Y-45500000D02*
X60468000Y-42972550D01*
X76737450Y-35352550D02*
X73468000Y-35352550D01*
X77382000Y-34708000D02*
X76737450Y-35352550D01*
X74597550Y-34082550D02*
X73468000Y-34082550D01*
X75223000Y-34708000D02*
X74597550Y-34082550D01*
X75731000Y-37248000D02*
X75223000Y-36740000D01*
X77382000Y-37248000D02*
X75731000Y-37248000D01*
X73943450Y-31542550D02*
X75858000Y-29628000D01*
X73468000Y-31542550D02*
X73943450Y-31542550D01*
X75858000Y-29628000D02*
X77382000Y-29628000D01*
G04 #@! TA.AperFunction,Conductor*
G36*
X77129958Y-30605424D02*
G01*
X77184299Y-30621908D01*
X77184305Y-30621908D01*
X77184307Y-30621909D01*
X77381997Y-30641380D01*
X77382000Y-30641380D01*
X77382003Y-30641380D01*
X77579692Y-30621909D01*
X77579692Y-30621908D01*
X77579701Y-30621908D01*
X77634041Y-30605424D01*
X77670611Y-30600000D01*
X78848500Y-30600000D01*
X78916621Y-30620002D01*
X78963114Y-30673658D01*
X78974500Y-30726000D01*
X78974500Y-142937245D01*
X78954498Y-143005366D01*
X78937595Y-143026340D01*
X68983726Y-152980208D01*
X68980092Y-152983567D01*
X68823804Y-153117049D01*
X68807809Y-153128670D01*
X68638915Y-153232169D01*
X68621298Y-153241146D01*
X68438297Y-153316947D01*
X68419493Y-153323057D01*
X68226884Y-153369298D01*
X68207356Y-153372391D01*
X68009886Y-153387932D01*
X67990114Y-153387932D01*
X67792643Y-153372391D01*
X67773115Y-153369298D01*
X67580506Y-153323057D01*
X67561702Y-153316947D01*
X67378701Y-153241146D01*
X67361084Y-153232169D01*
X67192190Y-153128670D01*
X67176195Y-153117049D01*
X67019902Y-152983563D01*
X67016281Y-152980216D01*
X62030568Y-147994503D01*
X57062405Y-143026340D01*
X57028379Y-142964028D01*
X57025500Y-142937245D01*
X57025500Y-68000000D01*
X59555352Y-68000000D01*
X59574292Y-68228575D01*
X59575056Y-68237788D01*
X59633625Y-68469072D01*
X59633628Y-68469079D01*
X59729469Y-68687575D01*
X59859969Y-68887321D01*
X60021561Y-69062857D01*
X60021565Y-69062861D01*
X60149690Y-69162585D01*
X60209852Y-69209411D01*
X60419692Y-69322970D01*
X60419693Y-69322970D01*
X60419694Y-69322971D01*
X60538176Y-69363645D01*
X60645360Y-69400442D01*
X60880702Y-69439714D01*
X60880706Y-69439714D01*
X61119294Y-69439714D01*
X61119298Y-69439714D01*
X61354640Y-69400442D01*
X61580308Y-69322970D01*
X61790148Y-69209411D01*
X61978433Y-69062862D01*
X62140030Y-68887321D01*
X62270530Y-68687576D01*
X62366373Y-68469076D01*
X62424945Y-68237781D01*
X62444648Y-68000000D01*
X62424945Y-67762219D01*
X62366373Y-67530924D01*
X62270530Y-67312424D01*
X62140030Y-67112678D01*
X61978438Y-66937142D01*
X61978434Y-66937138D01*
X61790148Y-66790589D01*
X61790147Y-66790588D01*
X61674960Y-66728253D01*
X61580308Y-66677030D01*
X61580306Y-66677029D01*
X61580305Y-66677028D01*
X61354644Y-66599559D01*
X61354637Y-66599557D01*
X61253917Y-66582750D01*
X61119298Y-66560286D01*
X60880702Y-66560286D01*
X60762925Y-66579939D01*
X60645362Y-66599557D01*
X60645355Y-66599559D01*
X60419694Y-66677028D01*
X60419692Y-66677030D01*
X60209852Y-66790588D01*
X60209851Y-66790589D01*
X60021565Y-66937138D01*
X60021561Y-66937142D01*
X59859969Y-67112678D01*
X59729469Y-67312424D01*
X59633628Y-67530920D01*
X59633625Y-67530927D01*
X59575056Y-67762211D01*
X59575055Y-67762217D01*
X59575055Y-67762219D01*
X59555352Y-68000000D01*
X57025500Y-68000000D01*
X57025500Y-38759638D01*
X57045502Y-38691517D01*
X57099158Y-38645024D01*
X57169432Y-38634920D01*
X57234012Y-38664414D01*
X57251459Y-38682929D01*
X57263013Y-38697987D01*
X57291647Y-38719959D01*
X57297849Y-38725398D01*
X58032106Y-39459654D01*
X58066131Y-39521967D01*
X58069011Y-39548750D01*
X58069011Y-39798049D01*
X58068471Y-39806280D01*
X58063761Y-39842059D01*
X58063761Y-39842063D01*
X58068766Y-39880081D01*
X58068768Y-39880102D01*
X58069011Y-39881946D01*
X58082119Y-39981517D01*
X58084673Y-40000912D01*
X58145986Y-40148935D01*
X58145991Y-40148943D01*
X58219036Y-40244135D01*
X58243525Y-40276049D01*
X58272162Y-40298023D01*
X58278355Y-40303454D01*
X58806605Y-40831704D01*
X58812037Y-40837898D01*
X58834013Y-40866537D01*
X58864140Y-40889654D01*
X58864152Y-40889664D01*
X58865927Y-40891026D01*
X58865929Y-40891028D01*
X58914541Y-40928329D01*
X58956408Y-40985667D01*
X58963115Y-41014821D01*
X58966853Y-41049585D01*
X58965265Y-41049755D01*
X58965265Y-41085341D01*
X58966853Y-41085512D01*
X58959500Y-41153900D01*
X58959500Y-42251199D01*
X58966853Y-42319588D01*
X58965265Y-42319758D01*
X58965265Y-42355341D01*
X58966853Y-42355512D01*
X58959500Y-42423900D01*
X58959500Y-43521199D01*
X58966009Y-43581746D01*
X58966011Y-43581754D01*
X59017110Y-43718752D01*
X59017112Y-43718757D01*
X59104738Y-43835811D01*
X59221792Y-43923437D01*
X59221794Y-43923438D01*
X59221796Y-43923439D01*
X59280875Y-43945474D01*
X59358795Y-43974538D01*
X59358803Y-43974540D01*
X59419350Y-43981049D01*
X59419355Y-43981049D01*
X59419362Y-43981050D01*
X59733500Y-43981050D01*
X59801621Y-44001052D01*
X59848114Y-44054708D01*
X59859500Y-44107050D01*
X59859500Y-45455988D01*
X59858960Y-45464219D01*
X59854250Y-45499998D01*
X59854250Y-45500001D01*
X59858680Y-45533650D01*
X59858680Y-45533656D01*
X59869419Y-45615230D01*
X59875161Y-45658848D01*
X59875161Y-45658849D01*
X59936475Y-45806874D01*
X59936480Y-45806882D01*
X60009525Y-45902074D01*
X60034014Y-45933988D01*
X60062651Y-45955962D01*
X60068844Y-45961393D01*
X60344811Y-46237360D01*
X60378837Y-46299672D01*
X60373772Y-46370487D01*
X60362403Y-46393491D01*
X60265958Y-46546981D01*
X60265958Y-46546982D01*
X60229764Y-46650417D01*
X60188385Y-46708108D01*
X60124945Y-46734008D01*
X60055957Y-46741782D01*
X60055950Y-46741783D01*
X59883984Y-46801957D01*
X59883981Y-46801958D01*
X59729720Y-46898887D01*
X59729718Y-46898888D01*
X59600888Y-47027718D01*
X59600887Y-47027720D01*
X59503958Y-47181981D01*
X59503957Y-47181984D01*
X59443783Y-47353950D01*
X59443782Y-47353957D01*
X59436008Y-47422945D01*
X59408504Y-47488397D01*
X59352417Y-47527764D01*
X59248982Y-47563958D01*
X59094719Y-47660888D01*
X58973293Y-47782313D01*
X58967092Y-47787752D01*
X58900929Y-47838522D01*
X58900925Y-47838524D01*
X58869012Y-47863013D01*
X58847035Y-47891653D01*
X58841597Y-47897853D01*
X57800852Y-48938598D01*
X57794651Y-48944036D01*
X57766011Y-48966014D01*
X57740460Y-48999311D01*
X57740440Y-48999339D01*
X57668474Y-49093126D01*
X57607618Y-49240049D01*
X57607162Y-49241149D01*
X57607161Y-49241152D01*
X57602265Y-49278347D01*
X57591500Y-49360115D01*
X57591500Y-49360120D01*
X57591500Y-49360121D01*
X57586250Y-49399999D01*
X57586250Y-49400000D01*
X57590960Y-49435779D01*
X57591500Y-49444011D01*
X57591500Y-53385674D01*
X57590960Y-53393905D01*
X57586250Y-53429686D01*
X57591500Y-53469565D01*
X57591500Y-53469571D01*
X57604054Y-53564925D01*
X57604054Y-53564928D01*
X57607161Y-53588535D01*
X57607162Y-53588537D01*
X57629307Y-53642000D01*
X57668475Y-53736560D01*
X57668480Y-53736568D01*
X57708451Y-53788658D01*
X57741523Y-53831758D01*
X57741525Y-53831760D01*
X57766013Y-53863673D01*
X57792153Y-53883731D01*
X57794647Y-53885645D01*
X57800849Y-53891084D01*
X59429595Y-55519828D01*
X59463620Y-55582141D01*
X59466500Y-55608923D01*
X59466500Y-55800544D01*
X59477112Y-55904425D01*
X59532885Y-56072738D01*
X59625970Y-56223652D01*
X59625975Y-56223658D01*
X59663222Y-56260905D01*
X59697248Y-56323217D01*
X59692183Y-56394032D01*
X59663222Y-56439095D01*
X59625975Y-56476341D01*
X59625970Y-56476347D01*
X59532885Y-56627262D01*
X59477113Y-56795572D01*
X59477112Y-56795579D01*
X59466500Y-56899446D01*
X59466500Y-57900544D01*
X59477112Y-58004425D01*
X59532885Y-58172738D01*
X59625970Y-58323652D01*
X59625975Y-58323658D01*
X59751341Y-58449024D01*
X59751345Y-58449027D01*
X59751348Y-58449030D01*
X59751353Y-58449033D01*
X59793833Y-58475236D01*
X59841311Y-58528022D01*
X59853624Y-58578516D01*
X59856826Y-58680390D01*
X59901483Y-58834097D01*
X59982956Y-58971860D01*
X59982958Y-58971862D01*
X60335014Y-59323918D01*
X60369038Y-59386229D01*
X60371311Y-59425361D01*
X60366620Y-59472995D01*
X60366620Y-59473003D01*
X60386090Y-59670694D01*
X60386091Y-59670700D01*
X60386092Y-59670701D01*
X60443759Y-59860804D01*
X60537405Y-60036004D01*
X60663432Y-60189568D01*
X60816996Y-60315595D01*
X60992196Y-60409241D01*
X61182299Y-60466908D01*
X61182303Y-60466908D01*
X61182305Y-60466909D01*
X61379997Y-60486380D01*
X61380000Y-60486380D01*
X61380003Y-60486380D01*
X61577694Y-60466909D01*
X61577695Y-60466908D01*
X61577701Y-60466908D01*
X61767804Y-60409241D01*
X61943004Y-60315595D01*
X62096568Y-60189568D01*
X62222595Y-60036004D01*
X62316241Y-59860804D01*
X62373908Y-59670701D01*
X62375075Y-59658858D01*
X62393380Y-59473003D01*
X62393380Y-59472996D01*
X62381660Y-59354000D01*
X62978000Y-59354000D01*
X62978000Y-59548597D01*
X62984505Y-59609093D01*
X63035555Y-59745964D01*
X63035555Y-59745965D01*
X63123095Y-59862904D01*
X63240034Y-59950444D01*
X63376906Y-60001494D01*
X63437402Y-60007999D01*
X63437415Y-60008000D01*
X63682000Y-60008000D01*
X63682000Y-59354000D01*
X62978000Y-59354000D01*
X62381660Y-59354000D01*
X62373909Y-59275305D01*
X62373908Y-59275303D01*
X62373908Y-59275299D01*
X62316241Y-59085196D01*
X62222595Y-58909996D01*
X62144167Y-58814432D01*
X62116414Y-58749086D01*
X62128396Y-58679107D01*
X62176308Y-58626716D01*
X62241564Y-58608499D01*
X62625544Y-58608499D01*
X62729426Y-58597887D01*
X62729429Y-58597886D01*
X62729431Y-58597886D01*
X62812367Y-58570404D01*
X62883322Y-58567963D01*
X62944332Y-58604271D01*
X62976027Y-58667800D01*
X62978000Y-58690008D01*
X62978000Y-58846000D01*
X64064000Y-58846000D01*
X64132121Y-58866002D01*
X64178614Y-58919658D01*
X64190000Y-58972000D01*
X64190000Y-60008000D01*
X64434585Y-60008000D01*
X64434597Y-60007999D01*
X64495093Y-60001494D01*
X64631964Y-59950444D01*
X64631965Y-59950444D01*
X64748903Y-59862904D01*
X64750631Y-59860597D01*
X64752941Y-59858867D01*
X64755277Y-59856532D01*
X64755612Y-59856867D01*
X64807467Y-59818050D01*
X64878283Y-59812984D01*
X64940595Y-59847009D01*
X64974620Y-59909321D01*
X64977500Y-59936105D01*
X64977500Y-60498649D01*
X64984009Y-60559196D01*
X64984011Y-60559204D01*
X65035110Y-60696202D01*
X65035112Y-60696207D01*
X65122738Y-60813261D01*
X65239792Y-60900887D01*
X65239794Y-60900888D01*
X65239796Y-60900889D01*
X65297804Y-60922525D01*
X65376795Y-60951988D01*
X65376803Y-60951990D01*
X65437350Y-60958499D01*
X65437355Y-60958499D01*
X65437362Y-60958500D01*
X65437368Y-60958500D01*
X66434632Y-60958500D01*
X66434638Y-60958500D01*
X66434645Y-60958499D01*
X66434649Y-60958499D01*
X66495196Y-60951990D01*
X66495199Y-60951989D01*
X66495201Y-60951989D01*
X66632204Y-60900889D01*
X66749261Y-60813261D01*
X66836889Y-60696204D01*
X66887989Y-60559201D01*
X66894500Y-60498638D01*
X66894500Y-59601362D01*
X66894500Y-59597988D01*
X66896123Y-59597988D01*
X66911002Y-59535115D01*
X66962108Y-59485833D01*
X67020474Y-59471500D01*
X67139667Y-59471500D01*
X67207788Y-59491502D01*
X67237063Y-59517563D01*
X67267432Y-59554568D01*
X67329435Y-59605453D01*
X67369402Y-59664126D01*
X67375500Y-59702849D01*
X67375500Y-73773760D01*
X67355498Y-73841881D01*
X67338595Y-73862855D01*
X62250852Y-78950598D01*
X62244651Y-78956036D01*
X62216011Y-78978014D01*
X62190460Y-79011311D01*
X62190440Y-79011339D01*
X62118332Y-79105312D01*
X62117685Y-79107031D01*
X62057162Y-79253149D01*
X62057162Y-79253150D01*
X62041500Y-79372115D01*
X62041500Y-79372120D01*
X62041500Y-79372121D01*
X62036250Y-79411999D01*
X62036250Y-79412000D01*
X62040960Y-79447779D01*
X62041500Y-79456011D01*
X62041500Y-85336988D01*
X62040960Y-85345219D01*
X62036250Y-85380998D01*
X62036250Y-85381002D01*
X62041255Y-85419020D01*
X62041257Y-85419041D01*
X62054608Y-85520455D01*
X62057162Y-85539851D01*
X62118475Y-85687874D01*
X62118480Y-85687882D01*
X62191525Y-85783074D01*
X62216014Y-85814988D01*
X62244651Y-85836962D01*
X62250844Y-85842393D01*
X66662048Y-90253597D01*
X67338595Y-90930144D01*
X67372621Y-90992456D01*
X67375500Y-91019239D01*
X67375500Y-96411955D01*
X67355498Y-96480076D01*
X67301842Y-96526569D01*
X67270794Y-96536143D01*
X66838436Y-96610278D01*
X66838430Y-96610279D01*
X66838427Y-96610280D01*
X66473713Y-96705244D01*
X66385523Y-96728207D01*
X66116005Y-96823435D01*
X65944268Y-96884114D01*
X65517816Y-97076882D01*
X65161872Y-97275723D01*
X65109247Y-97305122D01*
X64721509Y-97567188D01*
X64357394Y-97861189D01*
X64357391Y-97861192D01*
X64223453Y-97989560D01*
X64019526Y-98185008D01*
X63710327Y-98536326D01*
X63710325Y-98536329D01*
X63452629Y-98884757D01*
X63432036Y-98912601D01*
X63432037Y-98912601D01*
X63186667Y-99311107D01*
X62975969Y-99729000D01*
X62801473Y-100163249D01*
X62801473Y-100163250D01*
X62664435Y-100610727D01*
X62565838Y-101068217D01*
X62506394Y-101532428D01*
X62491500Y-101883047D01*
X62491500Y-142116953D01*
X62506394Y-142467572D01*
X62565838Y-142931783D01*
X62664435Y-143389273D01*
X62801473Y-143836750D01*
X62801473Y-143836751D01*
X62975969Y-144271000D01*
X63186667Y-144688893D01*
X63432037Y-145087399D01*
X63432036Y-145087399D01*
X63432039Y-145087403D01*
X63710325Y-145463671D01*
X63710327Y-145463673D01*
X63710327Y-145463674D01*
X64019526Y-145814992D01*
X64223453Y-146010439D01*
X64357391Y-146138808D01*
X64357394Y-146138810D01*
X64357394Y-146138811D01*
X64721509Y-146432812D01*
X65109247Y-146694878D01*
X65109249Y-146694879D01*
X65517816Y-146923118D01*
X65944268Y-147115886D01*
X66116005Y-147176564D01*
X66385523Y-147271793D01*
X66385531Y-147271795D01*
X66838427Y-147389720D01*
X66838430Y-147389720D01*
X66838436Y-147389722D01*
X67189912Y-147449987D01*
X67299691Y-147468811D01*
X67766002Y-147508500D01*
X68233998Y-147508500D01*
X68700309Y-147468811D01*
X68810087Y-147449987D01*
X69161564Y-147389722D01*
X69161569Y-147389720D01*
X69161573Y-147389720D01*
X69614469Y-147271795D01*
X69614468Y-147271795D01*
X69614477Y-147271793D01*
X69883994Y-147176564D01*
X70055732Y-147115886D01*
X70482184Y-146923118D01*
X70890751Y-146694879D01*
X70890749Y-146694879D01*
X70890753Y-146694878D01*
X71278491Y-146432812D01*
X71642606Y-146138811D01*
X71642606Y-146138810D01*
X71642609Y-146138808D01*
X71776546Y-146010439D01*
X71980474Y-145814992D01*
X72289673Y-145463674D01*
X72289673Y-145463673D01*
X72289675Y-145463671D01*
X72567961Y-145087403D01*
X72567960Y-145087403D01*
X72567964Y-145087399D01*
X72567963Y-145087399D01*
X72813333Y-144688893D01*
X73024031Y-144271000D01*
X73198527Y-143836751D01*
X73198527Y-143836750D01*
X73335565Y-143389273D01*
X73434162Y-142931783D01*
X73493606Y-142467572D01*
X73508500Y-142116953D01*
X73508500Y-101883047D01*
X73493606Y-101532428D01*
X73434162Y-101068217D01*
X73335565Y-100610727D01*
X73198527Y-100163250D01*
X73198527Y-100163249D01*
X73024031Y-99729000D01*
X72813333Y-99311107D01*
X72567963Y-98912601D01*
X72567964Y-98912601D01*
X72547370Y-98884757D01*
X72289675Y-98536329D01*
X72289673Y-98536326D01*
X71980474Y-98185008D01*
X71776546Y-97989560D01*
X71642609Y-97861192D01*
X71642606Y-97861189D01*
X71278491Y-97567188D01*
X70890753Y-97305122D01*
X70838127Y-97275723D01*
X70482184Y-97076882D01*
X70055732Y-96884114D01*
X69883994Y-96823435D01*
X69614477Y-96728207D01*
X69526286Y-96705244D01*
X69161573Y-96610280D01*
X69161569Y-96610279D01*
X69161564Y-96610278D01*
X68700266Y-96531181D01*
X68702410Y-96531457D01*
X68637401Y-96502920D01*
X68598141Y-96443766D01*
X68592500Y-96406489D01*
X68592500Y-90759011D01*
X68593040Y-90750779D01*
X68597750Y-90715000D01*
X68597750Y-90714999D01*
X68592500Y-90675121D01*
X68592500Y-90675120D01*
X68592500Y-90675115D01*
X68576838Y-90556150D01*
X68516312Y-90410027D01*
X68515665Y-90408307D01*
X68441163Y-90311216D01*
X68441154Y-90311205D01*
X68417988Y-90281013D01*
X68389346Y-90259035D01*
X68383153Y-90253604D01*
X63295405Y-85165856D01*
X63261379Y-85103544D01*
X63258500Y-85076761D01*
X63258500Y-79716238D01*
X63278502Y-79648117D01*
X63295400Y-79627148D01*
X68383160Y-74539387D01*
X68389341Y-74533966D01*
X68417987Y-74511987D01*
X68436163Y-74488298D01*
X68436170Y-74488291D01*
X68515519Y-74384882D01*
X68515524Y-74384876D01*
X68576838Y-74236851D01*
X68579391Y-74217456D01*
X68592500Y-74117885D01*
X68592500Y-74117879D01*
X68597750Y-74078000D01*
X68593040Y-74042219D01*
X68592500Y-74033988D01*
X68592500Y-68000000D01*
X73555352Y-68000000D01*
X73574292Y-68228575D01*
X73575056Y-68237788D01*
X73633625Y-68469072D01*
X73633628Y-68469079D01*
X73729469Y-68687575D01*
X73859969Y-68887321D01*
X74021561Y-69062857D01*
X74021565Y-69062861D01*
X74149690Y-69162585D01*
X74209852Y-69209411D01*
X74419692Y-69322970D01*
X74419693Y-69322970D01*
X74419694Y-69322971D01*
X74538176Y-69363645D01*
X74645360Y-69400442D01*
X74880702Y-69439714D01*
X74880706Y-69439714D01*
X75119294Y-69439714D01*
X75119298Y-69439714D01*
X75354640Y-69400442D01*
X75580308Y-69322970D01*
X75790148Y-69209411D01*
X75978433Y-69062862D01*
X76140030Y-68887321D01*
X76270530Y-68687576D01*
X76366373Y-68469076D01*
X76424945Y-68237781D01*
X76444648Y-68000000D01*
X76424945Y-67762219D01*
X76366373Y-67530924D01*
X76270530Y-67312424D01*
X76140030Y-67112678D01*
X75978438Y-66937142D01*
X75978434Y-66937138D01*
X75790148Y-66790589D01*
X75790147Y-66790588D01*
X75674960Y-66728253D01*
X75580308Y-66677030D01*
X75580306Y-66677029D01*
X75580305Y-66677028D01*
X75354644Y-66599559D01*
X75354637Y-66599557D01*
X75253917Y-66582750D01*
X75119298Y-66560286D01*
X74880702Y-66560286D01*
X74762925Y-66579939D01*
X74645362Y-66599557D01*
X74645355Y-66599559D01*
X74419694Y-66677028D01*
X74419692Y-66677030D01*
X74209852Y-66790588D01*
X74209851Y-66790589D01*
X74021565Y-66937138D01*
X74021561Y-66937142D01*
X73859969Y-67112678D01*
X73729469Y-67312424D01*
X73633628Y-67530920D01*
X73633625Y-67530927D01*
X73575056Y-67762211D01*
X73575055Y-67762217D01*
X73575055Y-67762219D01*
X73555352Y-68000000D01*
X68592500Y-68000000D01*
X68592500Y-60604000D01*
X69067000Y-60604000D01*
X69067000Y-60650516D01*
X69077605Y-60754318D01*
X69077606Y-60754321D01*
X69133342Y-60922525D01*
X69226365Y-61073339D01*
X69226370Y-61073345D01*
X69351654Y-61198629D01*
X69351660Y-61198634D01*
X69502474Y-61291657D01*
X69670678Y-61347393D01*
X69670681Y-61347394D01*
X69774483Y-61357999D01*
X69774483Y-61358000D01*
X70046000Y-61358000D01*
X70554000Y-61358000D01*
X70825517Y-61358000D01*
X70825516Y-61357999D01*
X70929318Y-61347394D01*
X70929321Y-61347393D01*
X71097525Y-61291657D01*
X71248337Y-61198635D01*
X71253126Y-61194849D01*
X71318967Y-61168286D01*
X71388716Y-61181536D01*
X71397426Y-61186442D01*
X71527474Y-61266657D01*
X71695678Y-61322393D01*
X71695681Y-61322394D01*
X71799483Y-61332999D01*
X71799483Y-61333000D01*
X72046000Y-61333000D01*
X72046000Y-60566500D01*
X72554000Y-60566500D01*
X72554000Y-61333000D01*
X72800517Y-61333000D01*
X72800516Y-61332999D01*
X72904318Y-61322394D01*
X72904321Y-61322393D01*
X73072525Y-61266657D01*
X73223339Y-61173634D01*
X73223345Y-61173629D01*
X73348629Y-61048345D01*
X73348634Y-61048339D01*
X73441657Y-60897525D01*
X73497393Y-60729321D01*
X73497394Y-60729318D01*
X73507999Y-60625516D01*
X73508000Y-60625516D01*
X73508000Y-60566500D01*
X72554000Y-60566500D01*
X72046000Y-60566500D01*
X71572999Y-60566500D01*
X71572404Y-60567095D01*
X71510092Y-60601121D01*
X71483309Y-60604000D01*
X70554000Y-60604000D01*
X70554000Y-61358000D01*
X70046000Y-61358000D01*
X70046000Y-60604000D01*
X69067000Y-60604000D01*
X68592500Y-60604000D01*
X68592500Y-59702849D01*
X68612502Y-59634728D01*
X68638560Y-59605455D01*
X68700568Y-59554568D01*
X68826595Y-59401004D01*
X68920241Y-59225804D01*
X68950518Y-59125991D01*
X68989432Y-59066612D01*
X69054273Y-59037696D01*
X69124454Y-59048425D01*
X69177693Y-59095395D01*
X69178332Y-59096420D01*
X69225968Y-59173650D01*
X69225975Y-59173658D01*
X69351345Y-59299028D01*
X69354450Y-59301483D01*
X69356027Y-59303710D01*
X69356537Y-59304220D01*
X69356449Y-59304307D01*
X69395481Y-59359422D01*
X69398673Y-59430347D01*
X69363014Y-59491739D01*
X69354454Y-59499157D01*
X69351654Y-59501370D01*
X69226370Y-59626654D01*
X69226365Y-59626660D01*
X69133342Y-59777474D01*
X69077606Y-59945678D01*
X69077605Y-59945681D01*
X69067000Y-60049483D01*
X69067000Y-60096000D01*
X71052001Y-60096000D01*
X71052596Y-60095405D01*
X71114908Y-60061379D01*
X71141691Y-60058500D01*
X73508000Y-60058500D01*
X73508000Y-59999483D01*
X73497394Y-59895681D01*
X73497393Y-59895678D01*
X73441657Y-59727474D01*
X73348634Y-59576660D01*
X73348629Y-59576654D01*
X73261424Y-59489449D01*
X73227398Y-59427137D01*
X73232463Y-59356322D01*
X73261424Y-59311259D01*
X73349024Y-59223658D01*
X73349030Y-59223652D01*
X73442115Y-59072738D01*
X73497887Y-58904426D01*
X73508500Y-58800545D01*
X73508499Y-58409499D01*
X73528501Y-58341380D01*
X73582156Y-58294887D01*
X73634499Y-58283500D01*
X74807697Y-58283500D01*
X74848206Y-58292478D01*
X74848831Y-58290594D01*
X74855791Y-58292900D01*
X74855794Y-58292902D01*
X74855796Y-58292902D01*
X74855801Y-58292904D01*
X74883097Y-58298539D01*
X74907491Y-58303576D01*
X74912802Y-58304916D01*
X74963391Y-58320062D01*
X74974645Y-58320717D01*
X74996370Y-58323899D01*
X75007344Y-58326500D01*
X75007347Y-58326500D01*
X75009903Y-58327106D01*
X75069932Y-58360613D01*
X75792661Y-59083342D01*
X75823759Y-59139609D01*
X75824446Y-59139369D01*
X75825859Y-59143407D01*
X75826406Y-59144397D01*
X75826782Y-59146046D01*
X75886957Y-59318015D01*
X75886958Y-59318018D01*
X75983887Y-59472279D01*
X75983888Y-59472281D01*
X76112718Y-59601111D01*
X76112720Y-59601112D01*
X76266981Y-59698041D01*
X76266982Y-59698041D01*
X76266985Y-59698043D01*
X76438953Y-59758217D01*
X76620000Y-59778616D01*
X76801047Y-59758217D01*
X76973015Y-59698043D01*
X76980091Y-59693597D01*
X77014518Y-59678575D01*
X77028949Y-59674709D01*
X77050266Y-59663213D01*
X77066969Y-59655718D01*
X77089732Y-59647435D01*
X77133842Y-59618423D01*
X77138548Y-59615612D01*
X77185019Y-59590557D01*
X77203114Y-59574452D01*
X77217627Y-59563316D01*
X77237874Y-59550001D01*
X77274106Y-59511595D01*
X77278040Y-59507774D01*
X77317476Y-59472681D01*
X77331372Y-59452834D01*
X77342922Y-59438655D01*
X77359553Y-59421029D01*
X77385962Y-59375284D01*
X77388893Y-59370684D01*
X77419178Y-59327435D01*
X77428118Y-59304929D01*
X77436092Y-59288456D01*
X77448209Y-59267472D01*
X77463360Y-59216859D01*
X77465145Y-59211723D01*
X77484642Y-59162650D01*
X77488152Y-59138684D01*
X77492115Y-59120813D01*
X77494204Y-59113834D01*
X77499062Y-59097609D01*
X77502131Y-59044896D01*
X77502687Y-59039452D01*
X77510341Y-58987211D01*
X77508229Y-58963081D01*
X77507963Y-58944783D01*
X77509372Y-58920597D01*
X77500205Y-58868609D01*
X77499487Y-58863157D01*
X77497286Y-58838000D01*
X77494887Y-58810573D01*
X77487268Y-58787581D01*
X77482787Y-58769827D01*
X77478583Y-58745983D01*
X77478582Y-58745981D01*
X77478582Y-58745979D01*
X77457671Y-58697503D01*
X77455717Y-58692367D01*
X77439114Y-58642261D01*
X77426395Y-58621640D01*
X77417946Y-58605410D01*
X77408352Y-58583168D01*
X77398850Y-58570404D01*
X77376828Y-58540823D01*
X77373741Y-58536274D01*
X77346031Y-58491351D01*
X77346030Y-58491349D01*
X77346028Y-58491347D01*
X77346025Y-58491343D01*
X77328910Y-58474229D01*
X77316936Y-58460375D01*
X77308492Y-58449033D01*
X77302469Y-58440942D01*
X77262021Y-58407002D01*
X77257978Y-58403297D01*
X75931908Y-57077227D01*
X75919936Y-57063375D01*
X75905469Y-57043942D01*
X75902280Y-57041266D01*
X75899506Y-57038938D01*
X75860181Y-56979828D01*
X75854500Y-56942419D01*
X75854500Y-56590817D01*
X75839079Y-56458887D01*
X75839078Y-56458885D01*
X75838928Y-56458474D01*
X75797905Y-56345761D01*
X75778436Y-56292270D01*
X75778435Y-56292268D01*
X75761079Y-56265880D01*
X75749941Y-56244858D01*
X75713106Y-56155928D01*
X75686077Y-56120705D01*
X75660475Y-56054485D01*
X75674739Y-55984936D01*
X75686069Y-55967304D01*
X75713105Y-55932072D01*
X75773160Y-55787087D01*
X75788500Y-55670566D01*
X75788500Y-55670552D01*
X75788770Y-55666443D01*
X75790462Y-55666554D01*
X75808502Y-55605118D01*
X75825405Y-55584144D01*
X75853983Y-55555566D01*
X75916295Y-55521540D01*
X75987110Y-55526605D01*
X76032173Y-55555566D01*
X76112718Y-55636111D01*
X76112720Y-55636112D01*
X76266981Y-55733041D01*
X76266982Y-55733041D01*
X76266985Y-55733043D01*
X76438953Y-55793217D01*
X76620000Y-55813616D01*
X76801047Y-55793217D01*
X76973015Y-55733043D01*
X77127281Y-55636111D01*
X77256111Y-55507281D01*
X77353043Y-55353015D01*
X77413217Y-55181047D01*
X77426880Y-55059778D01*
X77454382Y-54994329D01*
X77512906Y-54954136D01*
X77539279Y-54948542D01*
X77604426Y-54941887D01*
X77772738Y-54886115D01*
X77923652Y-54793030D01*
X78049030Y-54667652D01*
X78142115Y-54516738D01*
X78197887Y-54348426D01*
X78208500Y-54244545D01*
X78208499Y-53618456D01*
X78205442Y-53588535D01*
X78197887Y-53514574D01*
X78189670Y-53489777D01*
X78142115Y-53346262D01*
X78049030Y-53195348D01*
X78049029Y-53195347D01*
X78049024Y-53195341D01*
X77961778Y-53108095D01*
X77927752Y-53045783D01*
X77932817Y-52974968D01*
X77961778Y-52929905D01*
X78049024Y-52842658D01*
X78049030Y-52842652D01*
X78142115Y-52691738D01*
X78197887Y-52523426D01*
X78208500Y-52419545D01*
X78208499Y-51793456D01*
X78207838Y-51786990D01*
X78197887Y-51689574D01*
X78181983Y-51641579D01*
X78142115Y-51521262D01*
X78049030Y-51370348D01*
X78049029Y-51370347D01*
X78049024Y-51370341D01*
X77923658Y-51244975D01*
X77923652Y-51244970D01*
X77883129Y-51219975D01*
X77772738Y-51151885D01*
X77772735Y-51151884D01*
X77694866Y-51126080D01*
X77636495Y-51085666D01*
X77609240Y-51020109D01*
X77608500Y-51006476D01*
X77608500Y-49229010D01*
X77609040Y-49220778D01*
X77610383Y-49210566D01*
X77613750Y-49185000D01*
X77608500Y-49145122D01*
X77608500Y-49145115D01*
X77592838Y-49026150D01*
X77531524Y-48878125D01*
X77499853Y-48836851D01*
X77458477Y-48782928D01*
X77458474Y-48782925D01*
X77433987Y-48751013D01*
X77433986Y-48751012D01*
X77405346Y-48729035D01*
X77399153Y-48723604D01*
X77331832Y-48656283D01*
X77297806Y-48593971D01*
X77295720Y-48581306D01*
X77286217Y-48496953D01*
X77226043Y-48324985D01*
X77226041Y-48324982D01*
X77226041Y-48324981D01*
X77129112Y-48170720D01*
X77129111Y-48170718D01*
X77000281Y-48041888D01*
X77000279Y-48041887D01*
X76846018Y-47944958D01*
X76846015Y-47944957D01*
X76674050Y-47884784D01*
X76674049Y-47884783D01*
X76674047Y-47884783D01*
X76493000Y-47864384D01*
X76311953Y-47884783D01*
X76311950Y-47884783D01*
X76311949Y-47884784D01*
X76139984Y-47944957D01*
X76139981Y-47944958D01*
X75985720Y-48041887D01*
X75985718Y-48041888D01*
X75856892Y-48170714D01*
X75856890Y-48170717D01*
X75838474Y-48200024D01*
X75785293Y-48247060D01*
X75717683Y-48258192D01*
X75604001Y-48245384D01*
X75604000Y-48245384D01*
X75422953Y-48265783D01*
X75422950Y-48265783D01*
X75422949Y-48265784D01*
X75250984Y-48325957D01*
X75250981Y-48325958D01*
X75096720Y-48422887D01*
X75096718Y-48422888D01*
X74967888Y-48551718D01*
X74967887Y-48551720D01*
X74870958Y-48705981D01*
X74870957Y-48705984D01*
X74810783Y-48877950D01*
X74810782Y-48877957D01*
X74801278Y-48962298D01*
X74773774Y-49027750D01*
X74765166Y-49037283D01*
X74400852Y-49401598D01*
X74394651Y-49407036D01*
X74366011Y-49429014D01*
X74340460Y-49462311D01*
X74340440Y-49462339D01*
X74268473Y-49556127D01*
X74208279Y-49701454D01*
X74207162Y-49704148D01*
X74207162Y-49704150D01*
X74191500Y-49823115D01*
X74191500Y-49823120D01*
X74191500Y-49823121D01*
X74186250Y-49862999D01*
X74186250Y-49863000D01*
X74190960Y-49898779D01*
X74191500Y-49907011D01*
X74191500Y-51006476D01*
X74171498Y-51074597D01*
X74117842Y-51121090D01*
X74105134Y-51126080D01*
X74027264Y-51151884D01*
X73876347Y-51244970D01*
X73812481Y-51308836D01*
X73750168Y-51342861D01*
X73679353Y-51337795D01*
X73622517Y-51295248D01*
X73605330Y-51263772D01*
X73602444Y-51256034D01*
X73514904Y-51139095D01*
X73397965Y-51051555D01*
X73261093Y-51000505D01*
X73200597Y-50994000D01*
X72556000Y-50994000D01*
X72556000Y-52810000D01*
X73147260Y-52810000D01*
X73215381Y-52830002D01*
X73261874Y-52883658D01*
X73271978Y-52953932D01*
X73242484Y-53018512D01*
X73236368Y-53025081D01*
X72988244Y-53273206D01*
X72755852Y-53505598D01*
X72749651Y-53511036D01*
X72721011Y-53533014D01*
X72695460Y-53566311D01*
X72695440Y-53566339D01*
X72623473Y-53660127D01*
X72567392Y-53795524D01*
X72562161Y-53808150D01*
X72557837Y-53841000D01*
X72546500Y-53927115D01*
X72546500Y-53927120D01*
X72546500Y-53927121D01*
X72541250Y-53966999D01*
X72541250Y-53967000D01*
X72545960Y-54002779D01*
X72546500Y-54011011D01*
X72546500Y-54983350D01*
X72526498Y-55051471D01*
X72520462Y-55060055D01*
X72445487Y-55157762D01*
X72388148Y-55199629D01*
X72317277Y-55203850D01*
X72255375Y-55169085D01*
X72222094Y-55106372D01*
X72222289Y-55061226D01*
X72221695Y-55061166D01*
X72222316Y-55055085D01*
X72222318Y-55054673D01*
X72222395Y-55054312D01*
X72232999Y-54950516D01*
X72233000Y-54950516D01*
X72233000Y-54904000D01*
X70872000Y-54904000D01*
X70803879Y-54883998D01*
X70757386Y-54830342D01*
X70746000Y-54778000D01*
X70746000Y-53642000D01*
X71254000Y-53642000D01*
X71254000Y-54396000D01*
X72233000Y-54396000D01*
X72233000Y-54349483D01*
X72222394Y-54245681D01*
X72222393Y-54245678D01*
X72166657Y-54077474D01*
X72073634Y-53926660D01*
X72073629Y-53926654D01*
X71948345Y-53801370D01*
X71948339Y-53801365D01*
X71797525Y-53708342D01*
X71629321Y-53652606D01*
X71629318Y-53652605D01*
X71525516Y-53642000D01*
X71254000Y-53642000D01*
X70746000Y-53642000D01*
X70474483Y-53642000D01*
X70370674Y-53652606D01*
X70369862Y-53652780D01*
X70369348Y-53652741D01*
X70363834Y-53653305D01*
X70363733Y-53652320D01*
X70299064Y-53647474D01*
X70242373Y-53604734D01*
X70223893Y-53569202D01*
X70166657Y-53396474D01*
X70073634Y-53245660D01*
X70073629Y-53245654D01*
X69948344Y-53120369D01*
X69945551Y-53118161D01*
X69944131Y-53116156D01*
X69943150Y-53115175D01*
X69943317Y-53115007D01*
X69904519Y-53060222D01*
X69901325Y-52989298D01*
X69936983Y-52927905D01*
X69945554Y-52920478D01*
X69948639Y-52918037D01*
X69948652Y-52918030D01*
X70074030Y-52792652D01*
X70167115Y-52641738D01*
X70222887Y-52473426D01*
X70233500Y-52369545D01*
X70233500Y-52156000D01*
X70944000Y-52156000D01*
X70944000Y-52350597D01*
X70950505Y-52411093D01*
X71001555Y-52547964D01*
X71001555Y-52547965D01*
X71089095Y-52664904D01*
X71206034Y-52752444D01*
X71342906Y-52803494D01*
X71403402Y-52809999D01*
X71403415Y-52810000D01*
X72048000Y-52810000D01*
X72048000Y-52156000D01*
X70944000Y-52156000D01*
X70233500Y-52156000D01*
X70233499Y-51768456D01*
X70231148Y-51745446D01*
X70222887Y-51664574D01*
X70217395Y-51648000D01*
X70944000Y-51648000D01*
X72048000Y-51648000D01*
X72048000Y-50994000D01*
X71403402Y-50994000D01*
X71342906Y-51000505D01*
X71206035Y-51051555D01*
X71206034Y-51051555D01*
X71089095Y-51139095D01*
X71001555Y-51256034D01*
X71001555Y-51256035D01*
X70950505Y-51392906D01*
X70944000Y-51453402D01*
X70944000Y-51648000D01*
X70217395Y-51648000D01*
X70215265Y-51641572D01*
X70167115Y-51496262D01*
X70074030Y-51345348D01*
X70074029Y-51345347D01*
X70074024Y-51345341D01*
X69948658Y-51219975D01*
X69948649Y-51219968D01*
X69942913Y-51216430D01*
X69895435Y-51163644D01*
X69884033Y-51093569D01*
X69912326Y-51028453D01*
X69933552Y-51008322D01*
X70001761Y-50957261D01*
X70089387Y-50840207D01*
X70089387Y-50840206D01*
X70089389Y-50840204D01*
X70140489Y-50703201D01*
X70147000Y-50642638D01*
X70147000Y-48745362D01*
X70142767Y-48705984D01*
X70140490Y-48684803D01*
X70140488Y-48684795D01*
X70111424Y-48606875D01*
X70089389Y-48547796D01*
X70089388Y-48547794D01*
X70089387Y-48547792D01*
X70001761Y-48430738D01*
X69884707Y-48343112D01*
X69884702Y-48343110D01*
X69747704Y-48292011D01*
X69747696Y-48292009D01*
X69730127Y-48290121D01*
X69664535Y-48262952D01*
X69643637Y-48241551D01*
X69596978Y-48180744D01*
X69596974Y-48180740D01*
X69589285Y-48170720D01*
X69572486Y-48148827D01*
X69543846Y-48126850D01*
X69537653Y-48121419D01*
X68649487Y-47233253D01*
X68615461Y-47170941D01*
X68620526Y-47100126D01*
X68624000Y-47094720D01*
X68624000Y-45444550D01*
X68644002Y-45376429D01*
X68697658Y-45329936D01*
X68750000Y-45318550D01*
X69006000Y-45318550D01*
X69074121Y-45338552D01*
X69120614Y-45392208D01*
X69132000Y-45444550D01*
X69132000Y-47080550D01*
X69426585Y-47080550D01*
X69426597Y-47080549D01*
X69494931Y-47073202D01*
X69495127Y-47075031D01*
X69530817Y-47075031D01*
X69530961Y-47073697D01*
X69599350Y-47081049D01*
X69599355Y-47081049D01*
X69599362Y-47081050D01*
X69599368Y-47081050D01*
X70696632Y-47081050D01*
X70696638Y-47081050D01*
X70696645Y-47081049D01*
X70696649Y-47081049D01*
X70765039Y-47073697D01*
X70765210Y-47075292D01*
X70800790Y-47075292D01*
X70800961Y-47073697D01*
X70869350Y-47081049D01*
X70869355Y-47081049D01*
X70869362Y-47081050D01*
X70869368Y-47081050D01*
X71966632Y-47081050D01*
X71966638Y-47081050D01*
X71966645Y-47081049D01*
X71966649Y-47081049D01*
X72027196Y-47074540D01*
X72027199Y-47074539D01*
X72027201Y-47074539D01*
X72029459Y-47073697D01*
X72053001Y-47064916D01*
X72164204Y-47023439D01*
X72281261Y-46935811D01*
X72368889Y-46818754D01*
X72419989Y-46681751D01*
X72426500Y-46621188D01*
X72426500Y-44523912D01*
X72426499Y-44523900D01*
X72419990Y-44463353D01*
X72419988Y-44463345D01*
X72368889Y-44326347D01*
X72368887Y-44326342D01*
X72281260Y-44209287D01*
X72269758Y-44200677D01*
X72227212Y-44143841D01*
X72222148Y-44073025D01*
X72256174Y-44010713D01*
X72318486Y-43976689D01*
X72358737Y-43974532D01*
X72358797Y-43974538D01*
X72358799Y-43974539D01*
X72408241Y-43979854D01*
X72419352Y-43981049D01*
X72419353Y-43981049D01*
X72419362Y-43981050D01*
X72733500Y-43981050D01*
X72801621Y-44001052D01*
X72848114Y-44054708D01*
X72859500Y-44107050D01*
X72859500Y-47031761D01*
X72839498Y-47099882D01*
X72822595Y-47120856D01*
X72386856Y-47556595D01*
X72324544Y-47590621D01*
X72297761Y-47593500D01*
X71403350Y-47593500D01*
X71342803Y-47600009D01*
X71342795Y-47600011D01*
X71205797Y-47651110D01*
X71205792Y-47651112D01*
X71088738Y-47738738D01*
X71001112Y-47855792D01*
X71001110Y-47855797D01*
X70950011Y-47992795D01*
X70950009Y-47992803D01*
X70943500Y-48053350D01*
X70943500Y-48950649D01*
X70950009Y-49011196D01*
X70950011Y-49011204D01*
X71001110Y-49148202D01*
X71001112Y-49148207D01*
X71088738Y-49265261D01*
X71205792Y-49352887D01*
X71205794Y-49352888D01*
X71205796Y-49352889D01*
X71225186Y-49360121D01*
X71342795Y-49403988D01*
X71342803Y-49403990D01*
X71403350Y-49410499D01*
X71403355Y-49410499D01*
X71403362Y-49410500D01*
X71403368Y-49410500D01*
X73200632Y-49410500D01*
X73200638Y-49410500D01*
X73200645Y-49410499D01*
X73200649Y-49410499D01*
X73261196Y-49403990D01*
X73261199Y-49403989D01*
X73261201Y-49403989D01*
X73267612Y-49401598D01*
X73280045Y-49396960D01*
X73398204Y-49352889D01*
X73515261Y-49265261D01*
X73575344Y-49185000D01*
X73602887Y-49148207D01*
X73602887Y-49148206D01*
X73602889Y-49148204D01*
X73653989Y-49011201D01*
X73654752Y-49004112D01*
X73660499Y-48950649D01*
X73660500Y-48950632D01*
X73660500Y-48056238D01*
X73680502Y-47988117D01*
X73697399Y-47967148D01*
X73867159Y-47797388D01*
X73873341Y-47791966D01*
X73901987Y-47769987D01*
X73920163Y-47746298D01*
X73920170Y-47746291D01*
X73985702Y-47660889D01*
X73999524Y-47642876D01*
X74060838Y-47494851D01*
X74071857Y-47411149D01*
X74076500Y-47375885D01*
X74076500Y-47375879D01*
X74081750Y-47336000D01*
X74077040Y-47300219D01*
X74076500Y-47291988D01*
X74076500Y-44233000D01*
X75552384Y-44233000D01*
X75572783Y-44414047D01*
X75572783Y-44414049D01*
X75572784Y-44414050D01*
X75632957Y-44586015D01*
X75632958Y-44586018D01*
X75729887Y-44740279D01*
X75729888Y-44740281D01*
X75858718Y-44869111D01*
X75858720Y-44869112D01*
X76012981Y-44966041D01*
X76012982Y-44966041D01*
X76012985Y-44966043D01*
X76184953Y-45026217D01*
X76366000Y-45046616D01*
X76547047Y-45026217D01*
X76719015Y-44966043D01*
X76873281Y-44869111D01*
X77002111Y-44740281D01*
X77099043Y-44586015D01*
X77159217Y-44414047D01*
X77168719Y-44329702D01*
X77196221Y-44264251D01*
X77204822Y-44254725D01*
X77781160Y-43678387D01*
X77787341Y-43672966D01*
X77815987Y-43650987D01*
X77834163Y-43627298D01*
X77834170Y-43627291D01*
X77840477Y-43619072D01*
X77913524Y-43523876D01*
X77974838Y-43375851D01*
X77981458Y-43325565D01*
X77990500Y-43256885D01*
X77990500Y-43256879D01*
X77995750Y-43217000D01*
X77994428Y-43206959D01*
X78005364Y-43136812D01*
X78039410Y-43093117D01*
X78098568Y-43044568D01*
X78224595Y-42891004D01*
X78318241Y-42715804D01*
X78375908Y-42525701D01*
X78376415Y-42520561D01*
X78395380Y-42328003D01*
X78395380Y-42327996D01*
X78375909Y-42130305D01*
X78375908Y-42130303D01*
X78375908Y-42130299D01*
X78318241Y-41940196D01*
X78224595Y-41764996D01*
X78098568Y-41611432D01*
X77945004Y-41485405D01*
X77769804Y-41391759D01*
X77579701Y-41334092D01*
X77579700Y-41334091D01*
X77579694Y-41334090D01*
X77382003Y-41314620D01*
X77381997Y-41314620D01*
X77184305Y-41334090D01*
X76994195Y-41391759D01*
X76818995Y-41485405D01*
X76665432Y-41611432D01*
X76539405Y-41764995D01*
X76445759Y-41940195D01*
X76388090Y-42130305D01*
X76368620Y-42327996D01*
X76368620Y-42328003D01*
X76388090Y-42525694D01*
X76388091Y-42525700D01*
X76388092Y-42525701D01*
X76402034Y-42571661D01*
X76445759Y-42715804D01*
X76539405Y-42891004D01*
X76605808Y-42971916D01*
X76633562Y-43037263D01*
X76621580Y-43107242D01*
X76597504Y-43140945D01*
X76344283Y-43394166D01*
X76281971Y-43428192D01*
X76269298Y-43430278D01*
X76184957Y-43439782D01*
X76184950Y-43439783D01*
X76012984Y-43499957D01*
X76012981Y-43499958D01*
X75858720Y-43596887D01*
X75858718Y-43596888D01*
X75729888Y-43725718D01*
X75729887Y-43725720D01*
X75632958Y-43879981D01*
X75632957Y-43879984D01*
X75588803Y-44006171D01*
X75572783Y-44051953D01*
X75552384Y-44233000D01*
X74076500Y-44233000D01*
X74076500Y-44107050D01*
X74096502Y-44038929D01*
X74150158Y-43992436D01*
X74202500Y-43981050D01*
X74516632Y-43981050D01*
X74516638Y-43981050D01*
X74516645Y-43981049D01*
X74516649Y-43981049D01*
X74577196Y-43974540D01*
X74577199Y-43974539D01*
X74577201Y-43974539D01*
X74579459Y-43973697D01*
X74596045Y-43967510D01*
X74714204Y-43923439D01*
X74831261Y-43835811D01*
X74831262Y-43835810D01*
X74918887Y-43718757D01*
X74918887Y-43718756D01*
X74918889Y-43718754D01*
X74969989Y-43581751D01*
X74971301Y-43569554D01*
X74976499Y-43521199D01*
X74976500Y-43521182D01*
X74976500Y-42423917D01*
X74976499Y-42423900D01*
X74969147Y-42355511D01*
X74970742Y-42355339D01*
X74970742Y-42319760D01*
X74969147Y-42319589D01*
X74976499Y-42251199D01*
X74976500Y-42251182D01*
X74976500Y-41153917D01*
X74976499Y-41153900D01*
X74969147Y-41085511D01*
X74970742Y-41085339D01*
X74970742Y-41049760D01*
X74969147Y-41049589D01*
X74976499Y-40981199D01*
X74976500Y-40981182D01*
X74976500Y-40657956D01*
X76851252Y-40657956D01*
X76974391Y-40723776D01*
X77164393Y-40781414D01*
X77164404Y-40781416D01*
X77361997Y-40800877D01*
X77362003Y-40800877D01*
X77559595Y-40781416D01*
X77559606Y-40781414D01*
X77749608Y-40723776D01*
X77749612Y-40723775D01*
X77872747Y-40657956D01*
X77362001Y-40147210D01*
X77362000Y-40147210D01*
X76851252Y-40657956D01*
X74976500Y-40657956D01*
X74976500Y-39883917D01*
X74976499Y-39883900D01*
X74969147Y-39815511D01*
X74970742Y-39815339D01*
X74970742Y-39788003D01*
X76349123Y-39788003D01*
X76368583Y-39985595D01*
X76368585Y-39985606D01*
X76426223Y-40175608D01*
X76492042Y-40298746D01*
X77002788Y-39788001D01*
X77721210Y-39788001D01*
X78231956Y-40298747D01*
X78297775Y-40175612D01*
X78297776Y-40175608D01*
X78355414Y-39985606D01*
X78355416Y-39985595D01*
X78374877Y-39788003D01*
X78374877Y-39787996D01*
X78355416Y-39590404D01*
X78355414Y-39590393D01*
X78297776Y-39400391D01*
X78231956Y-39277252D01*
X77721210Y-39787999D01*
X77721210Y-39788001D01*
X77002788Y-39788001D01*
X77002790Y-39787999D01*
X76492042Y-39277251D01*
X76492041Y-39277252D01*
X76426225Y-39400385D01*
X76426219Y-39400400D01*
X76368585Y-39590393D01*
X76368583Y-39590404D01*
X76349123Y-39787996D01*
X76349123Y-39788003D01*
X74970742Y-39788003D01*
X74970742Y-39779760D01*
X74969147Y-39779589D01*
X74976499Y-39711199D01*
X74976500Y-39711182D01*
X74976500Y-38918042D01*
X76851251Y-38918042D01*
X77361999Y-39428790D01*
X77362000Y-39428790D01*
X77872746Y-38918042D01*
X77872747Y-38918042D01*
X77749608Y-38852223D01*
X77559606Y-38794585D01*
X77559595Y-38794583D01*
X77362003Y-38775123D01*
X77361997Y-38775123D01*
X77164404Y-38794583D01*
X77164393Y-38794585D01*
X76974400Y-38852219D01*
X76974385Y-38852225D01*
X76851252Y-38918041D01*
X76851251Y-38918042D01*
X74976500Y-38918042D01*
X74976500Y-38613917D01*
X74976499Y-38613900D01*
X74969147Y-38545511D01*
X74970742Y-38545339D01*
X74970742Y-38509760D01*
X74969147Y-38509589D01*
X74976499Y-38441199D01*
X74976500Y-38441182D01*
X74976500Y-37666836D01*
X74996502Y-37598715D01*
X75050158Y-37552222D01*
X75116598Y-37541627D01*
X75126291Y-37542719D01*
X75191743Y-37570218D01*
X75201283Y-37578832D01*
X75269605Y-37647154D01*
X75275037Y-37653348D01*
X75297012Y-37681986D01*
X75326836Y-37704871D01*
X75326847Y-37704880D01*
X75393713Y-37756188D01*
X75424119Y-37779520D01*
X75424122Y-37779521D01*
X75424125Y-37779524D01*
X75572150Y-37840838D01*
X75691115Y-37856500D01*
X75691122Y-37856500D01*
X75731000Y-37861750D01*
X75731000Y-37861749D01*
X75731001Y-37861750D01*
X75766781Y-37857040D01*
X75775012Y-37856500D01*
X76517150Y-37856500D01*
X76585271Y-37876502D01*
X76614546Y-37902563D01*
X76665432Y-37964568D01*
X76665434Y-37964570D01*
X76743835Y-38028912D01*
X76818996Y-38090595D01*
X76994196Y-38184241D01*
X77184299Y-38241908D01*
X77184303Y-38241908D01*
X77184305Y-38241909D01*
X77381997Y-38261380D01*
X77382000Y-38261380D01*
X77382003Y-38261380D01*
X77579694Y-38241909D01*
X77579695Y-38241908D01*
X77579701Y-38241908D01*
X77769804Y-38184241D01*
X77945004Y-38090595D01*
X78098568Y-37964568D01*
X78224595Y-37811004D01*
X78318241Y-37635804D01*
X78375908Y-37445701D01*
X78385934Y-37343912D01*
X78395380Y-37248003D01*
X78395380Y-37247996D01*
X78375909Y-37050305D01*
X78375908Y-37050303D01*
X78375908Y-37050299D01*
X78318241Y-36860196D01*
X78224595Y-36684996D01*
X78098568Y-36531432D01*
X77945004Y-36405405D01*
X77769804Y-36311759D01*
X77579701Y-36254092D01*
X77579700Y-36254091D01*
X77579694Y-36254090D01*
X77382003Y-36234620D01*
X77381997Y-36234620D01*
X77184305Y-36254090D01*
X76994195Y-36311759D01*
X76818995Y-36405405D01*
X76665434Y-36531429D01*
X76652860Y-36546751D01*
X76614547Y-36593435D01*
X76555872Y-36633402D01*
X76517150Y-36639500D01*
X76133803Y-36639500D01*
X76065682Y-36619498D01*
X76019189Y-36565842D01*
X76014874Y-36555115D01*
X76011945Y-36546745D01*
X75956043Y-36386985D01*
X75956041Y-36386982D01*
X75956041Y-36386981D01*
X75859112Y-36232720D01*
X75859111Y-36232718D01*
X75802538Y-36176145D01*
X75768512Y-36113833D01*
X75773577Y-36043018D01*
X75816124Y-35986182D01*
X75882644Y-35961371D01*
X75891633Y-35961050D01*
X76693438Y-35961050D01*
X76701669Y-35961590D01*
X76713999Y-35963212D01*
X76737450Y-35966300D01*
X76777330Y-35961050D01*
X76777335Y-35961050D01*
X76885704Y-35946783D01*
X76896301Y-35945388D01*
X77044326Y-35884074D01*
X77139522Y-35811027D01*
X77139522Y-35811026D01*
X77147736Y-35804724D01*
X77147743Y-35804717D01*
X77171437Y-35786537D01*
X77190089Y-35762228D01*
X77247423Y-35720362D01*
X77302399Y-35713539D01*
X77371665Y-35720362D01*
X77381999Y-35721380D01*
X77382000Y-35721380D01*
X77382003Y-35721380D01*
X77579694Y-35701909D01*
X77579695Y-35701908D01*
X77579701Y-35701908D01*
X77769804Y-35644241D01*
X77945004Y-35550595D01*
X78098568Y-35424568D01*
X78224595Y-35271004D01*
X78318241Y-35095804D01*
X78375908Y-34905701D01*
X78391830Y-34744050D01*
X78395380Y-34708003D01*
X78395380Y-34707996D01*
X78375909Y-34510305D01*
X78375908Y-34510303D01*
X78375908Y-34510299D01*
X78318241Y-34320196D01*
X78224595Y-34144996D01*
X78098568Y-33991432D01*
X77945004Y-33865405D01*
X77769804Y-33771759D01*
X77579701Y-33714092D01*
X77579700Y-33714091D01*
X77579694Y-33714090D01*
X77382003Y-33694620D01*
X77381996Y-33694620D01*
X77228915Y-33709696D01*
X77159162Y-33696467D01*
X77107634Y-33647627D01*
X77090691Y-33578681D01*
X77113713Y-33511521D01*
X77127465Y-33495214D01*
X77415901Y-33206778D01*
X77478211Y-33172754D01*
X77492642Y-33170482D01*
X77520598Y-33167729D01*
X77579694Y-33161909D01*
X77579695Y-33161908D01*
X77579701Y-33161908D01*
X77769804Y-33104241D01*
X77945004Y-33010595D01*
X78098568Y-32884568D01*
X78224595Y-32731004D01*
X78318241Y-32555804D01*
X78375908Y-32365701D01*
X78382702Y-32296726D01*
X78395380Y-32168003D01*
X78395380Y-32167996D01*
X78375909Y-31970305D01*
X78375908Y-31970303D01*
X78375908Y-31970299D01*
X78318241Y-31780196D01*
X78224595Y-31604996D01*
X78098568Y-31451432D01*
X77945004Y-31325405D01*
X77769804Y-31231759D01*
X77579701Y-31174092D01*
X77579700Y-31174091D01*
X77579694Y-31174090D01*
X77382003Y-31154620D01*
X77381997Y-31154620D01*
X77184305Y-31174090D01*
X76994195Y-31231759D01*
X76818995Y-31325405D01*
X76665432Y-31451432D01*
X76539405Y-31604995D01*
X76445759Y-31780194D01*
X76407314Y-31906931D01*
X76388092Y-31970299D01*
X76385494Y-31996668D01*
X76379517Y-32057354D01*
X76352934Y-32123186D01*
X76343220Y-32134097D01*
X76088724Y-32388595D01*
X76026412Y-32422620D01*
X75999628Y-32425500D01*
X75397670Y-32425500D01*
X75356055Y-32418429D01*
X75277050Y-32390784D01*
X75277049Y-32390783D01*
X75277047Y-32390783D01*
X75096000Y-32370384D01*
X75095998Y-32370384D01*
X75088968Y-32369592D01*
X75089271Y-32366902D01*
X75033006Y-32350382D01*
X74986513Y-32296726D01*
X74975849Y-32257852D01*
X74969147Y-32195511D01*
X74970742Y-32195339D01*
X74970742Y-32159760D01*
X74969147Y-32159589D01*
X74976499Y-32091199D01*
X74976500Y-32091182D01*
X74976500Y-31422239D01*
X74996502Y-31354118D01*
X75013405Y-31333144D01*
X75709644Y-30636905D01*
X75771956Y-30602879D01*
X75798739Y-30600000D01*
X77093389Y-30600000D01*
X77129958Y-30605424D01*
G37*
G04 #@! TD.AperFunction*
G04 #@! TA.AperFunction,Conductor*
G36*
X68065930Y-53712002D02*
G01*
X68069650Y-53715000D01*
X69128000Y-53715000D01*
X69196121Y-53735002D01*
X69242614Y-53788658D01*
X69254000Y-53841000D01*
X69254000Y-54977000D01*
X69525517Y-54977000D01*
X69525516Y-54976999D01*
X69629314Y-54966394D01*
X69630118Y-54966223D01*
X69630626Y-54966261D01*
X69636166Y-54965695D01*
X69636266Y-54966682D01*
X69700917Y-54971518D01*
X69757614Y-55014249D01*
X69776105Y-55049797D01*
X69833340Y-55222521D01*
X69926365Y-55373339D01*
X69926370Y-55373345D01*
X70051657Y-55498632D01*
X70054446Y-55500837D01*
X70055863Y-55502838D01*
X70056850Y-55503825D01*
X70056681Y-55503993D01*
X70095479Y-55558775D01*
X70098674Y-55629700D01*
X70063017Y-55691093D01*
X70054457Y-55698511D01*
X70051345Y-55700971D01*
X69925975Y-55826341D01*
X69925970Y-55826347D01*
X69832885Y-55977262D01*
X69777113Y-56145572D01*
X69777112Y-56145579D01*
X69766500Y-56249446D01*
X69766500Y-56751761D01*
X69746498Y-56819882D01*
X69692842Y-56866375D01*
X69622568Y-56876479D01*
X69557988Y-56846985D01*
X69551405Y-56840856D01*
X69145405Y-56434856D01*
X69111379Y-56372544D01*
X69108500Y-56345761D01*
X69108500Y-55576119D01*
X69098236Y-55475666D01*
X69098236Y-55475664D01*
X69044302Y-55312899D01*
X68954285Y-55166960D01*
X68954284Y-55166959D01*
X68954279Y-55166953D01*
X68833046Y-55045720D01*
X68833038Y-55045713D01*
X68805852Y-55028945D01*
X68758375Y-54976159D01*
X68746000Y-54921705D01*
X68746000Y-54223000D01*
X67802191Y-54223000D01*
X67734070Y-54202998D01*
X67730350Y-54200000D01*
X66672000Y-54200000D01*
X66603879Y-54179998D01*
X66557386Y-54126342D01*
X66546000Y-54074000D01*
X66546000Y-53818000D01*
X66566002Y-53749879D01*
X66619658Y-53703386D01*
X66672000Y-53692000D01*
X67997809Y-53692000D01*
X68065930Y-53712002D01*
G37*
G04 #@! TD.AperFunction*
G04 #@! TA.AperFunction,Conductor*
G36*
X72338698Y-55217770D02*
G01*
X72378181Y-55276775D01*
X72382885Y-55330951D01*
X72371500Y-55417429D01*
X72371500Y-55670568D01*
X72386839Y-55787085D01*
X72446894Y-55932070D01*
X72446899Y-55932078D01*
X72474237Y-55967705D01*
X72499838Y-56033925D01*
X72485574Y-56103474D01*
X72474239Y-56121111D01*
X72442305Y-56162730D01*
X72441270Y-56161936D01*
X72395965Y-56205123D01*
X72326250Y-56218550D01*
X72260343Y-56192154D01*
X72219168Y-56134316D01*
X72218639Y-56132755D01*
X72214646Y-56120705D01*
X72167115Y-55977262D01*
X72074030Y-55826348D01*
X72074029Y-55826347D01*
X72074024Y-55826341D01*
X71948657Y-55700974D01*
X71945547Y-55698515D01*
X71943967Y-55696284D01*
X71943463Y-55695780D01*
X71943549Y-55695693D01*
X71904518Y-55640575D01*
X71901326Y-55569650D01*
X71936986Y-55508259D01*
X71945558Y-55500832D01*
X71948350Y-55498624D01*
X72073629Y-55373345D01*
X72073636Y-55373336D01*
X72150722Y-55248360D01*
X72203507Y-55200881D01*
X72273582Y-55189478D01*
X72338698Y-55217770D01*
G37*
G04 #@! TD.AperFunction*
G04 #@! TA.AperFunction,Conductor*
G36*
X61816012Y-47709015D02*
G01*
X61822595Y-47715144D01*
X62524595Y-48417144D01*
X62558621Y-48479456D01*
X62561500Y-48506239D01*
X62561500Y-48950649D01*
X62568009Y-49011196D01*
X62568011Y-49011204D01*
X62619110Y-49148202D01*
X62619112Y-49148207D01*
X62706738Y-49265261D01*
X62823792Y-49352887D01*
X62823794Y-49352888D01*
X62823796Y-49352889D01*
X62843186Y-49360121D01*
X62960795Y-49403988D01*
X62960803Y-49403990D01*
X63021350Y-49410499D01*
X63021355Y-49410499D01*
X63021362Y-49410500D01*
X63021368Y-49410500D01*
X64818632Y-49410500D01*
X64818638Y-49410500D01*
X64818645Y-49410499D01*
X64818649Y-49410499D01*
X64879196Y-49403990D01*
X64879199Y-49403989D01*
X64879201Y-49403989D01*
X64885612Y-49401598D01*
X64898045Y-49396960D01*
X65016204Y-49352889D01*
X65133261Y-49265261D01*
X65193344Y-49185000D01*
X65220887Y-49148207D01*
X65220887Y-49148206D01*
X65220889Y-49148204D01*
X65271989Y-49011201D01*
X65272752Y-49004112D01*
X65278499Y-48950649D01*
X65278500Y-48950632D01*
X65278500Y-48299239D01*
X65298502Y-48231118D01*
X65352158Y-48184625D01*
X65422432Y-48174521D01*
X65487012Y-48204015D01*
X65493595Y-48210144D01*
X65671901Y-48388450D01*
X65705927Y-48450762D01*
X65700862Y-48521577D01*
X65691111Y-48539434D01*
X65691932Y-48539882D01*
X65687610Y-48547797D01*
X65636511Y-48684795D01*
X65636509Y-48684803D01*
X65630000Y-48745350D01*
X65630000Y-50642649D01*
X65636509Y-50703196D01*
X65636511Y-50703204D01*
X65687610Y-50840202D01*
X65687612Y-50840207D01*
X65775238Y-50957261D01*
X65839443Y-51005324D01*
X65881990Y-51062160D01*
X65887054Y-51132975D01*
X65853030Y-51195287D01*
X65725970Y-51322347D01*
X65632885Y-51473262D01*
X65577113Y-51641572D01*
X65577112Y-51641579D01*
X65566500Y-51745446D01*
X65566500Y-52346544D01*
X65577112Y-52450425D01*
X65632885Y-52618738D01*
X65725970Y-52769652D01*
X65725975Y-52769658D01*
X65851345Y-52895028D01*
X65854450Y-52897483D01*
X65856027Y-52899710D01*
X65856537Y-52900220D01*
X65856449Y-52900307D01*
X65895481Y-52955422D01*
X65898673Y-53026347D01*
X65863014Y-53087739D01*
X65854454Y-53095157D01*
X65851654Y-53097370D01*
X65726370Y-53222654D01*
X65726365Y-53222660D01*
X65633340Y-53373478D01*
X65622804Y-53405272D01*
X65582389Y-53463643D01*
X65516832Y-53490897D01*
X65486761Y-53490559D01*
X65480820Y-53489777D01*
X65480796Y-53489775D01*
X65442778Y-53484770D01*
X65442775Y-53484770D01*
X65406995Y-53489480D01*
X65398764Y-53490020D01*
X62443478Y-53490020D01*
X62375357Y-53470018D01*
X62328864Y-53416362D01*
X62318760Y-53346088D01*
X62323873Y-53324388D01*
X62340830Y-53273213D01*
X62340831Y-53273206D01*
X62350999Y-53173681D01*
X62351000Y-53173681D01*
X62351000Y-53123000D01*
X61277500Y-53123000D01*
X61209379Y-53102998D01*
X61162886Y-53049342D01*
X61151500Y-52997000D01*
X61151500Y-51886000D01*
X61659500Y-51886000D01*
X61659500Y-52615000D01*
X62350999Y-52615000D01*
X62350999Y-52564320D01*
X62347206Y-52527197D01*
X62360180Y-52457396D01*
X62365248Y-52452009D01*
X62353488Y-52446638D01*
X62329780Y-52411107D01*
X62544472Y-52411107D01*
X62544959Y-52411272D01*
X62589215Y-52466787D01*
X62590608Y-52470357D01*
X62619553Y-52547960D01*
X62619555Y-52547965D01*
X62707095Y-52664904D01*
X62824034Y-52752444D01*
X62960906Y-52803494D01*
X63021402Y-52809999D01*
X63021415Y-52810000D01*
X63666000Y-52810000D01*
X63666000Y-52156000D01*
X64174000Y-52156000D01*
X64174000Y-52810000D01*
X64818585Y-52810000D01*
X64818597Y-52809999D01*
X64879093Y-52803494D01*
X65015964Y-52752444D01*
X65015965Y-52752444D01*
X65132904Y-52664904D01*
X65220444Y-52547965D01*
X65220444Y-52547964D01*
X65271494Y-52411093D01*
X65277999Y-52350597D01*
X65278000Y-52350585D01*
X65278000Y-52156000D01*
X64174000Y-52156000D01*
X63666000Y-52156000D01*
X62562000Y-52156000D01*
X62562000Y-52351414D01*
X62544472Y-52411107D01*
X62329780Y-52411107D01*
X62316395Y-52391046D01*
X62287392Y-52303521D01*
X62198204Y-52158925D01*
X62198199Y-52158919D01*
X62078080Y-52038800D01*
X62078074Y-52038795D01*
X61933479Y-51949607D01*
X61772210Y-51896169D01*
X61772206Y-51896168D01*
X61672681Y-51886000D01*
X61659500Y-51886000D01*
X61151500Y-51886000D01*
X61151500Y-51833806D01*
X61153312Y-51833806D01*
X61156660Y-51786990D01*
X61185619Y-51741928D01*
X61279547Y-51648000D01*
X62562000Y-51648000D01*
X63666000Y-51648000D01*
X63666000Y-50994000D01*
X64174000Y-50994000D01*
X64174000Y-51648000D01*
X65278000Y-51648000D01*
X65278000Y-51453414D01*
X65277999Y-51453402D01*
X65271494Y-51392906D01*
X65220444Y-51256035D01*
X65220444Y-51256034D01*
X65132904Y-51139095D01*
X65015965Y-51051555D01*
X64879093Y-51000505D01*
X64818597Y-50994000D01*
X64174000Y-50994000D01*
X63666000Y-50994000D01*
X63021402Y-50994000D01*
X62960906Y-51000505D01*
X62824035Y-51051555D01*
X62824034Y-51051555D01*
X62707095Y-51139095D01*
X62619555Y-51256034D01*
X62619555Y-51256035D01*
X62568505Y-51392906D01*
X62562000Y-51453402D01*
X62562000Y-51648000D01*
X61279547Y-51648000D01*
X61480145Y-51447403D01*
X61542457Y-51413378D01*
X61569240Y-51410499D01*
X61825544Y-51410499D01*
X61929426Y-51399887D01*
X62097738Y-51344115D01*
X62248652Y-51251030D01*
X62374030Y-51125652D01*
X62467115Y-50974738D01*
X62522887Y-50806426D01*
X62533500Y-50702545D01*
X62533499Y-49701456D01*
X62522887Y-49597574D01*
X62467115Y-49429262D01*
X62374030Y-49278348D01*
X62374029Y-49278347D01*
X62374024Y-49278341D01*
X62248658Y-49152975D01*
X62248652Y-49152970D01*
X62235907Y-49145109D01*
X62097738Y-49059885D01*
X61950817Y-49011201D01*
X61929427Y-49004113D01*
X61929420Y-49004112D01*
X61825553Y-48993500D01*
X61825545Y-48993500D01*
X61736809Y-48993500D01*
X61668688Y-48973498D01*
X61622195Y-48919842D01*
X61611887Y-48883945D01*
X61611121Y-48878125D01*
X61608038Y-48854710D01*
X61607500Y-48846487D01*
X61607500Y-47804239D01*
X61627502Y-47736118D01*
X61681158Y-47689625D01*
X61751432Y-47679521D01*
X61816012Y-47709015D01*
G37*
G04 #@! TD.AperFunction*
G04 #@! TA.AperFunction,Conductor*
G36*
X71980498Y-30620002D02*
G01*
X72026991Y-30673658D01*
X72037095Y-30743932D01*
X72019175Y-30787199D01*
X72021432Y-30788432D01*
X72017110Y-30796347D01*
X71966011Y-30933345D01*
X71966009Y-30933353D01*
X71959500Y-30993900D01*
X71959500Y-31093050D01*
X71939498Y-31161171D01*
X71885842Y-31207664D01*
X71833500Y-31219050D01*
X70869350Y-31219050D01*
X70808803Y-31225559D01*
X70808795Y-31225561D01*
X70671797Y-31276660D01*
X70671792Y-31276662D01*
X70554738Y-31364288D01*
X70467112Y-31481342D01*
X70467110Y-31481347D01*
X70416011Y-31618345D01*
X70416009Y-31618353D01*
X70409500Y-31678900D01*
X70409500Y-32676199D01*
X70416009Y-32736745D01*
X70416010Y-32736748D01*
X70427860Y-32768520D01*
X70432923Y-32839336D01*
X70427860Y-32856580D01*
X70416010Y-32888351D01*
X70416009Y-32888354D01*
X70409500Y-32948900D01*
X70409500Y-33946199D01*
X70416009Y-34006745D01*
X70416010Y-34006748D01*
X70427860Y-34038520D01*
X70432923Y-34109336D01*
X70427860Y-34126580D01*
X70416010Y-34158351D01*
X70416009Y-34158354D01*
X70409500Y-34218900D01*
X70409500Y-35216199D01*
X70416009Y-35276745D01*
X70416010Y-35276748D01*
X70427860Y-35308520D01*
X70432923Y-35379336D01*
X70427860Y-35396580D01*
X70416010Y-35428351D01*
X70416009Y-35428354D01*
X70409500Y-35488900D01*
X70409500Y-36486199D01*
X70416009Y-36546745D01*
X70416010Y-36546748D01*
X70427860Y-36578520D01*
X70432923Y-36649336D01*
X70427860Y-36666580D01*
X70416010Y-36698351D01*
X70416009Y-36698354D01*
X70409500Y-36758900D01*
X70409500Y-37756188D01*
X70416009Y-37816745D01*
X70416010Y-37816748D01*
X70427860Y-37848520D01*
X70432923Y-37919336D01*
X70427860Y-37936580D01*
X70416010Y-37968351D01*
X70416009Y-37968354D01*
X70409500Y-38028900D01*
X70409500Y-39026199D01*
X70416009Y-39086745D01*
X70416010Y-39086748D01*
X70427860Y-39118520D01*
X70432923Y-39189336D01*
X70427860Y-39206580D01*
X70416010Y-39238351D01*
X70416009Y-39238354D01*
X70409500Y-39298900D01*
X70409500Y-40296199D01*
X70416009Y-40356745D01*
X70416010Y-40356748D01*
X70427860Y-40388520D01*
X70432923Y-40459336D01*
X70427860Y-40476580D01*
X70416010Y-40508351D01*
X70416009Y-40508354D01*
X70409500Y-40568900D01*
X70409500Y-41566199D01*
X70416009Y-41626746D01*
X70416011Y-41626754D01*
X70467110Y-41763752D01*
X70467112Y-41763757D01*
X70554738Y-41880811D01*
X70671792Y-41968437D01*
X70671794Y-41968438D01*
X70671796Y-41968439D01*
X70730875Y-41990474D01*
X70808795Y-42019538D01*
X70808803Y-42019540D01*
X70869350Y-42026049D01*
X70869355Y-42026049D01*
X70869362Y-42026050D01*
X70869368Y-42026050D01*
X71833500Y-42026050D01*
X71901621Y-42046052D01*
X71948114Y-42099708D01*
X71959500Y-42152050D01*
X71959500Y-42251199D01*
X71966853Y-42319588D01*
X71965265Y-42319758D01*
X71965265Y-42355341D01*
X71966853Y-42355512D01*
X71959500Y-42423900D01*
X71959500Y-42830321D01*
X71939498Y-42898442D01*
X71885842Y-42944935D01*
X71815568Y-42955039D01*
X71750988Y-42925545D01*
X71715445Y-42874354D01*
X71678889Y-42776347D01*
X71678887Y-42776342D01*
X71591261Y-42659288D01*
X71474207Y-42571662D01*
X71474202Y-42571660D01*
X71337204Y-42520561D01*
X71337196Y-42520559D01*
X71276649Y-42514050D01*
X71276638Y-42514050D01*
X70279362Y-42514050D01*
X70279350Y-42514050D01*
X70218804Y-42520559D01*
X70218801Y-42520560D01*
X70187030Y-42532410D01*
X70116214Y-42537473D01*
X70098970Y-42532410D01*
X70067198Y-42520560D01*
X70067195Y-42520559D01*
X70006649Y-42514050D01*
X70006638Y-42514050D01*
X69009362Y-42514050D01*
X69009350Y-42514050D01*
X68948804Y-42520559D01*
X68948801Y-42520560D01*
X68917030Y-42532410D01*
X68846214Y-42537473D01*
X68828970Y-42532410D01*
X68797198Y-42520560D01*
X68797195Y-42520559D01*
X68736649Y-42514050D01*
X68736638Y-42514050D01*
X67739362Y-42514050D01*
X67739350Y-42514050D01*
X67678804Y-42520559D01*
X67678801Y-42520560D01*
X67647030Y-42532410D01*
X67576214Y-42537473D01*
X67558970Y-42532410D01*
X67527198Y-42520560D01*
X67527195Y-42520559D01*
X67466649Y-42514050D01*
X67466638Y-42514050D01*
X66469362Y-42514050D01*
X66469350Y-42514050D01*
X66408804Y-42520559D01*
X66408801Y-42520560D01*
X66377030Y-42532410D01*
X66306214Y-42537473D01*
X66288970Y-42532410D01*
X66257198Y-42520560D01*
X66257195Y-42520559D01*
X66196649Y-42514050D01*
X66196638Y-42514050D01*
X65199362Y-42514050D01*
X65199350Y-42514050D01*
X65138804Y-42520559D01*
X65138801Y-42520560D01*
X65107030Y-42532410D01*
X65036214Y-42537473D01*
X65018970Y-42532410D01*
X64987198Y-42520560D01*
X64987195Y-42520559D01*
X64926649Y-42514050D01*
X64926638Y-42514050D01*
X63929362Y-42514050D01*
X63929350Y-42514050D01*
X63868804Y-42520559D01*
X63868801Y-42520560D01*
X63837030Y-42532410D01*
X63766214Y-42537473D01*
X63748970Y-42532410D01*
X63717198Y-42520560D01*
X63717195Y-42520559D01*
X63656649Y-42514050D01*
X63656638Y-42514050D01*
X62659362Y-42514050D01*
X62659350Y-42514050D01*
X62598803Y-42520559D01*
X62598795Y-42520561D01*
X62461797Y-42571660D01*
X62461792Y-42571662D01*
X62344738Y-42659288D01*
X62257112Y-42776342D01*
X62257110Y-42776347D01*
X62220555Y-42874354D01*
X62178008Y-42931190D01*
X62111488Y-42956000D01*
X62042114Y-42940908D01*
X61991912Y-42890706D01*
X61976500Y-42830321D01*
X61976500Y-42423917D01*
X61976499Y-42423900D01*
X61969147Y-42355511D01*
X61970742Y-42355339D01*
X61970742Y-42319760D01*
X61969147Y-42319589D01*
X61976499Y-42251199D01*
X61976500Y-42251182D01*
X61976500Y-41153917D01*
X61976499Y-41153900D01*
X61969147Y-41085511D01*
X61970742Y-41085339D01*
X61970742Y-41049760D01*
X61969147Y-41049589D01*
X61976499Y-40981199D01*
X61976500Y-40981182D01*
X61976500Y-39883917D01*
X61976499Y-39883900D01*
X61969147Y-39815511D01*
X61970742Y-39815339D01*
X61970742Y-39779760D01*
X61969147Y-39779589D01*
X61976499Y-39711199D01*
X61976500Y-39711182D01*
X61976500Y-38613917D01*
X61976499Y-38613900D01*
X61969147Y-38545511D01*
X61970742Y-38545339D01*
X61970742Y-38509760D01*
X61969147Y-38509589D01*
X61976499Y-38441199D01*
X61976500Y-38441182D01*
X61976500Y-37343917D01*
X61976499Y-37343900D01*
X61971073Y-37293428D01*
X61983679Y-37223560D01*
X62032058Y-37171598D01*
X62100849Y-37154040D01*
X62110438Y-37154750D01*
X62269000Y-37172616D01*
X62450047Y-37152217D01*
X62622015Y-37092043D01*
X62776281Y-36995111D01*
X62905111Y-36866281D01*
X63002043Y-36712015D01*
X63062217Y-36540047D01*
X63082616Y-36359000D01*
X63062217Y-36177953D01*
X63002043Y-36005985D01*
X63002041Y-36005982D01*
X63002041Y-36005981D01*
X62905112Y-35851720D01*
X62905111Y-35851718D01*
X62776281Y-35722888D01*
X62776279Y-35722887D01*
X62622018Y-35625958D01*
X62622015Y-35625957D01*
X62450050Y-35565784D01*
X62450049Y-35565783D01*
X62450047Y-35565783D01*
X62387122Y-35558692D01*
X62365701Y-35556279D01*
X62300248Y-35528774D01*
X62290715Y-35520166D01*
X62231144Y-35460595D01*
X62197118Y-35398283D01*
X62202183Y-35327468D01*
X62244730Y-35270632D01*
X62311250Y-35245821D01*
X62334785Y-35247639D01*
X62334922Y-35246424D01*
X62341949Y-35247215D01*
X62341953Y-35247217D01*
X62523000Y-35267616D01*
X62704047Y-35247217D01*
X62876015Y-35187043D01*
X63030281Y-35090111D01*
X63159111Y-34961281D01*
X63256043Y-34807015D01*
X63316217Y-34635047D01*
X63336616Y-34454000D01*
X63316217Y-34272953D01*
X63256043Y-34100985D01*
X63256041Y-34100982D01*
X63256041Y-34100981D01*
X63159112Y-33946720D01*
X63159111Y-33946718D01*
X63030281Y-33817888D01*
X63030279Y-33817887D01*
X62876018Y-33720958D01*
X62876015Y-33720957D01*
X62800748Y-33694620D01*
X62704047Y-33660783D01*
X62618612Y-33651156D01*
X62556002Y-33625900D01*
X62553618Y-33624070D01*
X62458432Y-33551030D01*
X62458424Y-33551025D01*
X62310401Y-33489712D01*
X62291006Y-33487158D01*
X62255752Y-33482517D01*
X62189591Y-33473807D01*
X62189570Y-33473805D01*
X62151552Y-33468800D01*
X62151549Y-33468800D01*
X62115769Y-33473510D01*
X62107538Y-33474050D01*
X62102500Y-33474050D01*
X62034379Y-33454048D01*
X61987886Y-33400392D01*
X61976500Y-33348050D01*
X61976500Y-32263917D01*
X61976499Y-32263900D01*
X61969147Y-32195511D01*
X61970742Y-32195339D01*
X61970742Y-32159760D01*
X61969147Y-32159589D01*
X61976499Y-32091199D01*
X61976500Y-32091182D01*
X61976500Y-30993917D01*
X61976499Y-30993900D01*
X61969990Y-30933353D01*
X61969988Y-30933345D01*
X61918889Y-30796347D01*
X61918889Y-30796346D01*
X61918886Y-30796343D01*
X61914568Y-30788432D01*
X61917315Y-30786932D01*
X61897943Y-30734975D01*
X61913042Y-30665602D01*
X61963250Y-30615406D01*
X62023623Y-30600000D01*
X71912377Y-30600000D01*
X71980498Y-30620002D01*
G37*
G04 #@! TD.AperFunction*
M02*
