G04 #@! TF.GenerationSoftware,KiCad,Pcbnew,7.0.9*
G04 #@! TF.CreationDate,2023-12-15T13:17:30+01:00*
G04 #@! TF.ProjectId,parasite,70617261-7369-4746-952e-6b696361645f,2.0.0*
G04 #@! TF.SameCoordinates,Original*
G04 #@! TF.FileFunction,Soldermask,Top*
G04 #@! TF.FilePolarity,Negative*
%FSLAX46Y46*%
G04 Gerber Fmt 4.6, Leading zero omitted, Abs format (unit mm)*
G04 Created by KiCad (PCBNEW 7.0.9) date 2023-12-15 13:17:30*
%MOMM*%
%LPD*%
G01*
G04 APERTURE LIST*
G04 APERTURE END LIST*
G36*
X70843914Y-59806995D02*
G01*
X70859726Y-59813976D01*
X70867531Y-59815213D01*
X70900039Y-59831776D01*
X70945106Y-59851676D01*
X71023324Y-59929894D01*
X71043226Y-59974967D01*
X71059786Y-60007468D01*
X71061021Y-60015270D01*
X71068005Y-60031086D01*
X71076000Y-60100000D01*
X71076000Y-60600000D01*
X71068005Y-60668914D01*
X71061021Y-60684729D01*
X71059786Y-60692531D01*
X71043229Y-60725024D01*
X71023324Y-60770106D01*
X70945106Y-60848324D01*
X70900024Y-60868229D01*
X70867531Y-60884786D01*
X70859729Y-60886021D01*
X70843914Y-60893005D01*
X70775000Y-60901000D01*
X69825000Y-60901000D01*
X69756086Y-60893005D01*
X69740270Y-60886021D01*
X69732468Y-60884786D01*
X69699967Y-60868226D01*
X69654894Y-60848324D01*
X69576676Y-60770106D01*
X69556776Y-60725039D01*
X69540213Y-60692531D01*
X69538976Y-60684726D01*
X69531995Y-60668914D01*
X69524000Y-60600000D01*
X69524000Y-60100000D01*
X69531995Y-60031086D01*
X69538976Y-60015274D01*
X69540213Y-60007468D01*
X69556780Y-59974953D01*
X69576676Y-59929894D01*
X69654894Y-59851676D01*
X69699953Y-59831780D01*
X69732468Y-59815213D01*
X69740274Y-59813976D01*
X69756086Y-59806995D01*
X69825000Y-59799000D01*
X70775000Y-59799000D01*
X70843914Y-59806995D01*
G37*
G36*
X72818914Y-59756995D02*
G01*
X72834726Y-59763976D01*
X72842531Y-59765213D01*
X72875039Y-59781776D01*
X72920106Y-59801676D01*
X72998324Y-59879894D01*
X73018226Y-59924967D01*
X73034786Y-59957468D01*
X73036021Y-59965270D01*
X73043005Y-59981086D01*
X73051000Y-60050000D01*
X73051000Y-60575000D01*
X73043005Y-60643914D01*
X73036021Y-60659729D01*
X73034786Y-60667531D01*
X73018229Y-60700024D01*
X72998324Y-60745106D01*
X72920106Y-60823324D01*
X72875024Y-60843229D01*
X72842531Y-60859786D01*
X72834729Y-60861021D01*
X72818914Y-60868005D01*
X72750000Y-60876000D01*
X71850000Y-60876000D01*
X71781086Y-60868005D01*
X71765270Y-60861021D01*
X71757468Y-60859786D01*
X71724967Y-60843226D01*
X71679894Y-60823324D01*
X71601676Y-60745106D01*
X71581776Y-60700039D01*
X71565213Y-60667531D01*
X71563976Y-60659726D01*
X71556995Y-60643914D01*
X71549000Y-60575000D01*
X71549000Y-60050000D01*
X71556995Y-59981086D01*
X71563976Y-59965274D01*
X71565213Y-59957468D01*
X71581780Y-59924953D01*
X71601676Y-59879894D01*
X71679894Y-59801676D01*
X71724953Y-59781780D01*
X71757468Y-59765213D01*
X71765274Y-59763976D01*
X71781086Y-59756995D01*
X71850000Y-59749000D01*
X72750000Y-59749000D01*
X72818914Y-59756995D01*
G37*
G36*
X66405517Y-59602882D02*
G01*
X66422062Y-59613938D01*
X66433118Y-59630483D01*
X66437000Y-59650000D01*
X66437000Y-60450000D01*
X66433118Y-60469517D01*
X66422062Y-60486062D01*
X66405517Y-60497118D01*
X66386000Y-60501000D01*
X65486000Y-60501000D01*
X65466483Y-60497118D01*
X65449938Y-60486062D01*
X65438882Y-60469517D01*
X65435000Y-60450000D01*
X65435000Y-59650000D01*
X65438882Y-59630483D01*
X65449938Y-59613938D01*
X65466483Y-59602882D01*
X65486000Y-59599000D01*
X66386000Y-59599000D01*
X66405517Y-59602882D01*
G37*
G36*
X61417439Y-58926929D02*
G01*
X61446305Y-58926929D01*
X61479403Y-58935086D01*
X61522609Y-58940775D01*
X61552182Y-58953024D01*
X61575063Y-58958664D01*
X61609752Y-58976870D01*
X61655500Y-58995820D01*
X61676374Y-59011837D01*
X61692483Y-59020292D01*
X61725420Y-59049471D01*
X61769616Y-59083384D01*
X61782174Y-59099751D01*
X61791740Y-59108225D01*
X61819166Y-59147960D01*
X61857180Y-59197500D01*
X61862910Y-59211334D01*
X61867073Y-59217365D01*
X61885132Y-59264984D01*
X61912225Y-59330391D01*
X61913440Y-59339625D01*
X61914097Y-59341356D01*
X61919179Y-59383212D01*
X61931000Y-59473000D01*
X61919178Y-59562795D01*
X61914097Y-59604643D01*
X61913440Y-59606372D01*
X61912225Y-59615609D01*
X61885128Y-59681026D01*
X61867073Y-59728634D01*
X61862911Y-59734663D01*
X61857180Y-59748500D01*
X61819160Y-59798048D01*
X61791740Y-59837774D01*
X61782177Y-59846245D01*
X61769616Y-59862616D01*
X61725411Y-59896534D01*
X61692483Y-59925707D01*
X61676378Y-59934159D01*
X61655500Y-59950180D01*
X61609743Y-59969132D01*
X61575063Y-59987335D01*
X61552187Y-59992973D01*
X61522609Y-60005225D01*
X61479401Y-60010913D01*
X61446305Y-60019071D01*
X61417439Y-60019071D01*
X61380000Y-60024000D01*
X61342561Y-60019071D01*
X61313695Y-60019071D01*
X61280597Y-60010913D01*
X61237391Y-60005225D01*
X61207814Y-59992973D01*
X61184936Y-59987335D01*
X61150251Y-59969130D01*
X61104500Y-59950180D01*
X61083623Y-59934161D01*
X61067516Y-59925707D01*
X61034580Y-59896529D01*
X60990384Y-59862616D01*
X60977824Y-59846248D01*
X60968259Y-59837774D01*
X60940830Y-59798035D01*
X60902820Y-59748500D01*
X60897090Y-59734666D01*
X60892926Y-59728634D01*
X60874859Y-59680998D01*
X60847775Y-59615609D01*
X60846559Y-59606376D01*
X60845902Y-59604643D01*
X60840809Y-59562697D01*
X60829000Y-59473000D01*
X60840807Y-59383310D01*
X60845902Y-59341356D01*
X60846559Y-59339621D01*
X60847775Y-59330391D01*
X60874855Y-59265012D01*
X60892926Y-59217365D01*
X60897091Y-59211330D01*
X60902820Y-59197500D01*
X60940823Y-59147973D01*
X60968259Y-59108225D01*
X60977827Y-59099748D01*
X60990384Y-59083384D01*
X61034572Y-59049477D01*
X61067516Y-59020292D01*
X61083627Y-59011835D01*
X61104500Y-58995820D01*
X61150242Y-58976872D01*
X61184936Y-58958664D01*
X61207818Y-58953024D01*
X61237391Y-58940775D01*
X61280595Y-58935086D01*
X61313695Y-58926929D01*
X61342561Y-58926929D01*
X61380000Y-58922000D01*
X61417439Y-58926929D01*
G37*
G36*
X64405517Y-58652882D02*
G01*
X64422062Y-58663938D01*
X64433118Y-58680483D01*
X64437000Y-58700000D01*
X64437000Y-59500000D01*
X64433118Y-59519517D01*
X64422062Y-59536062D01*
X64405517Y-59547118D01*
X64386000Y-59551000D01*
X63486000Y-59551000D01*
X63466483Y-59547118D01*
X63449938Y-59536062D01*
X63438882Y-59519517D01*
X63435000Y-59500000D01*
X63435000Y-58700000D01*
X63438882Y-58680483D01*
X63449938Y-58663938D01*
X63466483Y-58652882D01*
X63486000Y-58649000D01*
X64386000Y-58649000D01*
X64405517Y-58652882D01*
G37*
G36*
X68021439Y-58291929D02*
G01*
X68050305Y-58291929D01*
X68083403Y-58300086D01*
X68126609Y-58305775D01*
X68156182Y-58318024D01*
X68179063Y-58323664D01*
X68213752Y-58341870D01*
X68259500Y-58360820D01*
X68280374Y-58376837D01*
X68296483Y-58385292D01*
X68329420Y-58414471D01*
X68373616Y-58448384D01*
X68386174Y-58464751D01*
X68395740Y-58473225D01*
X68423166Y-58512960D01*
X68461180Y-58562500D01*
X68466910Y-58576334D01*
X68471073Y-58582365D01*
X68489132Y-58629984D01*
X68516225Y-58695391D01*
X68517440Y-58704625D01*
X68518097Y-58706356D01*
X68523179Y-58748212D01*
X68535000Y-58838000D01*
X68523178Y-58927795D01*
X68518097Y-58969643D01*
X68517440Y-58971372D01*
X68516225Y-58980609D01*
X68489128Y-59046026D01*
X68471073Y-59093634D01*
X68466911Y-59099663D01*
X68461180Y-59113500D01*
X68423160Y-59163048D01*
X68395740Y-59202774D01*
X68386177Y-59211245D01*
X68373616Y-59227616D01*
X68329411Y-59261534D01*
X68296483Y-59290707D01*
X68280378Y-59299159D01*
X68259500Y-59315180D01*
X68213743Y-59334132D01*
X68179063Y-59352335D01*
X68156187Y-59357973D01*
X68126609Y-59370225D01*
X68083401Y-59375913D01*
X68050305Y-59384071D01*
X68021439Y-59384071D01*
X67984000Y-59389000D01*
X67946561Y-59384071D01*
X67917695Y-59384071D01*
X67884597Y-59375913D01*
X67841391Y-59370225D01*
X67811814Y-59357973D01*
X67788936Y-59352335D01*
X67754251Y-59334130D01*
X67708500Y-59315180D01*
X67687623Y-59299161D01*
X67671516Y-59290707D01*
X67638580Y-59261529D01*
X67594384Y-59227616D01*
X67581824Y-59211248D01*
X67572259Y-59202774D01*
X67544830Y-59163035D01*
X67506820Y-59113500D01*
X67501090Y-59099666D01*
X67496926Y-59093634D01*
X67478859Y-59045998D01*
X67451775Y-58980609D01*
X67450559Y-58971376D01*
X67449902Y-58969643D01*
X67444809Y-58927697D01*
X67433000Y-58838000D01*
X67444807Y-58748310D01*
X67449902Y-58706356D01*
X67450559Y-58704621D01*
X67451775Y-58695391D01*
X67478855Y-58630012D01*
X67496926Y-58582365D01*
X67501091Y-58576330D01*
X67506820Y-58562500D01*
X67544823Y-58512973D01*
X67572259Y-58473225D01*
X67581827Y-58464748D01*
X67594384Y-58448384D01*
X67638572Y-58414477D01*
X67671516Y-58385292D01*
X67687627Y-58376835D01*
X67708500Y-58360820D01*
X67754242Y-58341872D01*
X67788936Y-58323664D01*
X67811818Y-58318024D01*
X67841391Y-58305775D01*
X67884595Y-58300086D01*
X67917695Y-58291929D01*
X67946561Y-58291929D01*
X67984000Y-58287000D01*
X68021439Y-58291929D01*
G37*
G36*
X72818914Y-57931995D02*
G01*
X72834726Y-57938976D01*
X72842531Y-57940213D01*
X72875039Y-57956776D01*
X72920106Y-57976676D01*
X72998324Y-58054894D01*
X73018226Y-58099967D01*
X73034786Y-58132468D01*
X73036021Y-58140270D01*
X73043005Y-58156086D01*
X73051000Y-58225000D01*
X73051000Y-58750000D01*
X73043005Y-58818914D01*
X73036021Y-58834729D01*
X73034786Y-58842531D01*
X73018229Y-58875024D01*
X72998324Y-58920106D01*
X72920106Y-58998324D01*
X72875024Y-59018229D01*
X72842531Y-59034786D01*
X72834729Y-59036021D01*
X72818914Y-59043005D01*
X72750000Y-59051000D01*
X71850000Y-59051000D01*
X71781086Y-59043005D01*
X71765270Y-59036021D01*
X71757468Y-59034786D01*
X71724967Y-59018226D01*
X71679894Y-58998324D01*
X71601676Y-58920106D01*
X71581776Y-58875039D01*
X71565213Y-58842531D01*
X71563976Y-58834726D01*
X71556995Y-58818914D01*
X71549000Y-58750000D01*
X71549000Y-58225000D01*
X71556995Y-58156086D01*
X71563976Y-58140274D01*
X71565213Y-58132468D01*
X71581780Y-58099953D01*
X71601676Y-58054894D01*
X71679894Y-57976676D01*
X71724953Y-57956780D01*
X71757468Y-57940213D01*
X71765274Y-57938976D01*
X71781086Y-57931995D01*
X71850000Y-57924000D01*
X72750000Y-57924000D01*
X72818914Y-57931995D01*
G37*
G36*
X70843914Y-57906995D02*
G01*
X70859726Y-57913976D01*
X70867531Y-57915213D01*
X70900039Y-57931776D01*
X70945106Y-57951676D01*
X71023324Y-58029894D01*
X71043226Y-58074967D01*
X71059786Y-58107468D01*
X71061021Y-58115270D01*
X71068005Y-58131086D01*
X71076000Y-58200000D01*
X71076000Y-58700000D01*
X71068005Y-58768914D01*
X71061021Y-58784729D01*
X71059786Y-58792531D01*
X71043229Y-58825024D01*
X71023324Y-58870106D01*
X70945106Y-58948324D01*
X70900024Y-58968229D01*
X70867531Y-58984786D01*
X70859729Y-58986021D01*
X70843914Y-58993005D01*
X70775000Y-59001000D01*
X69825000Y-59001000D01*
X69756086Y-58993005D01*
X69740270Y-58986021D01*
X69732468Y-58984786D01*
X69699967Y-58968226D01*
X69654894Y-58948324D01*
X69576676Y-58870106D01*
X69556776Y-58825039D01*
X69540213Y-58792531D01*
X69538976Y-58784726D01*
X69531995Y-58768914D01*
X69524000Y-58700000D01*
X69524000Y-58200000D01*
X69531995Y-58131086D01*
X69538976Y-58115274D01*
X69540213Y-58107468D01*
X69556780Y-58074953D01*
X69576676Y-58029894D01*
X69654894Y-57951676D01*
X69699953Y-57931780D01*
X69732468Y-57915213D01*
X69740274Y-57913976D01*
X69756086Y-57906995D01*
X69825000Y-57899000D01*
X70775000Y-57899000D01*
X70843914Y-57906995D01*
G37*
G36*
X66405517Y-57702882D02*
G01*
X66422062Y-57713938D01*
X66433118Y-57730483D01*
X66437000Y-57750000D01*
X66437000Y-58550000D01*
X66433118Y-58569517D01*
X66422062Y-58586062D01*
X66405517Y-58597118D01*
X66386000Y-58601000D01*
X65486000Y-58601000D01*
X65466483Y-58597118D01*
X65449938Y-58586062D01*
X65438882Y-58569517D01*
X65435000Y-58550000D01*
X65435000Y-57750000D01*
X65438882Y-57730483D01*
X65449938Y-57713938D01*
X65466483Y-57702882D01*
X65486000Y-57699000D01*
X66386000Y-57699000D01*
X66405517Y-57702882D01*
G37*
G36*
X60818914Y-56656995D02*
G01*
X60834726Y-56663976D01*
X60842531Y-56665213D01*
X60875039Y-56681776D01*
X60920106Y-56701676D01*
X60998324Y-56779894D01*
X61018226Y-56824967D01*
X61034786Y-56857468D01*
X61036021Y-56865270D01*
X61043005Y-56881086D01*
X61051000Y-56950000D01*
X61051000Y-57850000D01*
X61043005Y-57918914D01*
X61036021Y-57934729D01*
X61034786Y-57942531D01*
X61018229Y-57975024D01*
X60998324Y-58020106D01*
X60920106Y-58098324D01*
X60875024Y-58118229D01*
X60842531Y-58134786D01*
X60834729Y-58136021D01*
X60818914Y-58143005D01*
X60750000Y-58151000D01*
X60225000Y-58151000D01*
X60156086Y-58143005D01*
X60140270Y-58136021D01*
X60132468Y-58134786D01*
X60099967Y-58118226D01*
X60054894Y-58098324D01*
X59976676Y-58020106D01*
X59956776Y-57975039D01*
X59940213Y-57942531D01*
X59938976Y-57934726D01*
X59931995Y-57918914D01*
X59924000Y-57850000D01*
X59924000Y-56950000D01*
X59931995Y-56881086D01*
X59938976Y-56865274D01*
X59940213Y-56857468D01*
X59956780Y-56824953D01*
X59976676Y-56779894D01*
X60054894Y-56701676D01*
X60099953Y-56681780D01*
X60132468Y-56665213D01*
X60140274Y-56663976D01*
X60156086Y-56656995D01*
X60225000Y-56649000D01*
X60750000Y-56649000D01*
X60818914Y-56656995D01*
G37*
G36*
X62643914Y-56656995D02*
G01*
X62659726Y-56663976D01*
X62667531Y-56665213D01*
X62700039Y-56681776D01*
X62745106Y-56701676D01*
X62823324Y-56779894D01*
X62843226Y-56824967D01*
X62859786Y-56857468D01*
X62861021Y-56865270D01*
X62868005Y-56881086D01*
X62876000Y-56950000D01*
X62876000Y-57850000D01*
X62868005Y-57918914D01*
X62861021Y-57934729D01*
X62859786Y-57942531D01*
X62843229Y-57975024D01*
X62823324Y-58020106D01*
X62745106Y-58098324D01*
X62700024Y-58118229D01*
X62667531Y-58134786D01*
X62659729Y-58136021D01*
X62643914Y-58143005D01*
X62575000Y-58151000D01*
X62050000Y-58151000D01*
X61981086Y-58143005D01*
X61965270Y-58136021D01*
X61957468Y-58134786D01*
X61924967Y-58118226D01*
X61879894Y-58098324D01*
X61801676Y-58020106D01*
X61781776Y-57975039D01*
X61765213Y-57942531D01*
X61763976Y-57934726D01*
X61756995Y-57918914D01*
X61749000Y-57850000D01*
X61749000Y-56950000D01*
X61756995Y-56881086D01*
X61763976Y-56865274D01*
X61765213Y-56857468D01*
X61781780Y-56824953D01*
X61801676Y-56779894D01*
X61879894Y-56701676D01*
X61924953Y-56681780D01*
X61957468Y-56665213D01*
X61965274Y-56663976D01*
X61981086Y-56656995D01*
X62050000Y-56649000D01*
X62575000Y-56649000D01*
X62643914Y-56656995D01*
G37*
G36*
X71543914Y-56006995D02*
G01*
X71559726Y-56013976D01*
X71567531Y-56015213D01*
X71600039Y-56031776D01*
X71645106Y-56051676D01*
X71723324Y-56129894D01*
X71743226Y-56174967D01*
X71759786Y-56207468D01*
X71761021Y-56215270D01*
X71768005Y-56231086D01*
X71776000Y-56300000D01*
X71776000Y-56800000D01*
X71768005Y-56868914D01*
X71761021Y-56884729D01*
X71759786Y-56892531D01*
X71743229Y-56925024D01*
X71723324Y-56970106D01*
X71645106Y-57048324D01*
X71600024Y-57068229D01*
X71567531Y-57084786D01*
X71559729Y-57086021D01*
X71543914Y-57093005D01*
X71475000Y-57101000D01*
X70525000Y-57101000D01*
X70456086Y-57093005D01*
X70440270Y-57086021D01*
X70432468Y-57084786D01*
X70399967Y-57068226D01*
X70354894Y-57048324D01*
X70276676Y-56970106D01*
X70256776Y-56925039D01*
X70240213Y-56892531D01*
X70238976Y-56884726D01*
X70231995Y-56868914D01*
X70224000Y-56800000D01*
X70224000Y-56300000D01*
X70231995Y-56231086D01*
X70238976Y-56215274D01*
X70240213Y-56207468D01*
X70256780Y-56174953D01*
X70276676Y-56129894D01*
X70354894Y-56051676D01*
X70399953Y-56031780D01*
X70432468Y-56015213D01*
X70440274Y-56013976D01*
X70456086Y-56006995D01*
X70525000Y-55999000D01*
X71475000Y-55999000D01*
X71543914Y-56006995D01*
G37*
G36*
X74279794Y-55197931D02*
G01*
X74317802Y-55203469D01*
X74324778Y-55206879D01*
X74341486Y-55210203D01*
X74368506Y-55228257D01*
X74385317Y-55236476D01*
X74394400Y-55245559D01*
X74414806Y-55259194D01*
X74428440Y-55279599D01*
X74437523Y-55288682D01*
X74445740Y-55305490D01*
X74463797Y-55332514D01*
X74467120Y-55349223D01*
X74470530Y-55356197D01*
X74476064Y-55394185D01*
X74481000Y-55419000D01*
X74481000Y-55428067D01*
X74481392Y-55430758D01*
X74648926Y-55468608D01*
X74688318Y-55409652D01*
X74689543Y-55403498D01*
X74719566Y-55358566D01*
X74764498Y-55328543D01*
X74817500Y-55318000D01*
X75192500Y-55318000D01*
X75245502Y-55328543D01*
X75290434Y-55358566D01*
X75320457Y-55403498D01*
X75331000Y-55456500D01*
X75331000Y-55631500D01*
X75320457Y-55684502D01*
X75290434Y-55729434D01*
X75245502Y-55759457D01*
X75192500Y-55770000D01*
X74817500Y-55770000D01*
X74764498Y-55759457D01*
X74719566Y-55729434D01*
X74689543Y-55684502D01*
X74688318Y-55678345D01*
X74658427Y-55633609D01*
X74481000Y-55687430D01*
X74481000Y-56400566D01*
X74658424Y-56454389D01*
X74688319Y-56409648D01*
X74689543Y-56403498D01*
X74719566Y-56358566D01*
X74764498Y-56328543D01*
X74817500Y-56318000D01*
X75192500Y-56318000D01*
X75245502Y-56328543D01*
X75290434Y-56358566D01*
X75320457Y-56403498D01*
X75331000Y-56456500D01*
X75331000Y-56631500D01*
X75320457Y-56684502D01*
X75290434Y-56729434D01*
X75245502Y-56759457D01*
X75192500Y-56770000D01*
X74817500Y-56770000D01*
X74764498Y-56759457D01*
X74719566Y-56729434D01*
X74689543Y-56684502D01*
X74688318Y-56678346D01*
X74648926Y-56619392D01*
X74481392Y-56657242D01*
X74481000Y-56659932D01*
X74481000Y-56669000D01*
X74476063Y-56693815D01*
X74470530Y-56731802D01*
X74467120Y-56738775D01*
X74463797Y-56755486D01*
X74445738Y-56782512D01*
X74437523Y-56799317D01*
X74428442Y-56808397D01*
X74414806Y-56828806D01*
X74394397Y-56842442D01*
X74385317Y-56851523D01*
X74368512Y-56859738D01*
X74341486Y-56877797D01*
X74324775Y-56881120D01*
X74317802Y-56884530D01*
X74279810Y-56890064D01*
X74255000Y-56895000D01*
X73905000Y-56895000D01*
X73880189Y-56890064D01*
X73842197Y-56884530D01*
X73835223Y-56881120D01*
X73818514Y-56877797D01*
X73791490Y-56859740D01*
X73774682Y-56851523D01*
X73765599Y-56842440D01*
X73745194Y-56828806D01*
X73731559Y-56808400D01*
X73722476Y-56799317D01*
X73714258Y-56782508D01*
X73696203Y-56755486D01*
X73692879Y-56738775D01*
X73689468Y-56731798D01*
X73683916Y-56693717D01*
X73679000Y-56669000D01*
X73679000Y-56659991D01*
X73678598Y-56657234D01*
X73511068Y-56619395D01*
X73471682Y-56678341D01*
X73470457Y-56684502D01*
X73440434Y-56729434D01*
X73395502Y-56759457D01*
X73342500Y-56770000D01*
X72967500Y-56770000D01*
X72914498Y-56759457D01*
X72869566Y-56729434D01*
X72839543Y-56684502D01*
X72829000Y-56631500D01*
X72829000Y-56456500D01*
X72839543Y-56403498D01*
X72869566Y-56358566D01*
X72914498Y-56328543D01*
X72967500Y-56318000D01*
X73342500Y-56318000D01*
X73395502Y-56328543D01*
X73440434Y-56358566D01*
X73470457Y-56403498D01*
X73471681Y-56409655D01*
X73501571Y-56454389D01*
X73679000Y-56400568D01*
X73679000Y-55687432D01*
X73501571Y-55633611D01*
X73471682Y-55678343D01*
X73470457Y-55684502D01*
X73440434Y-55729434D01*
X73395502Y-55759457D01*
X73342500Y-55770000D01*
X72967500Y-55770000D01*
X72914498Y-55759457D01*
X72869566Y-55729434D01*
X72839543Y-55684502D01*
X72829000Y-55631500D01*
X72829000Y-55456500D01*
X72839543Y-55403498D01*
X72869566Y-55358566D01*
X72914498Y-55328543D01*
X72967500Y-55318000D01*
X73342500Y-55318000D01*
X73395502Y-55328543D01*
X73440434Y-55358566D01*
X73470457Y-55403498D01*
X73471681Y-55409654D01*
X73511069Y-55468602D01*
X73678595Y-55430766D01*
X73679000Y-55427988D01*
X73679000Y-55419000D01*
X73683907Y-55394326D01*
X73689466Y-55356204D01*
X73692879Y-55349221D01*
X73696203Y-55332514D01*
X73714256Y-55305495D01*
X73722476Y-55288682D01*
X73731561Y-55279596D01*
X73745194Y-55259194D01*
X73765596Y-55245561D01*
X73774682Y-55236476D01*
X73791495Y-55228255D01*
X73818514Y-55210203D01*
X73835219Y-55206880D01*
X73842197Y-55203469D01*
X73880210Y-55197930D01*
X73905000Y-55193000D01*
X74255000Y-55193000D01*
X74279794Y-55197931D01*
G37*
G36*
X65113433Y-55356644D02*
G01*
X65159806Y-55363989D01*
X65165857Y-55367072D01*
X65180621Y-55370009D01*
X65209525Y-55389323D01*
X65236311Y-55402971D01*
X65249118Y-55415778D01*
X65270161Y-55429839D01*
X65284221Y-55450881D01*
X65297028Y-55463688D01*
X65310674Y-55490471D01*
X65329991Y-55519379D01*
X65332927Y-55534144D01*
X65336010Y-55540193D01*
X65343351Y-55586545D01*
X65351000Y-55625000D01*
X65351000Y-56375000D01*
X65343350Y-56413458D01*
X65336010Y-56459806D01*
X65332928Y-56465854D01*
X65329991Y-56480621D01*
X65310672Y-56509532D01*
X65297028Y-56536311D01*
X65284223Y-56549115D01*
X65270161Y-56570161D01*
X65249115Y-56584223D01*
X65236311Y-56597028D01*
X65209532Y-56610672D01*
X65180621Y-56629991D01*
X65165854Y-56632928D01*
X65159806Y-56636010D01*
X65113458Y-56643350D01*
X65075000Y-56651000D01*
X64625000Y-56651000D01*
X64586545Y-56643351D01*
X64540193Y-56636010D01*
X64534144Y-56632927D01*
X64519379Y-56629991D01*
X64490471Y-56610674D01*
X64463688Y-56597028D01*
X64450881Y-56584221D01*
X64429839Y-56570161D01*
X64415778Y-56549118D01*
X64402971Y-56536311D01*
X64389323Y-56509525D01*
X64370009Y-56480621D01*
X64367072Y-56465857D01*
X64363989Y-56459806D01*
X64356644Y-56413433D01*
X64349000Y-56375000D01*
X64349000Y-55625000D01*
X64356644Y-55586570D01*
X64363989Y-55540193D01*
X64367072Y-55534141D01*
X64370009Y-55519379D01*
X64389320Y-55490477D01*
X64402971Y-55463688D01*
X64415780Y-55450878D01*
X64429839Y-55429839D01*
X64450878Y-55415780D01*
X64463688Y-55402971D01*
X64490477Y-55389320D01*
X64519379Y-55370009D01*
X64534141Y-55367072D01*
X64540193Y-55363989D01*
X64586570Y-55356644D01*
X64625000Y-55349000D01*
X65075000Y-55349000D01*
X65113433Y-55356644D01*
G37*
G36*
X68413433Y-55356644D02*
G01*
X68459806Y-55363989D01*
X68465857Y-55367072D01*
X68480621Y-55370009D01*
X68509525Y-55389323D01*
X68536311Y-55402971D01*
X68549118Y-55415778D01*
X68570161Y-55429839D01*
X68584221Y-55450881D01*
X68597028Y-55463688D01*
X68610674Y-55490471D01*
X68629991Y-55519379D01*
X68632927Y-55534144D01*
X68636010Y-55540193D01*
X68643351Y-55586545D01*
X68651000Y-55625000D01*
X68651000Y-56375000D01*
X68643350Y-56413458D01*
X68636010Y-56459806D01*
X68632928Y-56465854D01*
X68629991Y-56480621D01*
X68610672Y-56509532D01*
X68597028Y-56536311D01*
X68584223Y-56549115D01*
X68570161Y-56570161D01*
X68549115Y-56584223D01*
X68536311Y-56597028D01*
X68509532Y-56610672D01*
X68480621Y-56629991D01*
X68465854Y-56632928D01*
X68459806Y-56636010D01*
X68413458Y-56643350D01*
X68375000Y-56651000D01*
X67925000Y-56651000D01*
X67886545Y-56643351D01*
X67840193Y-56636010D01*
X67834144Y-56632927D01*
X67819379Y-56629991D01*
X67790471Y-56610674D01*
X67763688Y-56597028D01*
X67750881Y-56584221D01*
X67729839Y-56570161D01*
X67715778Y-56549118D01*
X67702971Y-56536311D01*
X67689323Y-56509525D01*
X67670009Y-56480621D01*
X67667072Y-56465857D01*
X67663989Y-56459806D01*
X67656644Y-56413433D01*
X67649000Y-56375000D01*
X67649000Y-55625000D01*
X67656644Y-55586570D01*
X67663989Y-55540193D01*
X67667072Y-55534141D01*
X67670009Y-55519379D01*
X67689320Y-55490477D01*
X67702971Y-55463688D01*
X67715780Y-55450878D01*
X67729839Y-55429839D01*
X67750878Y-55415780D01*
X67763688Y-55402971D01*
X67790477Y-55389320D01*
X67819379Y-55370009D01*
X67834141Y-55367072D01*
X67840193Y-55363989D01*
X67886570Y-55356644D01*
X67925000Y-55349000D01*
X68375000Y-55349000D01*
X68413433Y-55356644D01*
G37*
G36*
X60818914Y-54556995D02*
G01*
X60834726Y-54563976D01*
X60842531Y-54565213D01*
X60875039Y-54581776D01*
X60920106Y-54601676D01*
X60998324Y-54679894D01*
X61018226Y-54724967D01*
X61034786Y-54757468D01*
X61036021Y-54765270D01*
X61043005Y-54781086D01*
X61051000Y-54850000D01*
X61051000Y-55750000D01*
X61043005Y-55818914D01*
X61036021Y-55834729D01*
X61034786Y-55842531D01*
X61018229Y-55875024D01*
X60998324Y-55920106D01*
X60920106Y-55998324D01*
X60875024Y-56018229D01*
X60842531Y-56034786D01*
X60834729Y-56036021D01*
X60818914Y-56043005D01*
X60750000Y-56051000D01*
X60225000Y-56051000D01*
X60156086Y-56043005D01*
X60140270Y-56036021D01*
X60132468Y-56034786D01*
X60099967Y-56018226D01*
X60054894Y-55998324D01*
X59976676Y-55920106D01*
X59956776Y-55875039D01*
X59940213Y-55842531D01*
X59938976Y-55834726D01*
X59931995Y-55818914D01*
X59924000Y-55750000D01*
X59924000Y-54850000D01*
X59931995Y-54781086D01*
X59938976Y-54765274D01*
X59940213Y-54757468D01*
X59956780Y-54724953D01*
X59976676Y-54679894D01*
X60054894Y-54601676D01*
X60099953Y-54581780D01*
X60132468Y-54565213D01*
X60140274Y-54563976D01*
X60156086Y-54556995D01*
X60225000Y-54549000D01*
X60750000Y-54549000D01*
X60818914Y-54556995D01*
G37*
G36*
X62643914Y-54556995D02*
G01*
X62659726Y-54563976D01*
X62667531Y-54565213D01*
X62700039Y-54581776D01*
X62745106Y-54601676D01*
X62823324Y-54679894D01*
X62843226Y-54724967D01*
X62859786Y-54757468D01*
X62861021Y-54765270D01*
X62868005Y-54781086D01*
X62876000Y-54850000D01*
X62876000Y-55750000D01*
X62868005Y-55818914D01*
X62861021Y-55834729D01*
X62859786Y-55842531D01*
X62843229Y-55875024D01*
X62823324Y-55920106D01*
X62745106Y-55998324D01*
X62700024Y-56018229D01*
X62667531Y-56034786D01*
X62659729Y-56036021D01*
X62643914Y-56043005D01*
X62575000Y-56051000D01*
X62050000Y-56051000D01*
X61981086Y-56043005D01*
X61965270Y-56036021D01*
X61957468Y-56034786D01*
X61924967Y-56018226D01*
X61879894Y-55998324D01*
X61801676Y-55920106D01*
X61781776Y-55875039D01*
X61765213Y-55842531D01*
X61763976Y-55834726D01*
X61756995Y-55818914D01*
X61749000Y-55750000D01*
X61749000Y-54850000D01*
X61756995Y-54781086D01*
X61763976Y-54765274D01*
X61765213Y-54757468D01*
X61781780Y-54724953D01*
X61801676Y-54679894D01*
X61879894Y-54601676D01*
X61924953Y-54581780D01*
X61957468Y-54565213D01*
X61965274Y-54563976D01*
X61981086Y-54556995D01*
X62050000Y-54549000D01*
X62575000Y-54549000D01*
X62643914Y-54556995D01*
G37*
G36*
X71543914Y-54106995D02*
G01*
X71559726Y-54113976D01*
X71567531Y-54115213D01*
X71600039Y-54131776D01*
X71645106Y-54151676D01*
X71723324Y-54229894D01*
X71743226Y-54274967D01*
X71759786Y-54307468D01*
X71761021Y-54315270D01*
X71768005Y-54331086D01*
X71776000Y-54400000D01*
X71776000Y-54900000D01*
X71768005Y-54968914D01*
X71761021Y-54984729D01*
X71759786Y-54992531D01*
X71743229Y-55025024D01*
X71723324Y-55070106D01*
X71645106Y-55148324D01*
X71600024Y-55168229D01*
X71567531Y-55184786D01*
X71559729Y-55186021D01*
X71543914Y-55193005D01*
X71475000Y-55201000D01*
X70525000Y-55201000D01*
X70456086Y-55193005D01*
X70440270Y-55186021D01*
X70432468Y-55184786D01*
X70399967Y-55168226D01*
X70354894Y-55148324D01*
X70276676Y-55070106D01*
X70256776Y-55025039D01*
X70240213Y-54992531D01*
X70238976Y-54984726D01*
X70231995Y-54968914D01*
X70224000Y-54900000D01*
X70224000Y-54400000D01*
X70231995Y-54331086D01*
X70238976Y-54315274D01*
X70240213Y-54307468D01*
X70256780Y-54274953D01*
X70276676Y-54229894D01*
X70354894Y-54151676D01*
X70399953Y-54131780D01*
X70432468Y-54115213D01*
X70440274Y-54113976D01*
X70456086Y-54106995D01*
X70525000Y-54099000D01*
X71475000Y-54099000D01*
X71543914Y-54106995D01*
G37*
G36*
X69543914Y-53425995D02*
G01*
X69559726Y-53432976D01*
X69567531Y-53434213D01*
X69600039Y-53450776D01*
X69645106Y-53470676D01*
X69723324Y-53548894D01*
X69743226Y-53593967D01*
X69759786Y-53626468D01*
X69761021Y-53634270D01*
X69768005Y-53650086D01*
X69776000Y-53719000D01*
X69776000Y-54219000D01*
X69768005Y-54287914D01*
X69761021Y-54303729D01*
X69759786Y-54311531D01*
X69743229Y-54344024D01*
X69723324Y-54389106D01*
X69645106Y-54467324D01*
X69600024Y-54487229D01*
X69567531Y-54503786D01*
X69559729Y-54505021D01*
X69543914Y-54512005D01*
X69475000Y-54520000D01*
X68525000Y-54520000D01*
X68456086Y-54512005D01*
X68440270Y-54505021D01*
X68432468Y-54503786D01*
X68399967Y-54487226D01*
X68354894Y-54467324D01*
X68276676Y-54389106D01*
X68256776Y-54344039D01*
X68240213Y-54311531D01*
X68238976Y-54303726D01*
X68231995Y-54287914D01*
X68224000Y-54219000D01*
X68224000Y-53719000D01*
X68231995Y-53650086D01*
X68238976Y-53634274D01*
X68240213Y-53626468D01*
X68256780Y-53593953D01*
X68276676Y-53548894D01*
X68354894Y-53470676D01*
X68399953Y-53450780D01*
X68432468Y-53434213D01*
X68440274Y-53432976D01*
X68456086Y-53425995D01*
X68525000Y-53418000D01*
X69475000Y-53418000D01*
X69543914Y-53425995D01*
G37*
G36*
X67343914Y-53402995D02*
G01*
X67359726Y-53409976D01*
X67367531Y-53411213D01*
X67400039Y-53427776D01*
X67445106Y-53447676D01*
X67523324Y-53525894D01*
X67543226Y-53570967D01*
X67559786Y-53603468D01*
X67561021Y-53611270D01*
X67568005Y-53627086D01*
X67576000Y-53696000D01*
X67576000Y-54196000D01*
X67568005Y-54264914D01*
X67561021Y-54280729D01*
X67559786Y-54288531D01*
X67543229Y-54321024D01*
X67523324Y-54366106D01*
X67445106Y-54444324D01*
X67400024Y-54464229D01*
X67367531Y-54480786D01*
X67359729Y-54482021D01*
X67343914Y-54489005D01*
X67275000Y-54497000D01*
X66325000Y-54497000D01*
X66256086Y-54489005D01*
X66240270Y-54482021D01*
X66232468Y-54480786D01*
X66199967Y-54464226D01*
X66154894Y-54444324D01*
X66076676Y-54366106D01*
X66056776Y-54321039D01*
X66040213Y-54288531D01*
X66038976Y-54280726D01*
X66031995Y-54264914D01*
X66024000Y-54196000D01*
X66024000Y-53696000D01*
X66031995Y-53627086D01*
X66038976Y-53611274D01*
X66040213Y-53603468D01*
X66056780Y-53570953D01*
X66076676Y-53525894D01*
X66154894Y-53447676D01*
X66199953Y-53427780D01*
X66232468Y-53411213D01*
X66240274Y-53409976D01*
X66256086Y-53402995D01*
X66325000Y-53395000D01*
X67275000Y-53395000D01*
X67343914Y-53402995D01*
G37*
G36*
X75318914Y-53375995D02*
G01*
X75334726Y-53382976D01*
X75342531Y-53384213D01*
X75375039Y-53400776D01*
X75420106Y-53420676D01*
X75498324Y-53498894D01*
X75518226Y-53543967D01*
X75534786Y-53576468D01*
X75536021Y-53584270D01*
X75543005Y-53600086D01*
X75551000Y-53669000D01*
X75551000Y-54194000D01*
X75543005Y-54262914D01*
X75536021Y-54278729D01*
X75534786Y-54286531D01*
X75518229Y-54319024D01*
X75498324Y-54364106D01*
X75420106Y-54442324D01*
X75375024Y-54462229D01*
X75342531Y-54478786D01*
X75334729Y-54480021D01*
X75318914Y-54487005D01*
X75250000Y-54495000D01*
X74350000Y-54495000D01*
X74281086Y-54487005D01*
X74265270Y-54480021D01*
X74257468Y-54478786D01*
X74224967Y-54462226D01*
X74179894Y-54442324D01*
X74101676Y-54364106D01*
X74081776Y-54319039D01*
X74065213Y-54286531D01*
X74063976Y-54278726D01*
X74056995Y-54262914D01*
X74049000Y-54194000D01*
X74049000Y-53669000D01*
X74056995Y-53600086D01*
X74063976Y-53584274D01*
X74065213Y-53576468D01*
X74081780Y-53543953D01*
X74101676Y-53498894D01*
X74179894Y-53420676D01*
X74224953Y-53400780D01*
X74257468Y-53384213D01*
X74265274Y-53382976D01*
X74281086Y-53375995D01*
X74350000Y-53368000D01*
X75250000Y-53368000D01*
X75318914Y-53375995D01*
G37*
G36*
X77518914Y-53375995D02*
G01*
X77534726Y-53382976D01*
X77542531Y-53384213D01*
X77575039Y-53400776D01*
X77620106Y-53420676D01*
X77698324Y-53498894D01*
X77718226Y-53543967D01*
X77734786Y-53576468D01*
X77736021Y-53584270D01*
X77743005Y-53600086D01*
X77751000Y-53669000D01*
X77751000Y-54194000D01*
X77743005Y-54262914D01*
X77736021Y-54278729D01*
X77734786Y-54286531D01*
X77718229Y-54319024D01*
X77698324Y-54364106D01*
X77620106Y-54442324D01*
X77575024Y-54462229D01*
X77542531Y-54478786D01*
X77534729Y-54480021D01*
X77518914Y-54487005D01*
X77450000Y-54495000D01*
X76550000Y-54495000D01*
X76481086Y-54487005D01*
X76465270Y-54480021D01*
X76457468Y-54478786D01*
X76424967Y-54462226D01*
X76379894Y-54442324D01*
X76301676Y-54364106D01*
X76281776Y-54319039D01*
X76265213Y-54286531D01*
X76263976Y-54278726D01*
X76256995Y-54262914D01*
X76249000Y-54194000D01*
X76249000Y-53669000D01*
X76256995Y-53600086D01*
X76263976Y-53584274D01*
X76265213Y-53576468D01*
X76281780Y-53543953D01*
X76301676Y-53498894D01*
X76379894Y-53420676D01*
X76424953Y-53400780D01*
X76457468Y-53384213D01*
X76465274Y-53382976D01*
X76481086Y-53375995D01*
X76550000Y-53368000D01*
X77450000Y-53368000D01*
X77518914Y-53375995D01*
G37*
G36*
X60087694Y-52350646D02*
G01*
X60132126Y-52357684D01*
X60137923Y-52360637D01*
X60152479Y-52363533D01*
X60180973Y-52382572D01*
X60206887Y-52395776D01*
X60219278Y-52408167D01*
X60239992Y-52422008D01*
X60253832Y-52442721D01*
X60266223Y-52455112D01*
X60279425Y-52481023D01*
X60298467Y-52509521D01*
X60301362Y-52524078D01*
X60304315Y-52529873D01*
X60311349Y-52574284D01*
X60319000Y-52612750D01*
X60319000Y-53125250D01*
X60311348Y-53163718D01*
X60304315Y-53208126D01*
X60301362Y-53213919D01*
X60298467Y-53228479D01*
X60279423Y-53256979D01*
X60266223Y-53282887D01*
X60253834Y-53295275D01*
X60239992Y-53315992D01*
X60219275Y-53329834D01*
X60206887Y-53342223D01*
X60180979Y-53355423D01*
X60152479Y-53374467D01*
X60137919Y-53377362D01*
X60132126Y-53380315D01*
X60087718Y-53387348D01*
X60049250Y-53395000D01*
X59611750Y-53395000D01*
X59573284Y-53387349D01*
X59528873Y-53380315D01*
X59523078Y-53377362D01*
X59508521Y-53374467D01*
X59480023Y-53355425D01*
X59454112Y-53342223D01*
X59441721Y-53329832D01*
X59421008Y-53315992D01*
X59407167Y-53295278D01*
X59394776Y-53282887D01*
X59381572Y-53256973D01*
X59362533Y-53228479D01*
X59359637Y-53213923D01*
X59356684Y-53208126D01*
X59349646Y-53163694D01*
X59342000Y-53125250D01*
X59342000Y-52612750D01*
X59349646Y-52574309D01*
X59356684Y-52529873D01*
X59359638Y-52524075D01*
X59362533Y-52509521D01*
X59381570Y-52481029D01*
X59394776Y-52455112D01*
X59407169Y-52442718D01*
X59421008Y-52422008D01*
X59441718Y-52408169D01*
X59454112Y-52395776D01*
X59480029Y-52382570D01*
X59508521Y-52363533D01*
X59523075Y-52360638D01*
X59528873Y-52357684D01*
X59573309Y-52350646D01*
X59611750Y-52343000D01*
X60049250Y-52343000D01*
X60087694Y-52350646D01*
G37*
G36*
X61662694Y-52350646D02*
G01*
X61707126Y-52357684D01*
X61712923Y-52360637D01*
X61727479Y-52363533D01*
X61755973Y-52382572D01*
X61781887Y-52395776D01*
X61794278Y-52408167D01*
X61814992Y-52422008D01*
X61828832Y-52442721D01*
X61841223Y-52455112D01*
X61854425Y-52481023D01*
X61873467Y-52509521D01*
X61876362Y-52524078D01*
X61879315Y-52529873D01*
X61886349Y-52574284D01*
X61894000Y-52612750D01*
X61894000Y-53125250D01*
X61886348Y-53163718D01*
X61879315Y-53208126D01*
X61876362Y-53213919D01*
X61873467Y-53228479D01*
X61854423Y-53256979D01*
X61841223Y-53282887D01*
X61828834Y-53295275D01*
X61814992Y-53315992D01*
X61794275Y-53329834D01*
X61781887Y-53342223D01*
X61755979Y-53355423D01*
X61727479Y-53374467D01*
X61712919Y-53377362D01*
X61707126Y-53380315D01*
X61662718Y-53387348D01*
X61624250Y-53395000D01*
X61186750Y-53395000D01*
X61148284Y-53387349D01*
X61103873Y-53380315D01*
X61098078Y-53377362D01*
X61083521Y-53374467D01*
X61055023Y-53355425D01*
X61029112Y-53342223D01*
X61016721Y-53329832D01*
X60996008Y-53315992D01*
X60982167Y-53295278D01*
X60969776Y-53282887D01*
X60956572Y-53256973D01*
X60937533Y-53228479D01*
X60934637Y-53213923D01*
X60931684Y-53208126D01*
X60924646Y-53163694D01*
X60917000Y-53125250D01*
X60917000Y-52612750D01*
X60924646Y-52574309D01*
X60931684Y-52529873D01*
X60934638Y-52524075D01*
X60937533Y-52509521D01*
X60956570Y-52481029D01*
X60969776Y-52455112D01*
X60982169Y-52442718D01*
X60996008Y-52422008D01*
X61016718Y-52408169D01*
X61029112Y-52395776D01*
X61055029Y-52382570D01*
X61083521Y-52363533D01*
X61098075Y-52360638D01*
X61103873Y-52357684D01*
X61148309Y-52350646D01*
X61186750Y-52343000D01*
X61624250Y-52343000D01*
X61662694Y-52350646D01*
G37*
G36*
X75318914Y-51550995D02*
G01*
X75334726Y-51557976D01*
X75342531Y-51559213D01*
X75375039Y-51575776D01*
X75420106Y-51595676D01*
X75498324Y-51673894D01*
X75518226Y-51718967D01*
X75534786Y-51751468D01*
X75536021Y-51759270D01*
X75543005Y-51775086D01*
X75551000Y-51844000D01*
X75551000Y-52369000D01*
X75543005Y-52437914D01*
X75536021Y-52453729D01*
X75534786Y-52461531D01*
X75518229Y-52494024D01*
X75498324Y-52539106D01*
X75420106Y-52617324D01*
X75375024Y-52637229D01*
X75342531Y-52653786D01*
X75334729Y-52655021D01*
X75318914Y-52662005D01*
X75250000Y-52670000D01*
X74350000Y-52670000D01*
X74281086Y-52662005D01*
X74265270Y-52655021D01*
X74257468Y-52653786D01*
X74224967Y-52637226D01*
X74179894Y-52617324D01*
X74101676Y-52539106D01*
X74081776Y-52494039D01*
X74065213Y-52461531D01*
X74063976Y-52453726D01*
X74056995Y-52437914D01*
X74049000Y-52369000D01*
X74049000Y-51844000D01*
X74056995Y-51775086D01*
X74063976Y-51759274D01*
X74065213Y-51751468D01*
X74081780Y-51718953D01*
X74101676Y-51673894D01*
X74179894Y-51595676D01*
X74224953Y-51575780D01*
X74257468Y-51559213D01*
X74265274Y-51557976D01*
X74281086Y-51550995D01*
X74350000Y-51543000D01*
X75250000Y-51543000D01*
X75318914Y-51550995D01*
G37*
G36*
X77518914Y-51550995D02*
G01*
X77534726Y-51557976D01*
X77542531Y-51559213D01*
X77575039Y-51575776D01*
X77620106Y-51595676D01*
X77698324Y-51673894D01*
X77718226Y-51718967D01*
X77734786Y-51751468D01*
X77736021Y-51759270D01*
X77743005Y-51775086D01*
X77751000Y-51844000D01*
X77751000Y-52369000D01*
X77743005Y-52437914D01*
X77736021Y-52453729D01*
X77734786Y-52461531D01*
X77718229Y-52494024D01*
X77698324Y-52539106D01*
X77620106Y-52617324D01*
X77575024Y-52637229D01*
X77542531Y-52653786D01*
X77534729Y-52655021D01*
X77518914Y-52662005D01*
X77450000Y-52670000D01*
X76550000Y-52670000D01*
X76481086Y-52662005D01*
X76465270Y-52655021D01*
X76457468Y-52653786D01*
X76424967Y-52637226D01*
X76379894Y-52617324D01*
X76301676Y-52539106D01*
X76281776Y-52494039D01*
X76265213Y-52461531D01*
X76263976Y-52453726D01*
X76256995Y-52437914D01*
X76249000Y-52369000D01*
X76249000Y-51844000D01*
X76256995Y-51775086D01*
X76263976Y-51759274D01*
X76265213Y-51751468D01*
X76281780Y-51718953D01*
X76301676Y-51673894D01*
X76379894Y-51595676D01*
X76424953Y-51575780D01*
X76457468Y-51559213D01*
X76465274Y-51557976D01*
X76481086Y-51550995D01*
X76550000Y-51543000D01*
X77450000Y-51543000D01*
X77518914Y-51550995D01*
G37*
G36*
X69543914Y-51525995D02*
G01*
X69559726Y-51532976D01*
X69567531Y-51534213D01*
X69600039Y-51550776D01*
X69645106Y-51570676D01*
X69723324Y-51648894D01*
X69743226Y-51693967D01*
X69759786Y-51726468D01*
X69761021Y-51734270D01*
X69768005Y-51750086D01*
X69776000Y-51819000D01*
X69776000Y-52319000D01*
X69768005Y-52387914D01*
X69761021Y-52403729D01*
X69759786Y-52411531D01*
X69743229Y-52444024D01*
X69723324Y-52489106D01*
X69645106Y-52567324D01*
X69600024Y-52587229D01*
X69567531Y-52603786D01*
X69559729Y-52605021D01*
X69543914Y-52612005D01*
X69475000Y-52620000D01*
X68525000Y-52620000D01*
X68456086Y-52612005D01*
X68440270Y-52605021D01*
X68432468Y-52603786D01*
X68399967Y-52587226D01*
X68354894Y-52567324D01*
X68276676Y-52489106D01*
X68256776Y-52444039D01*
X68240213Y-52411531D01*
X68238976Y-52403726D01*
X68231995Y-52387914D01*
X68224000Y-52319000D01*
X68224000Y-51819000D01*
X68231995Y-51750086D01*
X68238976Y-51734274D01*
X68240213Y-51726468D01*
X68256780Y-51693953D01*
X68276676Y-51648894D01*
X68354894Y-51570676D01*
X68399953Y-51550780D01*
X68432468Y-51534213D01*
X68440274Y-51532976D01*
X68456086Y-51525995D01*
X68525000Y-51518000D01*
X69475000Y-51518000D01*
X69543914Y-51525995D01*
G37*
G36*
X67343914Y-51502995D02*
G01*
X67359726Y-51509976D01*
X67367531Y-51511213D01*
X67400039Y-51527776D01*
X67445106Y-51547676D01*
X67523324Y-51625894D01*
X67543226Y-51670967D01*
X67559786Y-51703468D01*
X67561021Y-51711270D01*
X67568005Y-51727086D01*
X67576000Y-51796000D01*
X67576000Y-52296000D01*
X67568005Y-52364914D01*
X67561021Y-52380729D01*
X67559786Y-52388531D01*
X67543229Y-52421024D01*
X67523324Y-52466106D01*
X67445106Y-52544324D01*
X67400024Y-52564229D01*
X67367531Y-52580786D01*
X67359729Y-52582021D01*
X67343914Y-52589005D01*
X67275000Y-52597000D01*
X66325000Y-52597000D01*
X66256086Y-52589005D01*
X66240270Y-52582021D01*
X66232468Y-52580786D01*
X66199967Y-52564226D01*
X66154894Y-52544324D01*
X66076676Y-52466106D01*
X66056776Y-52421039D01*
X66040213Y-52388531D01*
X66038976Y-52380726D01*
X66031995Y-52364914D01*
X66024000Y-52296000D01*
X66024000Y-51796000D01*
X66031995Y-51727086D01*
X66038976Y-51711274D01*
X66040213Y-51703468D01*
X66056780Y-51670953D01*
X66076676Y-51625894D01*
X66154894Y-51547676D01*
X66199953Y-51527780D01*
X66232468Y-51511213D01*
X66240274Y-51509976D01*
X66256086Y-51502995D01*
X66325000Y-51495000D01*
X67275000Y-51495000D01*
X67343914Y-51502995D01*
G37*
G36*
X64789517Y-51454882D02*
G01*
X64806062Y-51465938D01*
X64817118Y-51482483D01*
X64821000Y-51502000D01*
X64821000Y-52302000D01*
X64817118Y-52321517D01*
X64806062Y-52338062D01*
X64789517Y-52349118D01*
X64770000Y-52353000D01*
X63070000Y-52353000D01*
X63050483Y-52349118D01*
X63033938Y-52338062D01*
X63022882Y-52321517D01*
X63019000Y-52302000D01*
X63019000Y-51502000D01*
X63022882Y-51482483D01*
X63033938Y-51465938D01*
X63050483Y-51454882D01*
X63070000Y-51451000D01*
X64770000Y-51451000D01*
X64789517Y-51454882D01*
G37*
G36*
X73171517Y-51454882D02*
G01*
X73188062Y-51465938D01*
X73199118Y-51482483D01*
X73203000Y-51502000D01*
X73203000Y-52302000D01*
X73199118Y-52321517D01*
X73188062Y-52338062D01*
X73171517Y-52349118D01*
X73152000Y-52353000D01*
X71452000Y-52353000D01*
X71432483Y-52349118D01*
X71415938Y-52338062D01*
X71404882Y-52321517D01*
X71401000Y-52302000D01*
X71401000Y-51502000D01*
X71404882Y-51482483D01*
X71415938Y-51465938D01*
X71432483Y-51454882D01*
X71452000Y-51451000D01*
X73152000Y-51451000D01*
X73171517Y-51454882D01*
G37*
G36*
X60018914Y-49458995D02*
G01*
X60034726Y-49465976D01*
X60042531Y-49467213D01*
X60075039Y-49483776D01*
X60120106Y-49503676D01*
X60198324Y-49581894D01*
X60218226Y-49626967D01*
X60234786Y-49659468D01*
X60236021Y-49667270D01*
X60243005Y-49683086D01*
X60251000Y-49752000D01*
X60251000Y-50652000D01*
X60243005Y-50720914D01*
X60236021Y-50736729D01*
X60234786Y-50744531D01*
X60218229Y-50777024D01*
X60198324Y-50822106D01*
X60120106Y-50900324D01*
X60075024Y-50920229D01*
X60042531Y-50936786D01*
X60034729Y-50938021D01*
X60018914Y-50945005D01*
X59950000Y-50953000D01*
X59425000Y-50953000D01*
X59356086Y-50945005D01*
X59340270Y-50938021D01*
X59332468Y-50936786D01*
X59299967Y-50920226D01*
X59254894Y-50900324D01*
X59176676Y-50822106D01*
X59156776Y-50777039D01*
X59140213Y-50744531D01*
X59138976Y-50736726D01*
X59131995Y-50720914D01*
X59124000Y-50652000D01*
X59124000Y-49752000D01*
X59131995Y-49683086D01*
X59138976Y-49667274D01*
X59140213Y-49659468D01*
X59156780Y-49626953D01*
X59176676Y-49581894D01*
X59254894Y-49503676D01*
X59299953Y-49483780D01*
X59332468Y-49467213D01*
X59340274Y-49465976D01*
X59356086Y-49458995D01*
X59425000Y-49451000D01*
X59950000Y-49451000D01*
X60018914Y-49458995D01*
G37*
G36*
X61843914Y-49458995D02*
G01*
X61859726Y-49465976D01*
X61867531Y-49467213D01*
X61900039Y-49483776D01*
X61945106Y-49503676D01*
X62023324Y-49581894D01*
X62043226Y-49626967D01*
X62059786Y-49659468D01*
X62061021Y-49667270D01*
X62068005Y-49683086D01*
X62076000Y-49752000D01*
X62076000Y-50652000D01*
X62068005Y-50720914D01*
X62061021Y-50736729D01*
X62059786Y-50744531D01*
X62043229Y-50777024D01*
X62023324Y-50822106D01*
X61945106Y-50900324D01*
X61900024Y-50920229D01*
X61867531Y-50936786D01*
X61859729Y-50938021D01*
X61843914Y-50945005D01*
X61775000Y-50953000D01*
X61250000Y-50953000D01*
X61181086Y-50945005D01*
X61165270Y-50938021D01*
X61157468Y-50936786D01*
X61124967Y-50920226D01*
X61079894Y-50900324D01*
X61001676Y-50822106D01*
X60981776Y-50777039D01*
X60965213Y-50744531D01*
X60963976Y-50736726D01*
X60956995Y-50720914D01*
X60949000Y-50652000D01*
X60949000Y-49752000D01*
X60956995Y-49683086D01*
X60963976Y-49667274D01*
X60965213Y-49659468D01*
X60981780Y-49626953D01*
X61001676Y-49581894D01*
X61079894Y-49503676D01*
X61124953Y-49483780D01*
X61157468Y-49467213D01*
X61165274Y-49465976D01*
X61181086Y-49458995D01*
X61250000Y-49451000D01*
X61775000Y-49451000D01*
X61843914Y-49458995D01*
G37*
G36*
X67158017Y-48746882D02*
G01*
X67174562Y-48757938D01*
X67185618Y-48774483D01*
X67189500Y-48794000D01*
X67189500Y-50594000D01*
X67185618Y-50613517D01*
X67174562Y-50630062D01*
X67158017Y-50641118D01*
X67138500Y-50645000D01*
X66138500Y-50645000D01*
X66118983Y-50641118D01*
X66102438Y-50630062D01*
X66091382Y-50613517D01*
X66087500Y-50594000D01*
X66087500Y-48794000D01*
X66091382Y-48774483D01*
X66102438Y-48757938D01*
X66118983Y-48746882D01*
X66138500Y-48743000D01*
X67138500Y-48743000D01*
X67158017Y-48746882D01*
G37*
G36*
X69658017Y-48746882D02*
G01*
X69674562Y-48757938D01*
X69685618Y-48774483D01*
X69689500Y-48794000D01*
X69689500Y-50594000D01*
X69685618Y-50613517D01*
X69674562Y-50630062D01*
X69658017Y-50641118D01*
X69638500Y-50645000D01*
X68638500Y-50645000D01*
X68618983Y-50641118D01*
X68602438Y-50630062D01*
X68591382Y-50613517D01*
X68587500Y-50594000D01*
X68587500Y-48794000D01*
X68591382Y-48774483D01*
X68602438Y-48757938D01*
X68618983Y-48746882D01*
X68638500Y-48743000D01*
X69638500Y-48743000D01*
X69658017Y-48746882D01*
G37*
G36*
X64789517Y-48054882D02*
G01*
X64806062Y-48065938D01*
X64817118Y-48082483D01*
X64821000Y-48102000D01*
X64821000Y-48902000D01*
X64817118Y-48921517D01*
X64806062Y-48938062D01*
X64789517Y-48949118D01*
X64770000Y-48953000D01*
X63070000Y-48953000D01*
X63050483Y-48949118D01*
X63033938Y-48938062D01*
X63022882Y-48921517D01*
X63019000Y-48902000D01*
X63019000Y-48102000D01*
X63022882Y-48082483D01*
X63033938Y-48065938D01*
X63050483Y-48054882D01*
X63070000Y-48051000D01*
X64770000Y-48051000D01*
X64789517Y-48054882D01*
G37*
G36*
X73171517Y-48054882D02*
G01*
X73188062Y-48065938D01*
X73199118Y-48082483D01*
X73203000Y-48102000D01*
X73203000Y-48902000D01*
X73199118Y-48921517D01*
X73188062Y-48938062D01*
X73171517Y-48949118D01*
X73152000Y-48953000D01*
X71452000Y-48953000D01*
X71432483Y-48949118D01*
X71415938Y-48938062D01*
X71404882Y-48921517D01*
X71401000Y-48902000D01*
X71401000Y-48102000D01*
X71404882Y-48082483D01*
X71415938Y-48065938D01*
X71432483Y-48054882D01*
X71452000Y-48051000D01*
X73152000Y-48051000D01*
X73171517Y-48054882D01*
G37*
G36*
X63047517Y-44525432D02*
G01*
X63064062Y-44536488D01*
X63075118Y-44553033D01*
X63076342Y-44559187D01*
X63096187Y-44588888D01*
X63229813Y-44588888D01*
X63249657Y-44559186D01*
X63250882Y-44553033D01*
X63261938Y-44536488D01*
X63278483Y-44525432D01*
X63298000Y-44521550D01*
X64298000Y-44521550D01*
X64317517Y-44525432D01*
X64334062Y-44536488D01*
X64345118Y-44553033D01*
X64346342Y-44559187D01*
X64366187Y-44588888D01*
X64499813Y-44588888D01*
X64519657Y-44559186D01*
X64520882Y-44553033D01*
X64531938Y-44536488D01*
X64548483Y-44525432D01*
X64568000Y-44521550D01*
X65568000Y-44521550D01*
X65587517Y-44525432D01*
X65604062Y-44536488D01*
X65615118Y-44553033D01*
X65616342Y-44559187D01*
X65636187Y-44588888D01*
X65769813Y-44588888D01*
X65789657Y-44559186D01*
X65790882Y-44553033D01*
X65801938Y-44536488D01*
X65818483Y-44525432D01*
X65838000Y-44521550D01*
X66838000Y-44521550D01*
X66857517Y-44525432D01*
X66874062Y-44536488D01*
X66885118Y-44553033D01*
X66886342Y-44559187D01*
X66906187Y-44588888D01*
X67039813Y-44588888D01*
X67059657Y-44559186D01*
X67060882Y-44553033D01*
X67071938Y-44536488D01*
X67088483Y-44525432D01*
X67108000Y-44521550D01*
X68108000Y-44521550D01*
X68127517Y-44525432D01*
X68144062Y-44536488D01*
X68155118Y-44553033D01*
X68156342Y-44559187D01*
X68176187Y-44588888D01*
X68309813Y-44588888D01*
X68329657Y-44559186D01*
X68330882Y-44553033D01*
X68341938Y-44536488D01*
X68358483Y-44525432D01*
X68378000Y-44521550D01*
X69378000Y-44521550D01*
X69397517Y-44525432D01*
X69414062Y-44536488D01*
X69425118Y-44553033D01*
X69426342Y-44559187D01*
X69446187Y-44588888D01*
X69579813Y-44588888D01*
X69599657Y-44559186D01*
X69600882Y-44553033D01*
X69611938Y-44536488D01*
X69628483Y-44525432D01*
X69648000Y-44521550D01*
X70648000Y-44521550D01*
X70667517Y-44525432D01*
X70684062Y-44536488D01*
X70695118Y-44553033D01*
X70696342Y-44559187D01*
X70716187Y-44588888D01*
X70849813Y-44588888D01*
X70869657Y-44559186D01*
X70870882Y-44553033D01*
X70881938Y-44536488D01*
X70898483Y-44525432D01*
X70918000Y-44521550D01*
X71918000Y-44521550D01*
X71937517Y-44525432D01*
X71954062Y-44536488D01*
X71965118Y-44553033D01*
X71969000Y-44572550D01*
X71969000Y-46572550D01*
X71965118Y-46592067D01*
X71954062Y-46608612D01*
X71937517Y-46619668D01*
X71918000Y-46623550D01*
X70918000Y-46623550D01*
X70898483Y-46619668D01*
X70881938Y-46608612D01*
X70870882Y-46592067D01*
X70869656Y-46585907D01*
X70849815Y-46556211D01*
X70716185Y-46556211D01*
X70696343Y-46585906D01*
X70695118Y-46592067D01*
X70684062Y-46608612D01*
X70667517Y-46619668D01*
X70648000Y-46623550D01*
X69648000Y-46623550D01*
X69628483Y-46619668D01*
X69611938Y-46608612D01*
X69600882Y-46592067D01*
X69599656Y-46585907D01*
X69579815Y-46556211D01*
X69446185Y-46556211D01*
X69426343Y-46585906D01*
X69425118Y-46592067D01*
X69414062Y-46608612D01*
X69397517Y-46619668D01*
X69378000Y-46623550D01*
X68378000Y-46623550D01*
X68358483Y-46619668D01*
X68341938Y-46608612D01*
X68330882Y-46592067D01*
X68329656Y-46585907D01*
X68309815Y-46556211D01*
X68176185Y-46556211D01*
X68156343Y-46585906D01*
X68155118Y-46592067D01*
X68144062Y-46608612D01*
X68127517Y-46619668D01*
X68108000Y-46623550D01*
X67108000Y-46623550D01*
X67088483Y-46619668D01*
X67071938Y-46608612D01*
X67060882Y-46592067D01*
X67059656Y-46585907D01*
X67039815Y-46556211D01*
X66906185Y-46556211D01*
X66886343Y-46585906D01*
X66885118Y-46592067D01*
X66874062Y-46608612D01*
X66857517Y-46619668D01*
X66838000Y-46623550D01*
X65838000Y-46623550D01*
X65818483Y-46619668D01*
X65801938Y-46608612D01*
X65790882Y-46592067D01*
X65789656Y-46585907D01*
X65769815Y-46556211D01*
X65636185Y-46556211D01*
X65616343Y-46585906D01*
X65615118Y-46592067D01*
X65604062Y-46608612D01*
X65587517Y-46619668D01*
X65568000Y-46623550D01*
X64568000Y-46623550D01*
X64548483Y-46619668D01*
X64531938Y-46608612D01*
X64520882Y-46592067D01*
X64519656Y-46585907D01*
X64499815Y-46556211D01*
X64366185Y-46556211D01*
X64346343Y-46585906D01*
X64345118Y-46592067D01*
X64334062Y-46608612D01*
X64317517Y-46619668D01*
X64298000Y-46623550D01*
X63298000Y-46623550D01*
X63278483Y-46619668D01*
X63261938Y-46608612D01*
X63250882Y-46592067D01*
X63249656Y-46585907D01*
X63229815Y-46556211D01*
X63096185Y-46556211D01*
X63076343Y-46585906D01*
X63075118Y-46592067D01*
X63064062Y-46608612D01*
X63047517Y-46619668D01*
X63028000Y-46623550D01*
X62028000Y-46623550D01*
X62008483Y-46619668D01*
X61991938Y-46608612D01*
X61980882Y-46592067D01*
X61977000Y-46572550D01*
X61977000Y-44572550D01*
X61980882Y-44553033D01*
X61991938Y-44536488D01*
X62008483Y-44525432D01*
X62028000Y-44521550D01*
X63028000Y-44521550D01*
X63047517Y-44525432D01*
G37*
G36*
X63627517Y-42975432D02*
G01*
X63644062Y-42986488D01*
X63655118Y-43003033D01*
X63659000Y-43022550D01*
X63659000Y-43922550D01*
X63655118Y-43942067D01*
X63644062Y-43958612D01*
X63627517Y-43969668D01*
X63608000Y-43973550D01*
X62708000Y-43973550D01*
X62688483Y-43969668D01*
X62671938Y-43958612D01*
X62660882Y-43942067D01*
X62657000Y-43922550D01*
X62657000Y-43022550D01*
X62660882Y-43003033D01*
X62671938Y-42986488D01*
X62688483Y-42975432D01*
X62708000Y-42971550D01*
X63608000Y-42971550D01*
X63627517Y-42975432D01*
G37*
G36*
X64897517Y-42975432D02*
G01*
X64914062Y-42986488D01*
X64925118Y-43003033D01*
X64929000Y-43022550D01*
X64929000Y-43922550D01*
X64925118Y-43942067D01*
X64914062Y-43958612D01*
X64897517Y-43969668D01*
X64878000Y-43973550D01*
X63978000Y-43973550D01*
X63958483Y-43969668D01*
X63941938Y-43958612D01*
X63930882Y-43942067D01*
X63927000Y-43922550D01*
X63927000Y-43022550D01*
X63930882Y-43003033D01*
X63941938Y-42986488D01*
X63958483Y-42975432D01*
X63978000Y-42971550D01*
X64878000Y-42971550D01*
X64897517Y-42975432D01*
G37*
G36*
X66167517Y-42975432D02*
G01*
X66184062Y-42986488D01*
X66195118Y-43003033D01*
X66199000Y-43022550D01*
X66199000Y-43922550D01*
X66195118Y-43942067D01*
X66184062Y-43958612D01*
X66167517Y-43969668D01*
X66148000Y-43973550D01*
X65248000Y-43973550D01*
X65228483Y-43969668D01*
X65211938Y-43958612D01*
X65200882Y-43942067D01*
X65197000Y-43922550D01*
X65197000Y-43022550D01*
X65200882Y-43003033D01*
X65211938Y-42986488D01*
X65228483Y-42975432D01*
X65248000Y-42971550D01*
X66148000Y-42971550D01*
X66167517Y-42975432D01*
G37*
G36*
X67437517Y-42975432D02*
G01*
X67454062Y-42986488D01*
X67465118Y-43003033D01*
X67469000Y-43022550D01*
X67469000Y-43922550D01*
X67465118Y-43942067D01*
X67454062Y-43958612D01*
X67437517Y-43969668D01*
X67418000Y-43973550D01*
X66518000Y-43973550D01*
X66498483Y-43969668D01*
X66481938Y-43958612D01*
X66470882Y-43942067D01*
X66467000Y-43922550D01*
X66467000Y-43022550D01*
X66470882Y-43003033D01*
X66481938Y-42986488D01*
X66498483Y-42975432D01*
X66518000Y-42971550D01*
X67418000Y-42971550D01*
X67437517Y-42975432D01*
G37*
G36*
X68707517Y-42975432D02*
G01*
X68724062Y-42986488D01*
X68735118Y-43003033D01*
X68739000Y-43022550D01*
X68739000Y-43922550D01*
X68735118Y-43942067D01*
X68724062Y-43958612D01*
X68707517Y-43969668D01*
X68688000Y-43973550D01*
X67788000Y-43973550D01*
X67768483Y-43969668D01*
X67751938Y-43958612D01*
X67740882Y-43942067D01*
X67737000Y-43922550D01*
X67737000Y-43022550D01*
X67740882Y-43003033D01*
X67751938Y-42986488D01*
X67768483Y-42975432D01*
X67788000Y-42971550D01*
X68688000Y-42971550D01*
X68707517Y-42975432D01*
G37*
G36*
X69977517Y-42975432D02*
G01*
X69994062Y-42986488D01*
X70005118Y-43003033D01*
X70009000Y-43022550D01*
X70009000Y-43922550D01*
X70005118Y-43942067D01*
X69994062Y-43958612D01*
X69977517Y-43969668D01*
X69958000Y-43973550D01*
X69058000Y-43973550D01*
X69038483Y-43969668D01*
X69021938Y-43958612D01*
X69010882Y-43942067D01*
X69007000Y-43922550D01*
X69007000Y-43022550D01*
X69010882Y-43003033D01*
X69021938Y-42986488D01*
X69038483Y-42975432D01*
X69058000Y-42971550D01*
X69958000Y-42971550D01*
X69977517Y-42975432D01*
G37*
G36*
X71247517Y-42975432D02*
G01*
X71264062Y-42986488D01*
X71275118Y-43003033D01*
X71279000Y-43022550D01*
X71279000Y-43922550D01*
X71275118Y-43942067D01*
X71264062Y-43958612D01*
X71247517Y-43969668D01*
X71228000Y-43973550D01*
X70328000Y-43973550D01*
X70308483Y-43969668D01*
X70291938Y-43958612D01*
X70280882Y-43942067D01*
X70277000Y-43922550D01*
X70277000Y-43022550D01*
X70280882Y-43003033D01*
X70291938Y-42986488D01*
X70308483Y-42975432D01*
X70328000Y-42971550D01*
X71228000Y-42971550D01*
X71247517Y-42975432D01*
G37*
G36*
X61487517Y-30995432D02*
G01*
X61504062Y-31006488D01*
X61515118Y-31023033D01*
X61519000Y-31042550D01*
X61519000Y-32042550D01*
X61515118Y-32062067D01*
X61504062Y-32078612D01*
X61487517Y-32089668D01*
X61481356Y-32090893D01*
X61451661Y-32110735D01*
X61451661Y-32244365D01*
X61481357Y-32264206D01*
X61487517Y-32265432D01*
X61504062Y-32276488D01*
X61515118Y-32293033D01*
X61519000Y-32312550D01*
X61519000Y-33312550D01*
X61515118Y-33332067D01*
X61504062Y-33348612D01*
X61487517Y-33359668D01*
X61481356Y-33360893D01*
X61451661Y-33380735D01*
X61451661Y-33514365D01*
X61481357Y-33534206D01*
X61487517Y-33535432D01*
X61504062Y-33546488D01*
X61515118Y-33563033D01*
X61519000Y-33582550D01*
X61519000Y-34582550D01*
X61515118Y-34602067D01*
X61504062Y-34618612D01*
X61487517Y-34629668D01*
X61481356Y-34630893D01*
X61451661Y-34650735D01*
X61451661Y-34784365D01*
X61481357Y-34804206D01*
X61487517Y-34805432D01*
X61504062Y-34816488D01*
X61515118Y-34833033D01*
X61519000Y-34852550D01*
X61519000Y-35852550D01*
X61515118Y-35872067D01*
X61504062Y-35888612D01*
X61487517Y-35899668D01*
X61481356Y-35900893D01*
X61451661Y-35920735D01*
X61451661Y-36054365D01*
X61481357Y-36074206D01*
X61487517Y-36075432D01*
X61504062Y-36086488D01*
X61515118Y-36103033D01*
X61519000Y-36122550D01*
X61519000Y-37122550D01*
X61515118Y-37142067D01*
X61504062Y-37158612D01*
X61487517Y-37169668D01*
X61481356Y-37170893D01*
X61451661Y-37190735D01*
X61451661Y-37324365D01*
X61481357Y-37344206D01*
X61487517Y-37345432D01*
X61504062Y-37356488D01*
X61515118Y-37373033D01*
X61519000Y-37392550D01*
X61519000Y-38392550D01*
X61515118Y-38412067D01*
X61504062Y-38428612D01*
X61487517Y-38439668D01*
X61481356Y-38440893D01*
X61451661Y-38460735D01*
X61451661Y-38594365D01*
X61481357Y-38614206D01*
X61487517Y-38615432D01*
X61504062Y-38626488D01*
X61515118Y-38643033D01*
X61519000Y-38662550D01*
X61519000Y-39662550D01*
X61515118Y-39682067D01*
X61504062Y-39698612D01*
X61487517Y-39709668D01*
X61481356Y-39710893D01*
X61451661Y-39730735D01*
X61451661Y-39864365D01*
X61481357Y-39884206D01*
X61487517Y-39885432D01*
X61504062Y-39896488D01*
X61515118Y-39913033D01*
X61519000Y-39932550D01*
X61519000Y-40932550D01*
X61515118Y-40952067D01*
X61504062Y-40968612D01*
X61487517Y-40979668D01*
X61481356Y-40980893D01*
X61451661Y-41000735D01*
X61451661Y-41134365D01*
X61481357Y-41154206D01*
X61487517Y-41155432D01*
X61504062Y-41166488D01*
X61515118Y-41183033D01*
X61519000Y-41202550D01*
X61519000Y-42202550D01*
X61515118Y-42222067D01*
X61504062Y-42238612D01*
X61487517Y-42249668D01*
X61481356Y-42250893D01*
X61451661Y-42270735D01*
X61451661Y-42404365D01*
X61481357Y-42424206D01*
X61487517Y-42425432D01*
X61504062Y-42436488D01*
X61515118Y-42453033D01*
X61519000Y-42472550D01*
X61519000Y-43472550D01*
X61515118Y-43492067D01*
X61504062Y-43508612D01*
X61487517Y-43519668D01*
X61468000Y-43523550D01*
X59468000Y-43523550D01*
X59448483Y-43519668D01*
X59431938Y-43508612D01*
X59420882Y-43492067D01*
X59417000Y-43472550D01*
X59417000Y-42472550D01*
X59420882Y-42453033D01*
X59431938Y-42436488D01*
X59448483Y-42425432D01*
X59454636Y-42424207D01*
X59484338Y-42404363D01*
X59484338Y-42270737D01*
X59454637Y-42250892D01*
X59448483Y-42249668D01*
X59431938Y-42238612D01*
X59420882Y-42222067D01*
X59417000Y-42202550D01*
X59417000Y-41202550D01*
X59420882Y-41183033D01*
X59431938Y-41166488D01*
X59448483Y-41155432D01*
X59454636Y-41154207D01*
X59484338Y-41134363D01*
X59484338Y-41000737D01*
X59454637Y-40980892D01*
X59448483Y-40979668D01*
X59431938Y-40968612D01*
X59420882Y-40952067D01*
X59417000Y-40932550D01*
X59417000Y-39932550D01*
X59420882Y-39913033D01*
X59431938Y-39896488D01*
X59448483Y-39885432D01*
X59454636Y-39884207D01*
X59484338Y-39864363D01*
X59484338Y-39730737D01*
X59454637Y-39710892D01*
X59448483Y-39709668D01*
X59431938Y-39698612D01*
X59420882Y-39682067D01*
X59417000Y-39662550D01*
X59417000Y-38662550D01*
X59420882Y-38643033D01*
X59431938Y-38626488D01*
X59448483Y-38615432D01*
X59454636Y-38614207D01*
X59484338Y-38594363D01*
X59484338Y-38460737D01*
X59454637Y-38440892D01*
X59448483Y-38439668D01*
X59431938Y-38428612D01*
X59420882Y-38412067D01*
X59417000Y-38392550D01*
X59417000Y-37392550D01*
X59420882Y-37373033D01*
X59431938Y-37356488D01*
X59448483Y-37345432D01*
X59454636Y-37344207D01*
X59484338Y-37324363D01*
X59484338Y-37190737D01*
X59454637Y-37170892D01*
X59448483Y-37169668D01*
X59431938Y-37158612D01*
X59420882Y-37142067D01*
X59417000Y-37122550D01*
X59417000Y-36122550D01*
X59420882Y-36103033D01*
X59431938Y-36086488D01*
X59448483Y-36075432D01*
X59454636Y-36074207D01*
X59484338Y-36054363D01*
X59484338Y-35920737D01*
X59454637Y-35900892D01*
X59448483Y-35899668D01*
X59431938Y-35888612D01*
X59420882Y-35872067D01*
X59417000Y-35852550D01*
X59417000Y-34852550D01*
X59420882Y-34833033D01*
X59431938Y-34816488D01*
X59448483Y-34805432D01*
X59454636Y-34804207D01*
X59484338Y-34784363D01*
X59484338Y-34650737D01*
X59454637Y-34630892D01*
X59448483Y-34629668D01*
X59431938Y-34618612D01*
X59420882Y-34602067D01*
X59417000Y-34582550D01*
X59417000Y-33582550D01*
X59420882Y-33563033D01*
X59431938Y-33546488D01*
X59448483Y-33535432D01*
X59454636Y-33534207D01*
X59484338Y-33514363D01*
X59484338Y-33380737D01*
X59454637Y-33360892D01*
X59448483Y-33359668D01*
X59431938Y-33348612D01*
X59420882Y-33332067D01*
X59417000Y-33312550D01*
X59417000Y-32312550D01*
X59420882Y-32293033D01*
X59431938Y-32276488D01*
X59448483Y-32265432D01*
X59454636Y-32264207D01*
X59484338Y-32244363D01*
X59484338Y-32110737D01*
X59454637Y-32090892D01*
X59448483Y-32089668D01*
X59431938Y-32078612D01*
X59420882Y-32062067D01*
X59417000Y-32042550D01*
X59417000Y-31042550D01*
X59420882Y-31023033D01*
X59431938Y-31006488D01*
X59448483Y-30995432D01*
X59468000Y-30991550D01*
X61468000Y-30991550D01*
X61487517Y-30995432D01*
G37*
G36*
X74487517Y-30995432D02*
G01*
X74504062Y-31006488D01*
X74515118Y-31023033D01*
X74519000Y-31042550D01*
X74519000Y-32042550D01*
X74515118Y-32062067D01*
X74504062Y-32078612D01*
X74487517Y-32089668D01*
X74481356Y-32090893D01*
X74451661Y-32110735D01*
X74451661Y-32244365D01*
X74481357Y-32264206D01*
X74487517Y-32265432D01*
X74504062Y-32276488D01*
X74515118Y-32293033D01*
X74519000Y-32312550D01*
X74519000Y-33312550D01*
X74515118Y-33332067D01*
X74504062Y-33348612D01*
X74487517Y-33359668D01*
X74481356Y-33360893D01*
X74451661Y-33380735D01*
X74451661Y-33514365D01*
X74481357Y-33534206D01*
X74487517Y-33535432D01*
X74504062Y-33546488D01*
X74515118Y-33563033D01*
X74519000Y-33582550D01*
X74519000Y-34582550D01*
X74515118Y-34602067D01*
X74504062Y-34618612D01*
X74487517Y-34629668D01*
X74481356Y-34630893D01*
X74451661Y-34650735D01*
X74451661Y-34784365D01*
X74481357Y-34804206D01*
X74487517Y-34805432D01*
X74504062Y-34816488D01*
X74515118Y-34833033D01*
X74519000Y-34852550D01*
X74519000Y-35852550D01*
X74515118Y-35872067D01*
X74504062Y-35888612D01*
X74487517Y-35899668D01*
X74481356Y-35900893D01*
X74451661Y-35920735D01*
X74451661Y-36054365D01*
X74481357Y-36074206D01*
X74487517Y-36075432D01*
X74504062Y-36086488D01*
X74515118Y-36103033D01*
X74519000Y-36122550D01*
X74519000Y-37122550D01*
X74515118Y-37142067D01*
X74504062Y-37158612D01*
X74487517Y-37169668D01*
X74481356Y-37170893D01*
X74451661Y-37190735D01*
X74451661Y-37324365D01*
X74481357Y-37344206D01*
X74487517Y-37345432D01*
X74504062Y-37356488D01*
X74515118Y-37373033D01*
X74519000Y-37392550D01*
X74519000Y-38392550D01*
X74515118Y-38412067D01*
X74504062Y-38428612D01*
X74487517Y-38439668D01*
X74481356Y-38440893D01*
X74451661Y-38460735D01*
X74451661Y-38594365D01*
X74481357Y-38614206D01*
X74487517Y-38615432D01*
X74504062Y-38626488D01*
X74515118Y-38643033D01*
X74519000Y-38662550D01*
X74519000Y-39662550D01*
X74515118Y-39682067D01*
X74504062Y-39698612D01*
X74487517Y-39709668D01*
X74481356Y-39710893D01*
X74451661Y-39730735D01*
X74451661Y-39864365D01*
X74481357Y-39884206D01*
X74487517Y-39885432D01*
X74504062Y-39896488D01*
X74515118Y-39913033D01*
X74519000Y-39932550D01*
X74519000Y-40932550D01*
X74515118Y-40952067D01*
X74504062Y-40968612D01*
X74487517Y-40979668D01*
X74481356Y-40980893D01*
X74451661Y-41000735D01*
X74451661Y-41134365D01*
X74481357Y-41154206D01*
X74487517Y-41155432D01*
X74504062Y-41166488D01*
X74515118Y-41183033D01*
X74519000Y-41202550D01*
X74519000Y-42202550D01*
X74515118Y-42222067D01*
X74504062Y-42238612D01*
X74487517Y-42249668D01*
X74481356Y-42250893D01*
X74451661Y-42270735D01*
X74451661Y-42404365D01*
X74481357Y-42424206D01*
X74487517Y-42425432D01*
X74504062Y-42436488D01*
X74515118Y-42453033D01*
X74519000Y-42472550D01*
X74519000Y-43472550D01*
X74515118Y-43492067D01*
X74504062Y-43508612D01*
X74487517Y-43519668D01*
X74468000Y-43523550D01*
X72468000Y-43523550D01*
X72448483Y-43519668D01*
X72431938Y-43508612D01*
X72420882Y-43492067D01*
X72417000Y-43472550D01*
X72417000Y-42472550D01*
X72420882Y-42453033D01*
X72431938Y-42436488D01*
X72448483Y-42425432D01*
X72454636Y-42424207D01*
X72484338Y-42404363D01*
X72484338Y-42270737D01*
X72454637Y-42250892D01*
X72448483Y-42249668D01*
X72431938Y-42238612D01*
X72420882Y-42222067D01*
X72417000Y-42202550D01*
X72417000Y-41202550D01*
X72420882Y-41183033D01*
X72431938Y-41166488D01*
X72448483Y-41155432D01*
X72454636Y-41154207D01*
X72484338Y-41134363D01*
X72484338Y-41000737D01*
X72454637Y-40980892D01*
X72448483Y-40979668D01*
X72431938Y-40968612D01*
X72420882Y-40952067D01*
X72417000Y-40932550D01*
X72417000Y-39932550D01*
X72420882Y-39913033D01*
X72431938Y-39896488D01*
X72448483Y-39885432D01*
X72454636Y-39884207D01*
X72484338Y-39864363D01*
X72484338Y-39730737D01*
X72454637Y-39710892D01*
X72448483Y-39709668D01*
X72431938Y-39698612D01*
X72420882Y-39682067D01*
X72417000Y-39662550D01*
X72417000Y-38662550D01*
X72420882Y-38643033D01*
X72431938Y-38626488D01*
X72448483Y-38615432D01*
X72454636Y-38614207D01*
X72484338Y-38594363D01*
X72484338Y-38460737D01*
X72454637Y-38440892D01*
X72448483Y-38439668D01*
X72431938Y-38428612D01*
X72420882Y-38412067D01*
X72417000Y-38392550D01*
X72417000Y-37392550D01*
X72420882Y-37373033D01*
X72431938Y-37356488D01*
X72448483Y-37345432D01*
X72454636Y-37344207D01*
X72484338Y-37324363D01*
X72484338Y-37190737D01*
X72454637Y-37170892D01*
X72448483Y-37169668D01*
X72431938Y-37158612D01*
X72420882Y-37142067D01*
X72417000Y-37122550D01*
X72417000Y-36122550D01*
X72420882Y-36103033D01*
X72431938Y-36086488D01*
X72448483Y-36075432D01*
X72454636Y-36074207D01*
X72484338Y-36054363D01*
X72484338Y-35920737D01*
X72454637Y-35900892D01*
X72448483Y-35899668D01*
X72431938Y-35888612D01*
X72420882Y-35872067D01*
X72417000Y-35852550D01*
X72417000Y-34852550D01*
X72420882Y-34833033D01*
X72431938Y-34816488D01*
X72448483Y-34805432D01*
X72454636Y-34804207D01*
X72484338Y-34784363D01*
X72484338Y-34650737D01*
X72454637Y-34630892D01*
X72448483Y-34629668D01*
X72431938Y-34618612D01*
X72420882Y-34602067D01*
X72417000Y-34582550D01*
X72417000Y-33582550D01*
X72420882Y-33563033D01*
X72431938Y-33546488D01*
X72448483Y-33535432D01*
X72454636Y-33534207D01*
X72484338Y-33514363D01*
X72484338Y-33380737D01*
X72454637Y-33360892D01*
X72448483Y-33359668D01*
X72431938Y-33348612D01*
X72420882Y-33332067D01*
X72417000Y-33312550D01*
X72417000Y-32312550D01*
X72420882Y-32293033D01*
X72431938Y-32276488D01*
X72448483Y-32265432D01*
X72454636Y-32264207D01*
X72484338Y-32244363D01*
X72484338Y-32110737D01*
X72454637Y-32090892D01*
X72448483Y-32089668D01*
X72431938Y-32078612D01*
X72420882Y-32062067D01*
X72417000Y-32042550D01*
X72417000Y-31042550D01*
X72420882Y-31023033D01*
X72431938Y-31006488D01*
X72448483Y-30995432D01*
X72468000Y-30991550D01*
X74468000Y-30991550D01*
X74487517Y-30995432D01*
G37*
G36*
X77419439Y-41781929D02*
G01*
X77448305Y-41781929D01*
X77481403Y-41790086D01*
X77524609Y-41795775D01*
X77554182Y-41808024D01*
X77577063Y-41813664D01*
X77611752Y-41831870D01*
X77657500Y-41850820D01*
X77678374Y-41866837D01*
X77694483Y-41875292D01*
X77727420Y-41904471D01*
X77771616Y-41938384D01*
X77784174Y-41954751D01*
X77793740Y-41963225D01*
X77821166Y-42002960D01*
X77859180Y-42052500D01*
X77864910Y-42066334D01*
X77869073Y-42072365D01*
X77887132Y-42119984D01*
X77914225Y-42185391D01*
X77915440Y-42194625D01*
X77916097Y-42196356D01*
X77921179Y-42238212D01*
X77933000Y-42328000D01*
X77921178Y-42417795D01*
X77916097Y-42459643D01*
X77915440Y-42461372D01*
X77914225Y-42470609D01*
X77887128Y-42536026D01*
X77869073Y-42583634D01*
X77864911Y-42589663D01*
X77859180Y-42603500D01*
X77821160Y-42653048D01*
X77793740Y-42692774D01*
X77784177Y-42701245D01*
X77771616Y-42717616D01*
X77727411Y-42751534D01*
X77694483Y-42780707D01*
X77678378Y-42789159D01*
X77657500Y-42805180D01*
X77611743Y-42824132D01*
X77577063Y-42842335D01*
X77554187Y-42847973D01*
X77524609Y-42860225D01*
X77481401Y-42865913D01*
X77448305Y-42874071D01*
X77419439Y-42874071D01*
X77382000Y-42879000D01*
X77344561Y-42874071D01*
X77315695Y-42874071D01*
X77282597Y-42865913D01*
X77239391Y-42860225D01*
X77209814Y-42847973D01*
X77186936Y-42842335D01*
X77152251Y-42824130D01*
X77106500Y-42805180D01*
X77085623Y-42789161D01*
X77069516Y-42780707D01*
X77036580Y-42751529D01*
X76992384Y-42717616D01*
X76979824Y-42701248D01*
X76970259Y-42692774D01*
X76942830Y-42653035D01*
X76904820Y-42603500D01*
X76899090Y-42589666D01*
X76894926Y-42583634D01*
X76876859Y-42535998D01*
X76849775Y-42470609D01*
X76848559Y-42461376D01*
X76847902Y-42459643D01*
X76842809Y-42417697D01*
X76831000Y-42328000D01*
X76842807Y-42238310D01*
X76847902Y-42196356D01*
X76848559Y-42194621D01*
X76849775Y-42185391D01*
X76876855Y-42120012D01*
X76894926Y-42072365D01*
X76899091Y-42066330D01*
X76904820Y-42052500D01*
X76942823Y-42002973D01*
X76970259Y-41963225D01*
X76979827Y-41954748D01*
X76992384Y-41938384D01*
X77036572Y-41904477D01*
X77069516Y-41875292D01*
X77085627Y-41866835D01*
X77106500Y-41850820D01*
X77152242Y-41831872D01*
X77186936Y-41813664D01*
X77209818Y-41808024D01*
X77239391Y-41795775D01*
X77282595Y-41790086D01*
X77315695Y-41781929D01*
X77344561Y-41781929D01*
X77382000Y-41777000D01*
X77419439Y-41781929D01*
G37*
G36*
X71837517Y-40570432D02*
G01*
X71854062Y-40581488D01*
X71865118Y-40598033D01*
X71869000Y-40617550D01*
X71869000Y-41517550D01*
X71865118Y-41537067D01*
X71854062Y-41553612D01*
X71837517Y-41564668D01*
X71818000Y-41568550D01*
X70918000Y-41568550D01*
X70898483Y-41564668D01*
X70881938Y-41553612D01*
X70870882Y-41537067D01*
X70867000Y-41517550D01*
X70867000Y-40617550D01*
X70870882Y-40598033D01*
X70881938Y-40581488D01*
X70898483Y-40570432D01*
X70918000Y-40566550D01*
X71818000Y-40566550D01*
X71837517Y-40570432D01*
G37*
G36*
X77399439Y-39241929D02*
G01*
X77428305Y-39241929D01*
X77461403Y-39250086D01*
X77504609Y-39255775D01*
X77534182Y-39268024D01*
X77557063Y-39273664D01*
X77591752Y-39291870D01*
X77637500Y-39310820D01*
X77658374Y-39326837D01*
X77674483Y-39335292D01*
X77707420Y-39364471D01*
X77751616Y-39398384D01*
X77764174Y-39414751D01*
X77773740Y-39423225D01*
X77801166Y-39462960D01*
X77839180Y-39512500D01*
X77844910Y-39526334D01*
X77849073Y-39532365D01*
X77867132Y-39579984D01*
X77894225Y-39645391D01*
X77895440Y-39654625D01*
X77896097Y-39656356D01*
X77901179Y-39698212D01*
X77913000Y-39788000D01*
X77901178Y-39877795D01*
X77896097Y-39919643D01*
X77895440Y-39921372D01*
X77894225Y-39930609D01*
X77867128Y-39996026D01*
X77849073Y-40043634D01*
X77844911Y-40049663D01*
X77839180Y-40063500D01*
X77801160Y-40113048D01*
X77773740Y-40152774D01*
X77764177Y-40161245D01*
X77751616Y-40177616D01*
X77707411Y-40211534D01*
X77674483Y-40240707D01*
X77658378Y-40249159D01*
X77637500Y-40265180D01*
X77591743Y-40284132D01*
X77557063Y-40302335D01*
X77534187Y-40307973D01*
X77504609Y-40320225D01*
X77461401Y-40325913D01*
X77428305Y-40334071D01*
X77399439Y-40334071D01*
X77362000Y-40339000D01*
X77324561Y-40334071D01*
X77295695Y-40334071D01*
X77262597Y-40325913D01*
X77219391Y-40320225D01*
X77189814Y-40307973D01*
X77166936Y-40302335D01*
X77132251Y-40284130D01*
X77086500Y-40265180D01*
X77065623Y-40249161D01*
X77049516Y-40240707D01*
X77016580Y-40211529D01*
X76972384Y-40177616D01*
X76959824Y-40161248D01*
X76950259Y-40152774D01*
X76922830Y-40113035D01*
X76884820Y-40063500D01*
X76879090Y-40049666D01*
X76874926Y-40043634D01*
X76856859Y-39995998D01*
X76829775Y-39930609D01*
X76828559Y-39921376D01*
X76827902Y-39919643D01*
X76822809Y-39877697D01*
X76811000Y-39788000D01*
X76822807Y-39698310D01*
X76827902Y-39656356D01*
X76828559Y-39654621D01*
X76829775Y-39645391D01*
X76856855Y-39580012D01*
X76874926Y-39532365D01*
X76879091Y-39526330D01*
X76884820Y-39512500D01*
X76922823Y-39462973D01*
X76950259Y-39423225D01*
X76959827Y-39414748D01*
X76972384Y-39398384D01*
X77016572Y-39364477D01*
X77049516Y-39335292D01*
X77065627Y-39326835D01*
X77086500Y-39310820D01*
X77132242Y-39291872D01*
X77166936Y-39273664D01*
X77189818Y-39268024D01*
X77219391Y-39255775D01*
X77262595Y-39250086D01*
X77295695Y-39241929D01*
X77324561Y-39241929D01*
X77362000Y-39237000D01*
X77399439Y-39241929D01*
G37*
G36*
X71837517Y-39300432D02*
G01*
X71854062Y-39311488D01*
X71865118Y-39328033D01*
X71869000Y-39347550D01*
X71869000Y-40247550D01*
X71865118Y-40267067D01*
X71854062Y-40283612D01*
X71837517Y-40294668D01*
X71818000Y-40298550D01*
X70918000Y-40298550D01*
X70898483Y-40294668D01*
X70881938Y-40283612D01*
X70870882Y-40267067D01*
X70867000Y-40247550D01*
X70867000Y-39347550D01*
X70870882Y-39328033D01*
X70881938Y-39311488D01*
X70898483Y-39300432D01*
X70918000Y-39296550D01*
X71818000Y-39296550D01*
X71837517Y-39300432D01*
G37*
G36*
X71837517Y-38030432D02*
G01*
X71854062Y-38041488D01*
X71865118Y-38058033D01*
X71869000Y-38077550D01*
X71869000Y-38977550D01*
X71865118Y-38997067D01*
X71854062Y-39013612D01*
X71837517Y-39024668D01*
X71818000Y-39028550D01*
X70918000Y-39028550D01*
X70898483Y-39024668D01*
X70881938Y-39013612D01*
X70870882Y-38997067D01*
X70867000Y-38977550D01*
X70867000Y-38077550D01*
X70870882Y-38058033D01*
X70881938Y-38041488D01*
X70898483Y-38030432D01*
X70918000Y-38026550D01*
X71818000Y-38026550D01*
X71837517Y-38030432D01*
G37*
G36*
X77419439Y-36701929D02*
G01*
X77448305Y-36701929D01*
X77481403Y-36710086D01*
X77524609Y-36715775D01*
X77554182Y-36728024D01*
X77577063Y-36733664D01*
X77611752Y-36751870D01*
X77657500Y-36770820D01*
X77678374Y-36786837D01*
X77694483Y-36795292D01*
X77727420Y-36824471D01*
X77771616Y-36858384D01*
X77784174Y-36874751D01*
X77793740Y-36883225D01*
X77821166Y-36922960D01*
X77859180Y-36972500D01*
X77864910Y-36986334D01*
X77869073Y-36992365D01*
X77887132Y-37039984D01*
X77914225Y-37105391D01*
X77915440Y-37114625D01*
X77916097Y-37116356D01*
X77921179Y-37158212D01*
X77933000Y-37248000D01*
X77921178Y-37337795D01*
X77916097Y-37379643D01*
X77915440Y-37381372D01*
X77914225Y-37390609D01*
X77887128Y-37456026D01*
X77869073Y-37503634D01*
X77864911Y-37509663D01*
X77859180Y-37523500D01*
X77821160Y-37573048D01*
X77793740Y-37612774D01*
X77784177Y-37621245D01*
X77771616Y-37637616D01*
X77727411Y-37671534D01*
X77694483Y-37700707D01*
X77678378Y-37709159D01*
X77657500Y-37725180D01*
X77611743Y-37744132D01*
X77577063Y-37762335D01*
X77554187Y-37767973D01*
X77524609Y-37780225D01*
X77481401Y-37785913D01*
X77448305Y-37794071D01*
X77419439Y-37794071D01*
X77382000Y-37799000D01*
X77344561Y-37794071D01*
X77315695Y-37794071D01*
X77282597Y-37785913D01*
X77239391Y-37780225D01*
X77209814Y-37767973D01*
X77186936Y-37762335D01*
X77152251Y-37744130D01*
X77106500Y-37725180D01*
X77085623Y-37709161D01*
X77069516Y-37700707D01*
X77036580Y-37671529D01*
X76992384Y-37637616D01*
X76979824Y-37621248D01*
X76970259Y-37612774D01*
X76942830Y-37573035D01*
X76904820Y-37523500D01*
X76899090Y-37509666D01*
X76894926Y-37503634D01*
X76876859Y-37455998D01*
X76849775Y-37390609D01*
X76848559Y-37381376D01*
X76847902Y-37379643D01*
X76842809Y-37337697D01*
X76831000Y-37248000D01*
X76842807Y-37158310D01*
X76847902Y-37116356D01*
X76848559Y-37114621D01*
X76849775Y-37105391D01*
X76876855Y-37040012D01*
X76894926Y-36992365D01*
X76899091Y-36986330D01*
X76904820Y-36972500D01*
X76942823Y-36922973D01*
X76970259Y-36883225D01*
X76979827Y-36874748D01*
X76992384Y-36858384D01*
X77036572Y-36824477D01*
X77069516Y-36795292D01*
X77085627Y-36786835D01*
X77106500Y-36770820D01*
X77152242Y-36751872D01*
X77186936Y-36733664D01*
X77209818Y-36728024D01*
X77239391Y-36715775D01*
X77282595Y-36710086D01*
X77315695Y-36701929D01*
X77344561Y-36701929D01*
X77382000Y-36697000D01*
X77419439Y-36701929D01*
G37*
G36*
X71837517Y-36760432D02*
G01*
X71854062Y-36771488D01*
X71865118Y-36788033D01*
X71869000Y-36807550D01*
X71869000Y-37707550D01*
X71865118Y-37727067D01*
X71854062Y-37743612D01*
X71837517Y-37754668D01*
X71818000Y-37758550D01*
X70918000Y-37758550D01*
X70898483Y-37754668D01*
X70881938Y-37743612D01*
X70870882Y-37727067D01*
X70867000Y-37707550D01*
X70867000Y-36807550D01*
X70870882Y-36788033D01*
X70881938Y-36771488D01*
X70898483Y-36760432D01*
X70918000Y-36756550D01*
X71818000Y-36756550D01*
X71837517Y-36760432D01*
G37*
G36*
X71837517Y-35490432D02*
G01*
X71854062Y-35501488D01*
X71865118Y-35518033D01*
X71869000Y-35537550D01*
X71869000Y-36437550D01*
X71865118Y-36457067D01*
X71854062Y-36473612D01*
X71837517Y-36484668D01*
X71818000Y-36488550D01*
X70918000Y-36488550D01*
X70898483Y-36484668D01*
X70881938Y-36473612D01*
X70870882Y-36457067D01*
X70867000Y-36437550D01*
X70867000Y-35537550D01*
X70870882Y-35518033D01*
X70881938Y-35501488D01*
X70898483Y-35490432D01*
X70918000Y-35486550D01*
X71818000Y-35486550D01*
X71837517Y-35490432D01*
G37*
G36*
X77419439Y-34161929D02*
G01*
X77448305Y-34161929D01*
X77481403Y-34170086D01*
X77524609Y-34175775D01*
X77554182Y-34188024D01*
X77577063Y-34193664D01*
X77611752Y-34211870D01*
X77657500Y-34230820D01*
X77678374Y-34246837D01*
X77694483Y-34255292D01*
X77727420Y-34284471D01*
X77771616Y-34318384D01*
X77784174Y-34334751D01*
X77793740Y-34343225D01*
X77821166Y-34382960D01*
X77859180Y-34432500D01*
X77864910Y-34446334D01*
X77869073Y-34452365D01*
X77887132Y-34499984D01*
X77914225Y-34565391D01*
X77915440Y-34574625D01*
X77916097Y-34576356D01*
X77921179Y-34618212D01*
X77933000Y-34708000D01*
X77921178Y-34797795D01*
X77916097Y-34839643D01*
X77915440Y-34841372D01*
X77914225Y-34850609D01*
X77887128Y-34916026D01*
X77869073Y-34963634D01*
X77864911Y-34969663D01*
X77859180Y-34983500D01*
X77821160Y-35033048D01*
X77793740Y-35072774D01*
X77784177Y-35081245D01*
X77771616Y-35097616D01*
X77727411Y-35131534D01*
X77694483Y-35160707D01*
X77678378Y-35169159D01*
X77657500Y-35185180D01*
X77611743Y-35204132D01*
X77577063Y-35222335D01*
X77554187Y-35227973D01*
X77524609Y-35240225D01*
X77481401Y-35245913D01*
X77448305Y-35254071D01*
X77419439Y-35254071D01*
X77382000Y-35259000D01*
X77344561Y-35254071D01*
X77315695Y-35254071D01*
X77282597Y-35245913D01*
X77239391Y-35240225D01*
X77209814Y-35227973D01*
X77186936Y-35222335D01*
X77152251Y-35204130D01*
X77106500Y-35185180D01*
X77085623Y-35169161D01*
X77069516Y-35160707D01*
X77036580Y-35131529D01*
X76992384Y-35097616D01*
X76979824Y-35081248D01*
X76970259Y-35072774D01*
X76942830Y-35033035D01*
X76904820Y-34983500D01*
X76899090Y-34969666D01*
X76894926Y-34963634D01*
X76876859Y-34915998D01*
X76849775Y-34850609D01*
X76848559Y-34841376D01*
X76847902Y-34839643D01*
X76842809Y-34797697D01*
X76831000Y-34708000D01*
X76842807Y-34618310D01*
X76847902Y-34576356D01*
X76848559Y-34574621D01*
X76849775Y-34565391D01*
X76876855Y-34500012D01*
X76894926Y-34452365D01*
X76899091Y-34446330D01*
X76904820Y-34432500D01*
X76942823Y-34382973D01*
X76970259Y-34343225D01*
X76979827Y-34334748D01*
X76992384Y-34318384D01*
X77036572Y-34284477D01*
X77069516Y-34255292D01*
X77085627Y-34246835D01*
X77106500Y-34230820D01*
X77152242Y-34211872D01*
X77186936Y-34193664D01*
X77209818Y-34188024D01*
X77239391Y-34175775D01*
X77282595Y-34170086D01*
X77315695Y-34161929D01*
X77344561Y-34161929D01*
X77382000Y-34157000D01*
X77419439Y-34161929D01*
G37*
G36*
X71837517Y-34220432D02*
G01*
X71854062Y-34231488D01*
X71865118Y-34248033D01*
X71869000Y-34267550D01*
X71869000Y-35167550D01*
X71865118Y-35187067D01*
X71854062Y-35203612D01*
X71837517Y-35214668D01*
X71818000Y-35218550D01*
X70918000Y-35218550D01*
X70898483Y-35214668D01*
X70881938Y-35203612D01*
X70870882Y-35187067D01*
X70867000Y-35167550D01*
X70867000Y-34267550D01*
X70870882Y-34248033D01*
X70881938Y-34231488D01*
X70898483Y-34220432D01*
X70918000Y-34216550D01*
X71818000Y-34216550D01*
X71837517Y-34220432D01*
G37*
G36*
X71837517Y-32950432D02*
G01*
X71854062Y-32961488D01*
X71865118Y-32978033D01*
X71869000Y-32997550D01*
X71869000Y-33897550D01*
X71865118Y-33917067D01*
X71854062Y-33933612D01*
X71837517Y-33944668D01*
X71818000Y-33948550D01*
X70918000Y-33948550D01*
X70898483Y-33944668D01*
X70881938Y-33933612D01*
X70870882Y-33917067D01*
X70867000Y-33897550D01*
X70867000Y-32997550D01*
X70870882Y-32978033D01*
X70881938Y-32961488D01*
X70898483Y-32950432D01*
X70918000Y-32946550D01*
X71818000Y-32946550D01*
X71837517Y-32950432D01*
G37*
G36*
X58497517Y-32978882D02*
G01*
X58514062Y-32989938D01*
X58525118Y-33006483D01*
X58529000Y-33026000D01*
X58529000Y-33826000D01*
X58525118Y-33845517D01*
X58514062Y-33862062D01*
X58497517Y-33873118D01*
X58478000Y-33877000D01*
X57678000Y-33877000D01*
X57658483Y-33873118D01*
X57641938Y-33862062D01*
X57630882Y-33845517D01*
X57627000Y-33826000D01*
X57627000Y-33026000D01*
X57630882Y-33006483D01*
X57641938Y-32989938D01*
X57658483Y-32978882D01*
X57678000Y-32975000D01*
X58478000Y-32975000D01*
X58497517Y-32978882D01*
G37*
G36*
X77419439Y-31621929D02*
G01*
X77448305Y-31621929D01*
X77481403Y-31630086D01*
X77524609Y-31635775D01*
X77554182Y-31648024D01*
X77577063Y-31653664D01*
X77611752Y-31671870D01*
X77657500Y-31690820D01*
X77678374Y-31706837D01*
X77694483Y-31715292D01*
X77727420Y-31744471D01*
X77771616Y-31778384D01*
X77784174Y-31794751D01*
X77793740Y-31803225D01*
X77821166Y-31842960D01*
X77859180Y-31892500D01*
X77864910Y-31906334D01*
X77869073Y-31912365D01*
X77887132Y-31959984D01*
X77914225Y-32025391D01*
X77915440Y-32034625D01*
X77916097Y-32036356D01*
X77921179Y-32078212D01*
X77933000Y-32168000D01*
X77921178Y-32257795D01*
X77916097Y-32299643D01*
X77915440Y-32301372D01*
X77914225Y-32310609D01*
X77887128Y-32376026D01*
X77869073Y-32423634D01*
X77864911Y-32429663D01*
X77859180Y-32443500D01*
X77821160Y-32493048D01*
X77793740Y-32532774D01*
X77784177Y-32541245D01*
X77771616Y-32557616D01*
X77727411Y-32591534D01*
X77694483Y-32620707D01*
X77678378Y-32629159D01*
X77657500Y-32645180D01*
X77611743Y-32664132D01*
X77577063Y-32682335D01*
X77554187Y-32687973D01*
X77524609Y-32700225D01*
X77481401Y-32705913D01*
X77448305Y-32714071D01*
X77419439Y-32714071D01*
X77382000Y-32719000D01*
X77344561Y-32714071D01*
X77315695Y-32714071D01*
X77282597Y-32705913D01*
X77239391Y-32700225D01*
X77209814Y-32687973D01*
X77186936Y-32682335D01*
X77152251Y-32664130D01*
X77106500Y-32645180D01*
X77085623Y-32629161D01*
X77069516Y-32620707D01*
X77036580Y-32591529D01*
X76992384Y-32557616D01*
X76979824Y-32541248D01*
X76970259Y-32532774D01*
X76942830Y-32493035D01*
X76904820Y-32443500D01*
X76899090Y-32429666D01*
X76894926Y-32423634D01*
X76876859Y-32375998D01*
X76849775Y-32310609D01*
X76848559Y-32301376D01*
X76847902Y-32299643D01*
X76842809Y-32257697D01*
X76831000Y-32168000D01*
X76842807Y-32078310D01*
X76847902Y-32036356D01*
X76848559Y-32034621D01*
X76849775Y-32025391D01*
X76876855Y-31960012D01*
X76894926Y-31912365D01*
X76899091Y-31906330D01*
X76904820Y-31892500D01*
X76942823Y-31842973D01*
X76970259Y-31803225D01*
X76979827Y-31794748D01*
X76992384Y-31778384D01*
X77036572Y-31744477D01*
X77069516Y-31715292D01*
X77085627Y-31706835D01*
X77106500Y-31690820D01*
X77152242Y-31671872D01*
X77186936Y-31653664D01*
X77209818Y-31648024D01*
X77239391Y-31635775D01*
X77282595Y-31630086D01*
X77315695Y-31621929D01*
X77344561Y-31621929D01*
X77382000Y-31617000D01*
X77419439Y-31621929D01*
G37*
G36*
X71837517Y-31680432D02*
G01*
X71854062Y-31691488D01*
X71865118Y-31708033D01*
X71869000Y-31727550D01*
X71869000Y-32627550D01*
X71865118Y-32647067D01*
X71854062Y-32663612D01*
X71837517Y-32674668D01*
X71818000Y-32678550D01*
X70918000Y-32678550D01*
X70898483Y-32674668D01*
X70881938Y-32663612D01*
X70870882Y-32647067D01*
X70867000Y-32627550D01*
X70867000Y-31727550D01*
X70870882Y-31708033D01*
X70881938Y-31691488D01*
X70898483Y-31680432D01*
X70918000Y-31676550D01*
X71818000Y-31676550D01*
X71837517Y-31680432D01*
G37*
G36*
X58497517Y-31478882D02*
G01*
X58514062Y-31489938D01*
X58525118Y-31506483D01*
X58529000Y-31526000D01*
X58529000Y-32326000D01*
X58525118Y-32345517D01*
X58514062Y-32362062D01*
X58497517Y-32373118D01*
X58478000Y-32377000D01*
X57678000Y-32377000D01*
X57658483Y-32373118D01*
X57641938Y-32362062D01*
X57630882Y-32345517D01*
X57627000Y-32326000D01*
X57627000Y-31526000D01*
X57630882Y-31506483D01*
X57641938Y-31489938D01*
X57658483Y-31478882D01*
X57678000Y-31475000D01*
X58478000Y-31475000D01*
X58497517Y-31478882D01*
G37*
G36*
X58258914Y-29138995D02*
G01*
X58274726Y-29145976D01*
X58282531Y-29147213D01*
X58315039Y-29163776D01*
X58360106Y-29183676D01*
X58438324Y-29261894D01*
X58458226Y-29306967D01*
X58474786Y-29339468D01*
X58476021Y-29347270D01*
X58483005Y-29363086D01*
X58491000Y-29432000D01*
X58491000Y-30332000D01*
X58483005Y-30400914D01*
X58476021Y-30416729D01*
X58474786Y-30424531D01*
X58458229Y-30457024D01*
X58438324Y-30502106D01*
X58360106Y-30580324D01*
X58315024Y-30600229D01*
X58282531Y-30616786D01*
X58274729Y-30618021D01*
X58258914Y-30625005D01*
X58190000Y-30633000D01*
X57665000Y-30633000D01*
X57596086Y-30625005D01*
X57580270Y-30618021D01*
X57572468Y-30616786D01*
X57539967Y-30600226D01*
X57494894Y-30580324D01*
X57416676Y-30502106D01*
X57396776Y-30457039D01*
X57380213Y-30424531D01*
X57378976Y-30416726D01*
X57371995Y-30400914D01*
X57364000Y-30332000D01*
X57364000Y-29432000D01*
X57371995Y-29363086D01*
X57378976Y-29347274D01*
X57380213Y-29339468D01*
X57396780Y-29306953D01*
X57416676Y-29261894D01*
X57494894Y-29183676D01*
X57539953Y-29163780D01*
X57572468Y-29147213D01*
X57580274Y-29145976D01*
X57596086Y-29138995D01*
X57665000Y-29131000D01*
X58190000Y-29131000D01*
X58258914Y-29138995D01*
G37*
G36*
X60083914Y-29138995D02*
G01*
X60099726Y-29145976D01*
X60107531Y-29147213D01*
X60140039Y-29163776D01*
X60185106Y-29183676D01*
X60263324Y-29261894D01*
X60283226Y-29306967D01*
X60299786Y-29339468D01*
X60301021Y-29347270D01*
X60308005Y-29363086D01*
X60316000Y-29432000D01*
X60316000Y-30332000D01*
X60308005Y-30400914D01*
X60301021Y-30416729D01*
X60299786Y-30424531D01*
X60283229Y-30457024D01*
X60263324Y-30502106D01*
X60185106Y-30580324D01*
X60140024Y-30600229D01*
X60107531Y-30616786D01*
X60099729Y-30618021D01*
X60083914Y-30625005D01*
X60015000Y-30633000D01*
X59490000Y-30633000D01*
X59421086Y-30625005D01*
X59405270Y-30618021D01*
X59397468Y-30616786D01*
X59364967Y-30600226D01*
X59319894Y-30580324D01*
X59241676Y-30502106D01*
X59221776Y-30457039D01*
X59205213Y-30424531D01*
X59203976Y-30416726D01*
X59196995Y-30400914D01*
X59189000Y-30332000D01*
X59189000Y-29432000D01*
X59196995Y-29363086D01*
X59203976Y-29347274D01*
X59205213Y-29339468D01*
X59221780Y-29306953D01*
X59241676Y-29261894D01*
X59319894Y-29183676D01*
X59364953Y-29163780D01*
X59397468Y-29147213D01*
X59405274Y-29145976D01*
X59421086Y-29138995D01*
X59490000Y-29131000D01*
X60015000Y-29131000D01*
X60083914Y-29138995D01*
G37*
G36*
X77419439Y-29081929D02*
G01*
X77448305Y-29081929D01*
X77481403Y-29090086D01*
X77524609Y-29095775D01*
X77554182Y-29108024D01*
X77577063Y-29113664D01*
X77611752Y-29131870D01*
X77657500Y-29150820D01*
X77678374Y-29166837D01*
X77694483Y-29175292D01*
X77727420Y-29204471D01*
X77771616Y-29238384D01*
X77784174Y-29254751D01*
X77793740Y-29263225D01*
X77821166Y-29302960D01*
X77859180Y-29352500D01*
X77864910Y-29366334D01*
X77869073Y-29372365D01*
X77887132Y-29419984D01*
X77914225Y-29485391D01*
X77915440Y-29494625D01*
X77916097Y-29496356D01*
X77921179Y-29538212D01*
X77933000Y-29628000D01*
X77921178Y-29717795D01*
X77916097Y-29759643D01*
X77915440Y-29761372D01*
X77914225Y-29770609D01*
X77887128Y-29836026D01*
X77869073Y-29883634D01*
X77864911Y-29889663D01*
X77859180Y-29903500D01*
X77821160Y-29953048D01*
X77793740Y-29992774D01*
X77784177Y-30001245D01*
X77771616Y-30017616D01*
X77727411Y-30051534D01*
X77694483Y-30080707D01*
X77678378Y-30089159D01*
X77657500Y-30105180D01*
X77611743Y-30124132D01*
X77577063Y-30142335D01*
X77554187Y-30147973D01*
X77524609Y-30160225D01*
X77481401Y-30165913D01*
X77448305Y-30174071D01*
X77419439Y-30174071D01*
X77382000Y-30179000D01*
X77344561Y-30174071D01*
X77315695Y-30174071D01*
X77282597Y-30165913D01*
X77239391Y-30160225D01*
X77209814Y-30147973D01*
X77186936Y-30142335D01*
X77152251Y-30124130D01*
X77106500Y-30105180D01*
X77085623Y-30089161D01*
X77069516Y-30080707D01*
X77036580Y-30051529D01*
X76992384Y-30017616D01*
X76979824Y-30001248D01*
X76970259Y-29992774D01*
X76942830Y-29953035D01*
X76904820Y-29903500D01*
X76899090Y-29889666D01*
X76894926Y-29883634D01*
X76876859Y-29835998D01*
X76849775Y-29770609D01*
X76848559Y-29761376D01*
X76847902Y-29759643D01*
X76842809Y-29717697D01*
X76831000Y-29628000D01*
X76842807Y-29538310D01*
X76847902Y-29496356D01*
X76848559Y-29494621D01*
X76849775Y-29485391D01*
X76876855Y-29420012D01*
X76894926Y-29372365D01*
X76899091Y-29366330D01*
X76904820Y-29352500D01*
X76942823Y-29302973D01*
X76970259Y-29263225D01*
X76979827Y-29254748D01*
X76992384Y-29238384D01*
X77036572Y-29204477D01*
X77069516Y-29175292D01*
X77085627Y-29166835D01*
X77106500Y-29150820D01*
X77152242Y-29131872D01*
X77186936Y-29113664D01*
X77209818Y-29108024D01*
X77239391Y-29095775D01*
X77282595Y-29090086D01*
X77315695Y-29081929D01*
X77344561Y-29081929D01*
X77382000Y-29077000D01*
X77419439Y-29081929D01*
G37*
M02*
