G04 #@! TF.GenerationSoftware,KiCad,Pcbnew,7.0.9*
G04 #@! TF.CreationDate,2023-12-13T18:27:34+01:00*
G04 #@! TF.ProjectId,parasite,70617261-7369-4746-952e-6b696361645f,2.0.0*
G04 #@! TF.SameCoordinates,Original*
G04 #@! TF.FileFunction,Copper,L1,Top*
G04 #@! TF.FilePolarity,Positive*
%FSLAX46Y46*%
G04 Gerber Fmt 4.6, Leading zero omitted, Abs format (unit mm)*
G04 Created by KiCad (PCBNEW 7.0.9) date 2023-12-13 18:27:34*
%MOMM*%
%LPD*%
G01*
G04 APERTURE LIST*
G04 Aperture macros list*
%AMRoundRect*
0 Rectangle with rounded corners*
0 $1 Rounding radius*
0 $2 $3 $4 $5 $6 $7 $8 $9 X,Y pos of 4 corners*
0 Add a 4 corners polygon primitive as box body*
4,1,4,$2,$3,$4,$5,$6,$7,$8,$9,$2,$3,0*
0 Add four circle primitives for the rounded corners*
1,1,$1+$1,$2,$3*
1,1,$1+$1,$4,$5*
1,1,$1+$1,$6,$7*
1,1,$1+$1,$8,$9*
0 Add four rect primitives between the rounded corners*
20,1,$1+$1,$2,$3,$4,$5,0*
20,1,$1+$1,$4,$5,$6,$7,0*
20,1,$1+$1,$6,$7,$8,$9,0*
20,1,$1+$1,$8,$9,$2,$3,0*%
G04 Aperture macros list end*
G04 #@! TA.AperFunction,SMDPad,CuDef*
%ADD10RoundRect,0.225000X0.225000X0.375000X-0.225000X0.375000X-0.225000X-0.375000X0.225000X-0.375000X0*%
G04 #@! TD*
G04 #@! TA.AperFunction,SMDPad,CuDef*
%ADD11RoundRect,0.147500X-0.172500X0.147500X-0.172500X-0.147500X0.172500X-0.147500X0.172500X0.147500X0*%
G04 #@! TD*
G04 #@! TA.AperFunction,SMDPad,CuDef*
%ADD12RoundRect,0.147500X0.147500X0.172500X-0.147500X0.172500X-0.147500X-0.172500X0.147500X-0.172500X0*%
G04 #@! TD*
G04 #@! TA.AperFunction,SMDPad,CuDef*
%ADD13R,0.900000X0.800000*%
G04 #@! TD*
G04 #@! TA.AperFunction,SMDPad,CuDef*
%ADD14RoundRect,0.147500X-0.147500X-0.172500X0.147500X-0.172500X0.147500X0.172500X-0.147500X0.172500X0*%
G04 #@! TD*
G04 #@! TA.AperFunction,SMDPad,CuDef*
%ADD15C,1.000000*%
G04 #@! TD*
G04 #@! TA.AperFunction,SMDPad,CuDef*
%ADD16RoundRect,0.147500X0.172500X-0.147500X0.172500X0.147500X-0.172500X0.147500X-0.172500X-0.147500X0*%
G04 #@! TD*
G04 #@! TA.AperFunction,SMDPad,CuDef*
%ADD17R,1.000000X1.800000*%
G04 #@! TD*
G04 #@! TA.AperFunction,SMDPad,CuDef*
%ADD18RoundRect,0.218750X0.218750X0.256250X-0.218750X0.256250X-0.218750X-0.256250X0.218750X-0.256250X0*%
G04 #@! TD*
G04 #@! TA.AperFunction,SMDPad,CuDef*
%ADD19RoundRect,0.087500X0.187500X0.087500X-0.187500X0.087500X-0.187500X-0.087500X0.187500X-0.087500X0*%
G04 #@! TD*
G04 #@! TA.AperFunction,SMDPad,CuDef*
%ADD20RoundRect,0.175000X0.175000X0.625000X-0.175000X0.625000X-0.175000X-0.625000X0.175000X-0.625000X0*%
G04 #@! TD*
G04 #@! TA.AperFunction,SMDPad,CuDef*
%ADD21R,2.000000X1.000000*%
G04 #@! TD*
G04 #@! TA.AperFunction,SMDPad,CuDef*
%ADD22R,1.000000X2.000000*%
G04 #@! TD*
G04 #@! TA.AperFunction,SMDPad,CuDef*
%ADD23R,0.900000X0.900000*%
G04 #@! TD*
G04 #@! TA.AperFunction,SMDPad,CuDef*
%ADD24R,0.800000X0.800000*%
G04 #@! TD*
G04 #@! TA.AperFunction,SMDPad,CuDef*
%ADD25R,1.700000X0.800000*%
G04 #@! TD*
G04 #@! TA.AperFunction,ViaPad*
%ADD26C,0.600000*%
G04 #@! TD*
G04 #@! TA.AperFunction,Conductor*
%ADD27C,0.500000*%
G04 #@! TD*
G04 #@! TA.AperFunction,Conductor*
%ADD28C,0.200000*%
G04 #@! TD*
G04 #@! TA.AperFunction,Conductor*
%ADD29C,10.000000*%
G04 #@! TD*
G04 APERTURE END LIST*
D10*
X68392000Y-55536000D03*
X65092000Y-55536000D03*
D11*
X69762000Y-58584000D03*
X69762000Y-59554000D03*
X71540000Y-58584000D03*
X71540000Y-59554000D03*
D12*
X62015000Y-57822000D03*
X61045000Y-57822000D03*
D13*
X65936000Y-59518000D03*
X65936000Y-57618000D03*
X63936000Y-58568000D03*
D14*
X61045000Y-55663000D03*
X62015000Y-55663000D03*
D15*
X77382000Y-34708000D03*
X77382000Y-37248000D03*
X67984000Y-58838000D03*
X61380000Y-59473000D03*
D12*
X61865000Y-50202000D03*
X60895000Y-50202000D03*
D16*
X70524000Y-55917000D03*
X70524000Y-54947000D03*
D17*
X69138500Y-49694000D03*
X66638500Y-49694000D03*
D18*
X61405500Y-52869000D03*
X59830500Y-52869000D03*
D11*
X68884500Y-52534000D03*
X68884500Y-53504000D03*
D16*
X67106500Y-53481000D03*
X67106500Y-52511000D03*
D11*
X74588000Y-52534000D03*
X74588000Y-53504000D03*
D16*
X76239000Y-53504000D03*
X76239000Y-52534000D03*
D19*
X75005000Y-56544000D03*
X75005000Y-55544000D03*
X73155000Y-55544000D03*
X73155000Y-56544000D03*
D20*
X74080000Y-56044000D03*
D15*
X77382000Y-42328000D03*
D21*
X60468000Y-31542550D03*
X60468000Y-32812550D03*
X60468000Y-34082550D03*
X60468000Y-35352550D03*
X60468000Y-36622550D03*
X60468000Y-37892550D03*
X60468000Y-39162550D03*
X60468000Y-40432550D03*
X60468000Y-41702550D03*
X60468000Y-42972550D03*
D22*
X62528000Y-45572550D03*
D23*
X63158000Y-43472550D03*
D22*
X63798000Y-45572550D03*
D23*
X64428000Y-43472550D03*
D22*
X65068000Y-45572550D03*
D23*
X65698000Y-43472550D03*
D22*
X66338000Y-45572550D03*
D23*
X66968000Y-43472550D03*
D22*
X67608000Y-45572550D03*
D23*
X68238000Y-43472550D03*
D22*
X68878000Y-45572550D03*
D23*
X69508000Y-43472550D03*
D22*
X70148000Y-45572550D03*
D23*
X70778000Y-43472550D03*
D22*
X71418000Y-45572550D03*
D21*
X73468000Y-42972550D03*
X73468000Y-41702550D03*
D23*
X71368000Y-41067550D03*
D21*
X73468000Y-40432550D03*
D23*
X71368000Y-39797550D03*
D21*
X73468000Y-39162550D03*
D23*
X71368000Y-38527550D03*
D21*
X73468000Y-37892550D03*
D23*
X71368000Y-37257550D03*
D21*
X73468000Y-36622550D03*
D23*
X71368000Y-35987550D03*
D21*
X73468000Y-35352550D03*
D23*
X71368000Y-34717550D03*
D21*
X73468000Y-34082550D03*
D23*
X71368000Y-33447550D03*
D21*
X73468000Y-32812550D03*
D23*
X71368000Y-32177550D03*
D21*
X73468000Y-31542550D03*
D12*
X59325000Y-29882000D03*
X58355000Y-29882000D03*
D24*
X58078000Y-33426000D03*
X58078000Y-31926000D03*
D15*
X77382000Y-32168000D03*
D25*
X72302000Y-48502000D03*
X72302000Y-51902000D03*
X63920000Y-48502000D03*
X63920000Y-51902000D03*
D15*
X77382000Y-29628000D03*
X77362000Y-39788000D03*
D26*
X60999000Y-36613000D03*
X74969000Y-63918000D03*
X75731000Y-63918000D03*
X60618000Y-64172000D03*
X58078000Y-42201000D03*
X77255000Y-63918000D03*
X64682000Y-32168000D03*
X62269000Y-51472000D03*
X58078000Y-43979000D03*
X70397000Y-51726000D03*
X59983000Y-36613000D03*
X69254000Y-38899000D03*
X76493000Y-63918000D03*
X58078000Y-41312000D03*
X59856000Y-64172000D03*
X70397000Y-48678000D03*
X61380000Y-64172000D03*
X67857000Y-32168000D03*
X68873000Y-32168000D03*
X66714000Y-32168000D03*
X70397000Y-50202000D03*
X65698000Y-32168000D03*
X69254000Y-37375000D03*
X62142000Y-64172000D03*
X70397000Y-49440000D03*
X69762000Y-32168000D03*
X70397000Y-50964000D03*
X58078000Y-43090000D03*
X69254000Y-38137000D03*
X60237000Y-47535000D03*
X62523000Y-34454000D03*
X67603000Y-45630000D03*
X75096000Y-33184000D03*
X67603000Y-44995000D03*
X75858000Y-50329000D03*
X76620000Y-58965000D03*
X70148000Y-44995000D03*
X70143000Y-45630000D03*
X76620000Y-54393000D03*
X65063000Y-45630000D03*
X59602000Y-48297000D03*
X60999000Y-46900000D03*
X62269000Y-36359000D03*
X75604000Y-49059000D03*
X73468000Y-36622550D03*
X73468000Y-37892550D03*
X76493000Y-48678000D03*
X73468000Y-42972550D03*
X76366000Y-44233000D03*
X75223000Y-36740000D03*
X75223000Y-34708000D03*
D27*
X70397000Y-48220572D02*
X70397000Y-48678000D01*
X73155000Y-56544000D02*
X72421000Y-56544000D01*
X63920000Y-51902000D02*
X63920000Y-53481000D01*
X62673000Y-53481000D02*
X63920000Y-53481000D01*
X67106500Y-53481000D02*
X68861500Y-53481000D01*
X72421000Y-56544000D02*
X70905000Y-55028000D01*
X62061000Y-52869000D02*
X61405500Y-52869000D01*
X68878000Y-45572550D02*
X68878000Y-46701572D01*
X63920000Y-53481000D02*
X67106500Y-53481000D01*
X62673000Y-53481000D02*
X62061000Y-52869000D01*
X68878000Y-46701572D02*
X70397000Y-48220572D01*
D28*
X59325000Y-29882000D02*
X62396000Y-29882000D01*
X62396000Y-29882000D02*
X64682000Y-32168000D01*
X68492000Y-57314000D02*
X69762000Y-58584000D01*
X60202000Y-47570000D02*
X60237000Y-47535000D01*
X68492000Y-55536000D02*
X66968000Y-55536000D01*
X65530520Y-54098520D02*
X59434520Y-54098520D01*
X68492000Y-55536000D02*
X68492000Y-57314000D01*
X58986000Y-53650000D02*
X58986000Y-51834000D01*
X58986000Y-51834000D02*
X60202000Y-50618000D01*
X60237000Y-47535000D02*
X60364000Y-47662000D01*
X66968000Y-55536000D02*
X65530520Y-54098520D01*
X62151550Y-34082550D02*
X60468000Y-34082550D01*
X60202000Y-50618000D02*
X60202000Y-47570000D01*
X69762000Y-58584000D02*
X71286000Y-58584000D01*
X59434520Y-54098520D02*
X58986000Y-53650000D01*
X62523000Y-34454000D02*
X62151550Y-34082550D01*
X65698000Y-47554000D02*
X66638500Y-48494500D01*
X63983764Y-47154000D02*
X64383765Y-47554000D01*
X64383765Y-47554000D02*
X65698000Y-47554000D01*
X62528000Y-46772550D02*
X62909450Y-47154000D01*
X62528000Y-45572550D02*
X62528000Y-46772550D01*
X66638500Y-52043000D02*
X67106500Y-52511000D01*
X66638500Y-48494500D02*
X66638500Y-49694000D01*
X66638500Y-49694000D02*
X66638500Y-52043000D01*
X62909450Y-47154000D02*
X63983764Y-47154000D01*
X64549450Y-47154000D02*
X67709685Y-47154000D01*
X63798000Y-45572550D02*
X63798000Y-46402550D01*
X69138500Y-49694000D02*
X69138500Y-52280000D01*
X69138500Y-48582815D02*
X69138500Y-49694000D01*
X68884500Y-52534000D02*
X69138500Y-52280000D01*
X67709685Y-47154000D02*
X69138500Y-48582815D01*
X63798000Y-46402550D02*
X64549450Y-47154000D01*
X59830500Y-52869000D02*
X59830500Y-52236500D01*
X59830500Y-52236500D02*
X61865000Y-50202000D01*
D27*
X75350000Y-57568000D02*
X75096000Y-57568000D01*
D28*
X74588000Y-53504000D02*
X75207520Y-52884480D01*
D27*
X71794000Y-57187000D02*
X71794000Y-57568000D01*
X71794000Y-57568000D02*
X74239204Y-57568000D01*
X75096000Y-57568000D02*
X75096000Y-56635000D01*
D28*
X67603000Y-44377550D02*
X67603000Y-44995000D01*
X70148000Y-44372550D02*
X70048489Y-44273039D01*
X70148000Y-45572550D02*
X70148000Y-44372550D01*
D27*
X76239000Y-54012000D02*
X76620000Y-54393000D01*
D28*
X75207520Y-52884480D02*
X75207520Y-50979480D01*
D27*
X76747000Y-58965000D02*
X75350000Y-57568000D01*
X76366000Y-33184000D02*
X77382000Y-32168000D01*
X75096000Y-57568000D02*
X74239204Y-57568000D01*
X70524000Y-55917000D02*
X71794000Y-57187000D01*
D28*
X70048489Y-44273039D02*
X67707511Y-44273039D01*
X75207520Y-50979480D02*
X75858000Y-50329000D01*
X67707511Y-44273039D02*
X67603000Y-44377550D01*
D27*
X76239000Y-53504000D02*
X76239000Y-54012000D01*
X76620000Y-58965000D02*
X76747000Y-58965000D01*
X75096000Y-33184000D02*
X76366000Y-33184000D01*
D28*
X64992000Y-56674000D02*
X65936000Y-57618000D01*
X62650000Y-85381000D02*
X67984000Y-90715000D01*
X67984000Y-101984000D02*
X68000000Y-102000000D01*
D29*
X68000000Y-102000000D02*
X68000000Y-142000000D01*
D28*
X67984000Y-58838000D02*
X67984000Y-74078000D01*
X62015000Y-55663000D02*
X62142000Y-55536000D01*
X67984000Y-90715000D02*
X67984000Y-101984000D01*
X62142000Y-55536000D02*
X64992000Y-55536000D01*
X64992000Y-55536000D02*
X64992000Y-56674000D01*
X62650000Y-79412000D02*
X62650000Y-85381000D01*
X66764000Y-57618000D02*
X67984000Y-58838000D01*
X67984000Y-74078000D02*
X62650000Y-79412000D01*
X65936000Y-57618000D02*
X66764000Y-57618000D01*
X64174000Y-57356000D02*
X64174000Y-57314000D01*
X62523000Y-57314000D02*
X62015000Y-57822000D01*
X65936000Y-59518000D02*
X65936000Y-59118000D01*
X65936000Y-59118000D02*
X64174000Y-57356000D01*
X64174000Y-57314000D02*
X62523000Y-57314000D01*
X58677511Y-39244511D02*
X57951000Y-38518000D01*
X57697000Y-38264000D02*
X57697000Y-33565000D01*
X59268000Y-40432550D02*
X58677511Y-39842061D01*
X58677511Y-39842061D02*
X58677511Y-39244511D01*
X60468000Y-40432550D02*
X59268000Y-40432550D01*
X57951000Y-38518000D02*
X57697000Y-38264000D01*
X58078000Y-31926000D02*
X58078000Y-30159000D01*
X58332000Y-34708000D02*
X58777511Y-34262489D01*
X58777511Y-34262489D02*
X58777511Y-32625511D01*
X58777511Y-32625511D02*
X58078000Y-31926000D01*
X60468000Y-39162550D02*
X59268000Y-39162550D01*
X58332000Y-38226550D02*
X58332000Y-34708000D01*
X59268000Y-39162550D02*
X58332000Y-38226550D01*
X58078000Y-30159000D02*
X58355000Y-29882000D01*
X59729000Y-48424000D02*
X59602000Y-48297000D01*
X61380000Y-59473000D02*
X60872000Y-58965000D01*
X59602000Y-50456000D02*
X59602000Y-48297000D01*
X61045000Y-57822000D02*
X61045000Y-55663000D01*
X58586000Y-54012000D02*
X58586000Y-51472000D01*
X61045000Y-55663000D02*
X60237000Y-55663000D01*
X58586000Y-51472000D02*
X59602000Y-50456000D01*
X60872000Y-58965000D02*
X60872000Y-57995000D01*
X60237000Y-55663000D02*
X58586000Y-54012000D01*
X60872000Y-57995000D02*
X61045000Y-57822000D01*
X61262550Y-35352550D02*
X62269000Y-36359000D01*
X61022000Y-46923000D02*
X60999000Y-46900000D01*
X60999000Y-46900000D02*
X60999000Y-50098000D01*
X60999000Y-50098000D02*
X60895000Y-50202000D01*
X60468000Y-35352550D02*
X61262550Y-35352550D01*
X73155000Y-53967000D02*
X73155000Y-55544000D01*
X74588000Y-50075000D02*
X75604000Y-49059000D01*
X74588000Y-52534000D02*
X74588000Y-50075000D01*
X74588000Y-52534000D02*
X73155000Y-53967000D01*
X76239000Y-52534000D02*
X76493000Y-52280000D01*
X75619480Y-53153520D02*
X75619480Y-54929520D01*
X76239000Y-52534000D02*
X75619480Y-53153520D01*
X75619480Y-54929520D02*
X75005000Y-55544000D01*
X76493000Y-52280000D02*
X76493000Y-48678000D01*
X77382000Y-42328000D02*
X77382000Y-43217000D01*
X77382000Y-43217000D02*
X76366000Y-44233000D01*
X73468000Y-47336000D02*
X72302000Y-48502000D01*
X73468000Y-42972550D02*
X73468000Y-47336000D01*
X63470000Y-48502000D02*
X60468000Y-45500000D01*
X63920000Y-48502000D02*
X63470000Y-48502000D01*
X60468000Y-45500000D02*
X60468000Y-42972550D01*
X76737450Y-35352550D02*
X73468000Y-35352550D01*
X77382000Y-34708000D02*
X76737450Y-35352550D01*
X74597550Y-34082550D02*
X73468000Y-34082550D01*
X75223000Y-34708000D02*
X74597550Y-34082550D01*
X75731000Y-37248000D02*
X75223000Y-36740000D01*
X77382000Y-37248000D02*
X75731000Y-37248000D01*
X73943450Y-31542550D02*
X75858000Y-29628000D01*
X73468000Y-31542550D02*
X73943450Y-31542550D01*
X75858000Y-29628000D02*
X77382000Y-29628000D01*
G04 #@! TA.AperFunction,Conductor*
G36*
X77129958Y-30605424D02*
G01*
X77184299Y-30621908D01*
X77184305Y-30621908D01*
X77184307Y-30621909D01*
X77381997Y-30641380D01*
X77382000Y-30641380D01*
X77382003Y-30641380D01*
X77579692Y-30621909D01*
X77579692Y-30621908D01*
X77579701Y-30621908D01*
X77634041Y-30605424D01*
X77670611Y-30600000D01*
X78848500Y-30600000D01*
X78916621Y-30620002D01*
X78963114Y-30673658D01*
X78974500Y-30726000D01*
X78974500Y-142937245D01*
X78954498Y-143005366D01*
X78937595Y-143026340D01*
X68983726Y-152980208D01*
X68980092Y-152983567D01*
X68823804Y-153117049D01*
X68807809Y-153128670D01*
X68638915Y-153232169D01*
X68621298Y-153241146D01*
X68438297Y-153316947D01*
X68419493Y-153323057D01*
X68226884Y-153369298D01*
X68207356Y-153372391D01*
X68009886Y-153387932D01*
X67990114Y-153387932D01*
X67792643Y-153372391D01*
X67773115Y-153369298D01*
X67580506Y-153323057D01*
X67561702Y-153316947D01*
X67378701Y-153241146D01*
X67361084Y-153232169D01*
X67192190Y-153128670D01*
X67176195Y-153117049D01*
X67019902Y-152983563D01*
X67016281Y-152980216D01*
X62030568Y-147994503D01*
X57062405Y-143026340D01*
X57028379Y-142964028D01*
X57025500Y-142937245D01*
X57025500Y-68000000D01*
X59555352Y-68000000D01*
X59574292Y-68228575D01*
X59575056Y-68237788D01*
X59633625Y-68469072D01*
X59633628Y-68469079D01*
X59729469Y-68687575D01*
X59859969Y-68887321D01*
X60021561Y-69062857D01*
X60021565Y-69062861D01*
X60149690Y-69162585D01*
X60209852Y-69209411D01*
X60419692Y-69322970D01*
X60419693Y-69322970D01*
X60419694Y-69322971D01*
X60538176Y-69363645D01*
X60645360Y-69400442D01*
X60880702Y-69439714D01*
X60880706Y-69439714D01*
X61119294Y-69439714D01*
X61119298Y-69439714D01*
X61354640Y-69400442D01*
X61580308Y-69322970D01*
X61790148Y-69209411D01*
X61978433Y-69062862D01*
X62140030Y-68887321D01*
X62270530Y-68687576D01*
X62366373Y-68469076D01*
X62424945Y-68237781D01*
X62444648Y-68000000D01*
X62424945Y-67762219D01*
X62366373Y-67530924D01*
X62270530Y-67312424D01*
X62140030Y-67112678D01*
X61978438Y-66937142D01*
X61978434Y-66937138D01*
X61790148Y-66790589D01*
X61790147Y-66790588D01*
X61674960Y-66728253D01*
X61580308Y-66677030D01*
X61580306Y-66677029D01*
X61580305Y-66677028D01*
X61354644Y-66599559D01*
X61354637Y-66599557D01*
X61253917Y-66582750D01*
X61119298Y-66560286D01*
X60880702Y-66560286D01*
X60762925Y-66579939D01*
X60645362Y-66599557D01*
X60645355Y-66599559D01*
X60419694Y-66677028D01*
X60419692Y-66677030D01*
X60209852Y-66790588D01*
X60209851Y-66790589D01*
X60021565Y-66937138D01*
X60021561Y-66937142D01*
X59859969Y-67112678D01*
X59729469Y-67312424D01*
X59633628Y-67530920D01*
X59633625Y-67530927D01*
X59575056Y-67762211D01*
X59575055Y-67762217D01*
X59575055Y-67762219D01*
X59555352Y-68000000D01*
X57025500Y-68000000D01*
X57025500Y-38759638D01*
X57045502Y-38691517D01*
X57099158Y-38645024D01*
X57169432Y-38634920D01*
X57234012Y-38664414D01*
X57251459Y-38682929D01*
X57263013Y-38697987D01*
X57263015Y-38697989D01*
X57291651Y-38719962D01*
X57297844Y-38725393D01*
X57492523Y-38920072D01*
X57690971Y-39118520D01*
X58032106Y-39459655D01*
X58066132Y-39521967D01*
X58069011Y-39548750D01*
X58069011Y-39798049D01*
X58068471Y-39806280D01*
X58063761Y-39842059D01*
X58063761Y-39842063D01*
X58068766Y-39880081D01*
X58068768Y-39880102D01*
X58069011Y-39881946D01*
X58082119Y-39981517D01*
X58084673Y-40000912D01*
X58145986Y-40148935D01*
X58145991Y-40148943D01*
X58219036Y-40244135D01*
X58243525Y-40276049D01*
X58272162Y-40298023D01*
X58278355Y-40303454D01*
X58806605Y-40831704D01*
X58812037Y-40837898D01*
X58834013Y-40866537D01*
X58864140Y-40889654D01*
X58864152Y-40889664D01*
X58865927Y-40891026D01*
X58865929Y-40891028D01*
X58914541Y-40928329D01*
X58956408Y-40985667D01*
X58963115Y-41014821D01*
X58966853Y-41049585D01*
X58965265Y-41049755D01*
X58965265Y-41085341D01*
X58966853Y-41085512D01*
X58959500Y-41153900D01*
X58959500Y-42251199D01*
X58966853Y-42319588D01*
X58965265Y-42319758D01*
X58965265Y-42355341D01*
X58966853Y-42355512D01*
X58959500Y-42423900D01*
X58959500Y-43521199D01*
X58966009Y-43581746D01*
X58966011Y-43581754D01*
X59017110Y-43718752D01*
X59017112Y-43718757D01*
X59104738Y-43835811D01*
X59221792Y-43923437D01*
X59221794Y-43923438D01*
X59221796Y-43923439D01*
X59280875Y-43945474D01*
X59358795Y-43974538D01*
X59358803Y-43974540D01*
X59419350Y-43981049D01*
X59419355Y-43981049D01*
X59419362Y-43981050D01*
X59733500Y-43981050D01*
X59801621Y-44001052D01*
X59848114Y-44054708D01*
X59859500Y-44107050D01*
X59859500Y-45455988D01*
X59858960Y-45464219D01*
X59854250Y-45499998D01*
X59854250Y-45500001D01*
X59858680Y-45533650D01*
X59858680Y-45533656D01*
X59869419Y-45615230D01*
X59875161Y-45658848D01*
X59875161Y-45658849D01*
X59936475Y-45806874D01*
X59936480Y-45806882D01*
X60009525Y-45902074D01*
X60034014Y-45933988D01*
X60062651Y-45955962D01*
X60068844Y-45961393D01*
X60344811Y-46237360D01*
X60378837Y-46299672D01*
X60373772Y-46370487D01*
X60362403Y-46393491D01*
X60265958Y-46546981D01*
X60265958Y-46546982D01*
X60229764Y-46650417D01*
X60188385Y-46708108D01*
X60124945Y-46734008D01*
X60055957Y-46741782D01*
X60055950Y-46741783D01*
X59883984Y-46801957D01*
X59883981Y-46801958D01*
X59729720Y-46898887D01*
X59729718Y-46898888D01*
X59600888Y-47027718D01*
X59600887Y-47027720D01*
X59503958Y-47181981D01*
X59503957Y-47181984D01*
X59443783Y-47353950D01*
X59443782Y-47353957D01*
X59436008Y-47422945D01*
X59408504Y-47488397D01*
X59352417Y-47527764D01*
X59248982Y-47563958D01*
X59248981Y-47563958D01*
X59094720Y-47660887D01*
X59094718Y-47660888D01*
X58965888Y-47789718D01*
X58965887Y-47789720D01*
X58868958Y-47943981D01*
X58868957Y-47943984D01*
X58817016Y-48092425D01*
X58808783Y-48115953D01*
X58788384Y-48297000D01*
X58808783Y-48478047D01*
X58808783Y-48478049D01*
X58808784Y-48478050D01*
X58868957Y-48650015D01*
X58868958Y-48650018D01*
X58965883Y-48804273D01*
X58966001Y-48804421D01*
X58966047Y-48804534D01*
X58969653Y-48810273D01*
X58968648Y-48810904D01*
X58992844Y-48870148D01*
X58993500Y-48882993D01*
X58993500Y-50151759D01*
X58973498Y-50219880D01*
X58956595Y-50240855D01*
X58186848Y-51010601D01*
X58180647Y-51016039D01*
X58152013Y-51038012D01*
X58126460Y-51071311D01*
X58126440Y-51071339D01*
X58054474Y-51165126D01*
X58026879Y-51231751D01*
X57993161Y-51313151D01*
X57984960Y-51375449D01*
X57977500Y-51432115D01*
X57977500Y-51432120D01*
X57977500Y-51432121D01*
X57972250Y-51471999D01*
X57972250Y-51472000D01*
X57976960Y-51507779D01*
X57977500Y-51516011D01*
X57977500Y-53967988D01*
X57976960Y-53976219D01*
X57972250Y-54012000D01*
X57977500Y-54051879D01*
X57977500Y-54051885D01*
X57983640Y-54098520D01*
X57993162Y-54170851D01*
X58019679Y-54234869D01*
X58054475Y-54318874D01*
X58054480Y-54318882D01*
X58080095Y-54352263D01*
X58127523Y-54414072D01*
X58127525Y-54414074D01*
X58145702Y-54437763D01*
X58152014Y-54445988D01*
X58180651Y-54467962D01*
X58186844Y-54473393D01*
X59775605Y-56062154D01*
X59781037Y-56068348D01*
X59803012Y-56096986D01*
X59832836Y-56119871D01*
X59832873Y-56119901D01*
X59895475Y-56167937D01*
X59930124Y-56194524D01*
X60078149Y-56255838D01*
X60154426Y-56265880D01*
X60236999Y-56276751D01*
X60237000Y-56276751D01*
X60237001Y-56276751D01*
X60272789Y-56272040D01*
X60281020Y-56271500D01*
X60310500Y-56271500D01*
X60378621Y-56291502D01*
X60425114Y-56345158D01*
X60436500Y-56397500D01*
X60436500Y-57130584D01*
X60416498Y-57198705D01*
X60399595Y-57219679D01*
X60375042Y-57244231D01*
X60375036Y-57244238D01*
X60290669Y-57386895D01*
X60244428Y-57546057D01*
X60244426Y-57546069D01*
X60241500Y-57583250D01*
X60241501Y-58060748D01*
X60244426Y-58097934D01*
X60258497Y-58146365D01*
X60263500Y-58181518D01*
X60263500Y-58920988D01*
X60262960Y-58929219D01*
X60258250Y-58965000D01*
X60263244Y-59002936D01*
X60263247Y-59002966D01*
X60264095Y-59009406D01*
X60279161Y-59123849D01*
X60340475Y-59271874D01*
X60340480Y-59271881D01*
X60350891Y-59285450D01*
X60376490Y-59351671D01*
X60376320Y-59374501D01*
X60366620Y-59472995D01*
X60366620Y-59473003D01*
X60386090Y-59670694D01*
X60386091Y-59670700D01*
X60386092Y-59670701D01*
X60443759Y-59860804D01*
X60537405Y-60036004D01*
X60663432Y-60189568D01*
X60816996Y-60315595D01*
X60992196Y-60409241D01*
X61182299Y-60466908D01*
X61182303Y-60466908D01*
X61182305Y-60466909D01*
X61379997Y-60486380D01*
X61380000Y-60486380D01*
X61380003Y-60486380D01*
X61577694Y-60466909D01*
X61577695Y-60466908D01*
X61577701Y-60466908D01*
X61767804Y-60409241D01*
X61943004Y-60315595D01*
X62096568Y-60189568D01*
X62222595Y-60036004D01*
X62316241Y-59860804D01*
X62373908Y-59670701D01*
X62375075Y-59658858D01*
X62393380Y-59473003D01*
X62393380Y-59472996D01*
X62373909Y-59275305D01*
X62373908Y-59275303D01*
X62373908Y-59275299D01*
X62316241Y-59085196D01*
X62222595Y-58909996D01*
X62176068Y-58853302D01*
X62162773Y-58822000D01*
X62978000Y-58822000D01*
X62978000Y-59016597D01*
X62984505Y-59077093D01*
X63035555Y-59213964D01*
X63035555Y-59213965D01*
X63123095Y-59330904D01*
X63240034Y-59418444D01*
X63376906Y-59469494D01*
X63437402Y-59475999D01*
X63437415Y-59476000D01*
X63682000Y-59476000D01*
X63682000Y-58822000D01*
X62978000Y-58822000D01*
X62162773Y-58822000D01*
X62148314Y-58787958D01*
X62160295Y-58717979D01*
X62208207Y-58665587D01*
X62259652Y-58649024D01*
X62259599Y-58648731D01*
X62261826Y-58648324D01*
X62263584Y-58647758D01*
X62265937Y-58647573D01*
X62425100Y-58601332D01*
X62425102Y-58601330D01*
X62425104Y-58601330D01*
X62551635Y-58526500D01*
X62567763Y-58516962D01*
X62684962Y-58399763D01*
X62743547Y-58300699D01*
X62795439Y-58252248D01*
X62865290Y-58239543D01*
X62930921Y-58266618D01*
X62939399Y-58278791D01*
X62941095Y-58277096D01*
X62977999Y-58314000D01*
X64064000Y-58314000D01*
X64132121Y-58334002D01*
X64178614Y-58387658D01*
X64190000Y-58440000D01*
X64190000Y-59476000D01*
X64434585Y-59476000D01*
X64434597Y-59475999D01*
X64495093Y-59469494D01*
X64631964Y-59418444D01*
X64631965Y-59418444D01*
X64748903Y-59330904D01*
X64750631Y-59328597D01*
X64752941Y-59326867D01*
X64755277Y-59324532D01*
X64755612Y-59324867D01*
X64807467Y-59286050D01*
X64878283Y-59280984D01*
X64940595Y-59315009D01*
X64974620Y-59377321D01*
X64977500Y-59404105D01*
X64977500Y-59966649D01*
X64984009Y-60027196D01*
X64984011Y-60027204D01*
X65035110Y-60164202D01*
X65035112Y-60164207D01*
X65122738Y-60281261D01*
X65239792Y-60368887D01*
X65239794Y-60368888D01*
X65239796Y-60368889D01*
X65298875Y-60390924D01*
X65376795Y-60419988D01*
X65376803Y-60419990D01*
X65437350Y-60426499D01*
X65437355Y-60426499D01*
X65437362Y-60426500D01*
X65437368Y-60426500D01*
X66434632Y-60426500D01*
X66434638Y-60426500D01*
X66434645Y-60426499D01*
X66434649Y-60426499D01*
X66495196Y-60419990D01*
X66495199Y-60419989D01*
X66495201Y-60419989D01*
X66632204Y-60368889D01*
X66649696Y-60355795D01*
X66749261Y-60281261D01*
X66836887Y-60164207D01*
X66836887Y-60164206D01*
X66836889Y-60164204D01*
X66887989Y-60027201D01*
X66894500Y-59966638D01*
X66894500Y-59442097D01*
X66914502Y-59373976D01*
X66968158Y-59327483D01*
X67038432Y-59317379D01*
X67103012Y-59346873D01*
X67131621Y-59382700D01*
X67141405Y-59401004D01*
X67267432Y-59554568D01*
X67329435Y-59605453D01*
X67369402Y-59664126D01*
X67375500Y-59702849D01*
X67375500Y-73773760D01*
X67355498Y-73841881D01*
X67338595Y-73862855D01*
X62250852Y-78950598D01*
X62244651Y-78956036D01*
X62216011Y-78978014D01*
X62190460Y-79011311D01*
X62190440Y-79011339D01*
X62118332Y-79105312D01*
X62117685Y-79107031D01*
X62057162Y-79253149D01*
X62057162Y-79253150D01*
X62041500Y-79372115D01*
X62041500Y-79372120D01*
X62041500Y-79372121D01*
X62036250Y-79411999D01*
X62036250Y-79412000D01*
X62040960Y-79447779D01*
X62041500Y-79456011D01*
X62041500Y-85336988D01*
X62040960Y-85345219D01*
X62036250Y-85380998D01*
X62036250Y-85381002D01*
X62041255Y-85419020D01*
X62041257Y-85419041D01*
X62054608Y-85520455D01*
X62057162Y-85539851D01*
X62118475Y-85687874D01*
X62118480Y-85687882D01*
X62191525Y-85783074D01*
X62216014Y-85814988D01*
X62244651Y-85836962D01*
X62250844Y-85842393D01*
X66662048Y-90253597D01*
X67338595Y-90930144D01*
X67372621Y-90992456D01*
X67375500Y-91019239D01*
X67375500Y-96411955D01*
X67355498Y-96480076D01*
X67301842Y-96526569D01*
X67270794Y-96536143D01*
X66838436Y-96610278D01*
X66838430Y-96610279D01*
X66838427Y-96610280D01*
X66473713Y-96705244D01*
X66385523Y-96728207D01*
X66116005Y-96823435D01*
X65944268Y-96884114D01*
X65517816Y-97076882D01*
X65161872Y-97275723D01*
X65109247Y-97305122D01*
X64721509Y-97567188D01*
X64357394Y-97861189D01*
X64357391Y-97861192D01*
X64223453Y-97989560D01*
X64019526Y-98185008D01*
X63710327Y-98536326D01*
X63710325Y-98536329D01*
X63452629Y-98884757D01*
X63432036Y-98912601D01*
X63432037Y-98912601D01*
X63186667Y-99311107D01*
X62975969Y-99729000D01*
X62801473Y-100163249D01*
X62801473Y-100163250D01*
X62664435Y-100610727D01*
X62565838Y-101068217D01*
X62506394Y-101532428D01*
X62491500Y-101883047D01*
X62491500Y-142116953D01*
X62506394Y-142467572D01*
X62565838Y-142931783D01*
X62664435Y-143389273D01*
X62801473Y-143836750D01*
X62801473Y-143836751D01*
X62975969Y-144271000D01*
X63186667Y-144688893D01*
X63432037Y-145087399D01*
X63432036Y-145087399D01*
X63432039Y-145087403D01*
X63710325Y-145463671D01*
X63710327Y-145463673D01*
X63710327Y-145463674D01*
X64019526Y-145814992D01*
X64223453Y-146010439D01*
X64357391Y-146138808D01*
X64357394Y-146138810D01*
X64357394Y-146138811D01*
X64721509Y-146432812D01*
X65109247Y-146694878D01*
X65109249Y-146694879D01*
X65517816Y-146923118D01*
X65944268Y-147115886D01*
X66116005Y-147176564D01*
X66385523Y-147271793D01*
X66385531Y-147271795D01*
X66838427Y-147389720D01*
X66838430Y-147389720D01*
X66838436Y-147389722D01*
X67189912Y-147449987D01*
X67299691Y-147468811D01*
X67766002Y-147508500D01*
X68233998Y-147508500D01*
X68700309Y-147468811D01*
X68810087Y-147449987D01*
X69161564Y-147389722D01*
X69161569Y-147389720D01*
X69161573Y-147389720D01*
X69614469Y-147271795D01*
X69614468Y-147271795D01*
X69614477Y-147271793D01*
X69883994Y-147176564D01*
X70055732Y-147115886D01*
X70482184Y-146923118D01*
X70890751Y-146694879D01*
X70890749Y-146694879D01*
X70890753Y-146694878D01*
X71278491Y-146432812D01*
X71642606Y-146138811D01*
X71642606Y-146138810D01*
X71642609Y-146138808D01*
X71776546Y-146010439D01*
X71980474Y-145814992D01*
X72289673Y-145463674D01*
X72289673Y-145463673D01*
X72289675Y-145463671D01*
X72567961Y-145087403D01*
X72567960Y-145087403D01*
X72567964Y-145087399D01*
X72567963Y-145087399D01*
X72813333Y-144688893D01*
X73024031Y-144271000D01*
X73198527Y-143836751D01*
X73198527Y-143836750D01*
X73335565Y-143389273D01*
X73434162Y-142931783D01*
X73493606Y-142467572D01*
X73508500Y-142116953D01*
X73508500Y-101883047D01*
X73493606Y-101532428D01*
X73434162Y-101068217D01*
X73335565Y-100610727D01*
X73198527Y-100163250D01*
X73198527Y-100163249D01*
X73024031Y-99729000D01*
X72813333Y-99311107D01*
X72567963Y-98912601D01*
X72567964Y-98912601D01*
X72547370Y-98884757D01*
X72289675Y-98536329D01*
X72289673Y-98536326D01*
X71980474Y-98185008D01*
X71776546Y-97989560D01*
X71642609Y-97861192D01*
X71642606Y-97861189D01*
X71278491Y-97567188D01*
X70890753Y-97305122D01*
X70838127Y-97275723D01*
X70482184Y-97076882D01*
X70055732Y-96884114D01*
X69883994Y-96823435D01*
X69614477Y-96728207D01*
X69526286Y-96705244D01*
X69161573Y-96610280D01*
X69161569Y-96610279D01*
X69161564Y-96610278D01*
X68700266Y-96531181D01*
X68702410Y-96531457D01*
X68637401Y-96502920D01*
X68598141Y-96443766D01*
X68592500Y-96406489D01*
X68592500Y-90759011D01*
X68593040Y-90750779D01*
X68597750Y-90715000D01*
X68597750Y-90714999D01*
X68592500Y-90675121D01*
X68592500Y-90675120D01*
X68592500Y-90675115D01*
X68576838Y-90556150D01*
X68516312Y-90410027D01*
X68515665Y-90408307D01*
X68441163Y-90311216D01*
X68441154Y-90311205D01*
X68417988Y-90281013D01*
X68389346Y-90259035D01*
X68383153Y-90253604D01*
X63295405Y-85165856D01*
X63261379Y-85103544D01*
X63258500Y-85076761D01*
X63258500Y-79716238D01*
X63278502Y-79648117D01*
X63295400Y-79627148D01*
X68383160Y-74539387D01*
X68389341Y-74533966D01*
X68417987Y-74511987D01*
X68436163Y-74488298D01*
X68436170Y-74488291D01*
X68515519Y-74384882D01*
X68515524Y-74384876D01*
X68576838Y-74236851D01*
X68579391Y-74217456D01*
X68592500Y-74117885D01*
X68592500Y-74117879D01*
X68597750Y-74078000D01*
X68593040Y-74042219D01*
X68592500Y-74033988D01*
X68592500Y-68000000D01*
X73555352Y-68000000D01*
X73574292Y-68228575D01*
X73575056Y-68237788D01*
X73633625Y-68469072D01*
X73633628Y-68469079D01*
X73729469Y-68687575D01*
X73859969Y-68887321D01*
X74021561Y-69062857D01*
X74021565Y-69062861D01*
X74149690Y-69162585D01*
X74209852Y-69209411D01*
X74419692Y-69322970D01*
X74419693Y-69322970D01*
X74419694Y-69322971D01*
X74538176Y-69363645D01*
X74645360Y-69400442D01*
X74880702Y-69439714D01*
X74880706Y-69439714D01*
X75119294Y-69439714D01*
X75119298Y-69439714D01*
X75354640Y-69400442D01*
X75580308Y-69322970D01*
X75790148Y-69209411D01*
X75978433Y-69062862D01*
X76140030Y-68887321D01*
X76270530Y-68687576D01*
X76366373Y-68469076D01*
X76424945Y-68237781D01*
X76444648Y-68000000D01*
X76424945Y-67762219D01*
X76366373Y-67530924D01*
X76270530Y-67312424D01*
X76140030Y-67112678D01*
X75978438Y-66937142D01*
X75978434Y-66937138D01*
X75790148Y-66790589D01*
X75790147Y-66790588D01*
X75674960Y-66728253D01*
X75580308Y-66677030D01*
X75580306Y-66677029D01*
X75580305Y-66677028D01*
X75354644Y-66599559D01*
X75354637Y-66599557D01*
X75253917Y-66582750D01*
X75119298Y-66560286D01*
X74880702Y-66560286D01*
X74762925Y-66579939D01*
X74645362Y-66599557D01*
X74645355Y-66599559D01*
X74419694Y-66677028D01*
X74419692Y-66677030D01*
X74209852Y-66790588D01*
X74209851Y-66790589D01*
X74021565Y-66937138D01*
X74021561Y-66937142D01*
X73859969Y-67112678D01*
X73729469Y-67312424D01*
X73633628Y-67530920D01*
X73633625Y-67530927D01*
X73575056Y-67762211D01*
X73575055Y-67762217D01*
X73575055Y-67762219D01*
X73555352Y-68000000D01*
X68592500Y-68000000D01*
X68592500Y-59808000D01*
X68937837Y-59808000D01*
X68983131Y-59963902D01*
X69067436Y-60106453D01*
X69067439Y-60106457D01*
X69184542Y-60223560D01*
X69184546Y-60223563D01*
X69327098Y-60307869D01*
X69486143Y-60354076D01*
X69508000Y-60355795D01*
X69508000Y-59808000D01*
X68937837Y-59808000D01*
X68592500Y-59808000D01*
X68592500Y-59702849D01*
X68612502Y-59634728D01*
X68638560Y-59605455D01*
X68700568Y-59554568D01*
X68826595Y-59401004D01*
X68844982Y-59366603D01*
X68894734Y-59315956D01*
X68956104Y-59300000D01*
X69227614Y-59300000D01*
X69291753Y-59317547D01*
X69326895Y-59338330D01*
X69326898Y-59338330D01*
X69326900Y-59338332D01*
X69486063Y-59384573D01*
X69523253Y-59387500D01*
X69890000Y-59387499D01*
X69958120Y-59407501D01*
X70004613Y-59461156D01*
X70016000Y-59513499D01*
X70016000Y-60355794D01*
X70037860Y-60354075D01*
X70196901Y-60307869D01*
X70339453Y-60223563D01*
X70339457Y-60223560D01*
X70456560Y-60106457D01*
X70456565Y-60106450D01*
X70542547Y-59961065D01*
X70594440Y-59912612D01*
X70664290Y-59899907D01*
X70729921Y-59926983D01*
X70759453Y-59961065D01*
X70845434Y-60106450D01*
X70845439Y-60106457D01*
X70962542Y-60223560D01*
X70962546Y-60223563D01*
X71105098Y-60307869D01*
X71264143Y-60354076D01*
X71286000Y-60355795D01*
X71286000Y-59808000D01*
X71794000Y-59808000D01*
X71794000Y-60355794D01*
X71815860Y-60354075D01*
X71974901Y-60307869D01*
X72117453Y-60223563D01*
X72117457Y-60223560D01*
X72234560Y-60106457D01*
X72234563Y-60106453D01*
X72318868Y-59963902D01*
X72364163Y-59808000D01*
X71794000Y-59808000D01*
X71286000Y-59808000D01*
X71286000Y-59513499D01*
X71306002Y-59445378D01*
X71359658Y-59398885D01*
X71411996Y-59387499D01*
X71778746Y-59387499D01*
X71778748Y-59387499D01*
X71797341Y-59386036D01*
X71815937Y-59384573D01*
X71975100Y-59338332D01*
X71975102Y-59338330D01*
X71975104Y-59338330D01*
X72010247Y-59317547D01*
X72074386Y-59300000D01*
X72364163Y-59300000D01*
X72318869Y-59144099D01*
X72312678Y-59133631D01*
X72295218Y-59064815D01*
X72312678Y-59005349D01*
X72319332Y-58994100D01*
X72365573Y-58834937D01*
X72368500Y-58797747D01*
X72368499Y-58452499D01*
X72388501Y-58384380D01*
X72442156Y-58337887D01*
X72494499Y-58326500D01*
X74150548Y-58326500D01*
X74983629Y-58326500D01*
X75051750Y-58346502D01*
X75072724Y-58363405D01*
X75792661Y-59083342D01*
X75823759Y-59139609D01*
X75824446Y-59139369D01*
X75825859Y-59143407D01*
X75826406Y-59144397D01*
X75826782Y-59146046D01*
X75886957Y-59318015D01*
X75886958Y-59318018D01*
X75983887Y-59472279D01*
X75983888Y-59472281D01*
X76112718Y-59601111D01*
X76112720Y-59601112D01*
X76266981Y-59698041D01*
X76266982Y-59698041D01*
X76266985Y-59698043D01*
X76438953Y-59758217D01*
X76620000Y-59778616D01*
X76801047Y-59758217D01*
X76973015Y-59698043D01*
X76980091Y-59693597D01*
X77014518Y-59678575D01*
X77028949Y-59674709D01*
X77050266Y-59663213D01*
X77066969Y-59655718D01*
X77089732Y-59647435D01*
X77133842Y-59618423D01*
X77138548Y-59615612D01*
X77185019Y-59590557D01*
X77203114Y-59574452D01*
X77217627Y-59563316D01*
X77237874Y-59550001D01*
X77274106Y-59511595D01*
X77278040Y-59507774D01*
X77317476Y-59472681D01*
X77331372Y-59452834D01*
X77342922Y-59438655D01*
X77359553Y-59421029D01*
X77385962Y-59375284D01*
X77388893Y-59370684D01*
X77419178Y-59327435D01*
X77428118Y-59304929D01*
X77436092Y-59288456D01*
X77448209Y-59267472D01*
X77463360Y-59216859D01*
X77465145Y-59211723D01*
X77484642Y-59162650D01*
X77488152Y-59138684D01*
X77492115Y-59120813D01*
X77494204Y-59113834D01*
X77499062Y-59097609D01*
X77502131Y-59044896D01*
X77502687Y-59039452D01*
X77510341Y-58987211D01*
X77508229Y-58963081D01*
X77507963Y-58944783D01*
X77509372Y-58920597D01*
X77500205Y-58868609D01*
X77499487Y-58863157D01*
X77497286Y-58838000D01*
X77494887Y-58810573D01*
X77487268Y-58787581D01*
X77482787Y-58769827D01*
X77478583Y-58745983D01*
X77478582Y-58745981D01*
X77478582Y-58745979D01*
X77457671Y-58697503D01*
X77455717Y-58692367D01*
X77446843Y-58665587D01*
X77439114Y-58642261D01*
X77426395Y-58621640D01*
X77417946Y-58605410D01*
X77408352Y-58583168D01*
X77376828Y-58540823D01*
X77373741Y-58536274D01*
X77346031Y-58491351D01*
X77346030Y-58491349D01*
X77346028Y-58491347D01*
X77346025Y-58491343D01*
X77328910Y-58474229D01*
X77316936Y-58460375D01*
X77302469Y-58440942D01*
X77262021Y-58407002D01*
X77257978Y-58403297D01*
X75931908Y-57077227D01*
X75919936Y-57063375D01*
X75918876Y-57061951D01*
X75905469Y-57043942D01*
X75902280Y-57041266D01*
X75899506Y-57038938D01*
X75860181Y-56979828D01*
X75854500Y-56942419D01*
X75854500Y-56590817D01*
X75839079Y-56458887D01*
X75839078Y-56458885D01*
X75837406Y-56454292D01*
X75782059Y-56302225D01*
X75778436Y-56292270D01*
X75778435Y-56292268D01*
X75761079Y-56265880D01*
X75749941Y-56244858D01*
X75713106Y-56155928D01*
X75686077Y-56120705D01*
X75660475Y-56054485D01*
X75674739Y-55984936D01*
X75686069Y-55967304D01*
X75713105Y-55932072D01*
X75773160Y-55787087D01*
X75788500Y-55670566D01*
X75788500Y-55670552D01*
X75788770Y-55666443D01*
X75790462Y-55666554D01*
X75808502Y-55605117D01*
X75825400Y-55584147D01*
X76018635Y-55390911D01*
X76024817Y-55385489D01*
X76053467Y-55363507D01*
X76127495Y-55267033D01*
X76151004Y-55236396D01*
X76160023Y-55214620D01*
X76204567Y-55159342D01*
X76271930Y-55136919D01*
X76318046Y-55143910D01*
X76438953Y-55186217D01*
X76620000Y-55206616D01*
X76801047Y-55186217D01*
X76973015Y-55126043D01*
X77127281Y-55029111D01*
X77256111Y-54900281D01*
X77353043Y-54746015D01*
X77413217Y-54574047D01*
X77433616Y-54393000D01*
X77413217Y-54211953D01*
X77353043Y-54039985D01*
X77353041Y-54039982D01*
X77353041Y-54039981D01*
X77256112Y-53885720D01*
X77256111Y-53885718D01*
X77127285Y-53756892D01*
X77127281Y-53756889D01*
X77126463Y-53756375D01*
X77126047Y-53755905D01*
X77121751Y-53752479D01*
X77122351Y-53751726D01*
X77079425Y-53703197D01*
X77067499Y-53649691D01*
X77067499Y-53290254D01*
X77064573Y-53253063D01*
X77018332Y-53093900D01*
X77011969Y-53083142D01*
X76994508Y-53014327D01*
X77011970Y-52954857D01*
X77012517Y-52953932D01*
X77018332Y-52944100D01*
X77064573Y-52784937D01*
X77066435Y-52761270D01*
X77067500Y-52747751D01*
X77067499Y-52508187D01*
X77077091Y-52459966D01*
X77085838Y-52438850D01*
X77101500Y-52319885D01*
X77101500Y-52319877D01*
X77106750Y-52280000D01*
X77106750Y-52279998D01*
X77102040Y-52244219D01*
X77101500Y-52235988D01*
X77101500Y-49263993D01*
X77121502Y-49195872D01*
X77128999Y-49185421D01*
X77129104Y-49185287D01*
X77129111Y-49185281D01*
X77226043Y-49031015D01*
X77286217Y-48859047D01*
X77306616Y-48678000D01*
X77286217Y-48496953D01*
X77226043Y-48324985D01*
X77226041Y-48324982D01*
X77226041Y-48324981D01*
X77129112Y-48170720D01*
X77129111Y-48170718D01*
X77000281Y-48041888D01*
X77000279Y-48041887D01*
X76846018Y-47944958D01*
X76846015Y-47944957D01*
X76674050Y-47884784D01*
X76674049Y-47884783D01*
X76674047Y-47884783D01*
X76493000Y-47864384D01*
X76311953Y-47884783D01*
X76311950Y-47884783D01*
X76311949Y-47884784D01*
X76139984Y-47944957D01*
X76139981Y-47944958D01*
X75985720Y-48041887D01*
X75985718Y-48041888D01*
X75856892Y-48170714D01*
X75856890Y-48170717D01*
X75838474Y-48200024D01*
X75785293Y-48247060D01*
X75717683Y-48258192D01*
X75604001Y-48245384D01*
X75604000Y-48245384D01*
X75422953Y-48265783D01*
X75422950Y-48265783D01*
X75422949Y-48265784D01*
X75250984Y-48325957D01*
X75250981Y-48325958D01*
X75096720Y-48422887D01*
X75096718Y-48422888D01*
X74967888Y-48551718D01*
X74967887Y-48551720D01*
X74870958Y-48705981D01*
X74870957Y-48705984D01*
X74810783Y-48877950D01*
X74810782Y-48877957D01*
X74801278Y-48962298D01*
X74773774Y-49027750D01*
X74765166Y-49037283D01*
X74188852Y-49613598D01*
X74182651Y-49619036D01*
X74154011Y-49641014D01*
X74128460Y-49674311D01*
X74128440Y-49674339D01*
X74056474Y-49768126D01*
X74003918Y-49895011D01*
X73995162Y-49916146D01*
X73995161Y-49916149D01*
X73985937Y-49986214D01*
X73979500Y-50035115D01*
X73979500Y-50035120D01*
X73979500Y-50035121D01*
X73974250Y-50074999D01*
X73974250Y-50075000D01*
X73978960Y-50110779D01*
X73979500Y-50119011D01*
X73979500Y-51842584D01*
X73959498Y-51910705D01*
X73942595Y-51931679D01*
X73893042Y-51981231D01*
X73893039Y-51981235D01*
X73824177Y-52097673D01*
X73772284Y-52146125D01*
X73702433Y-52158830D01*
X73695573Y-52156000D01*
X72556000Y-52156000D01*
X72556000Y-52810000D01*
X73147260Y-52810000D01*
X73215381Y-52830002D01*
X73261874Y-52883658D01*
X73271978Y-52953932D01*
X73242484Y-53018512D01*
X73236368Y-53025081D01*
X72993903Y-53267547D01*
X72755852Y-53505598D01*
X72749651Y-53511036D01*
X72721011Y-53533014D01*
X72695460Y-53566311D01*
X72695440Y-53566339D01*
X72623473Y-53660127D01*
X72568999Y-53791646D01*
X72562162Y-53808148D01*
X72562161Y-53808149D01*
X72556659Y-53849948D01*
X72546500Y-53927115D01*
X72546500Y-53927120D01*
X72546500Y-53927121D01*
X72541250Y-53966999D01*
X72541250Y-53967000D01*
X72545960Y-54002779D01*
X72546500Y-54011011D01*
X72546500Y-54983350D01*
X72526498Y-55051471D01*
X72520462Y-55060054D01*
X72446899Y-55155921D01*
X72446894Y-55155929D01*
X72386839Y-55300914D01*
X72371500Y-55417431D01*
X72371500Y-55670568D01*
X72386839Y-55787085D01*
X72446894Y-55932070D01*
X72446899Y-55932078D01*
X72474237Y-55967705D01*
X72499838Y-56033925D01*
X72485574Y-56103474D01*
X72474239Y-56121111D01*
X72447329Y-56156181D01*
X72387327Y-56301042D01*
X72373374Y-56407026D01*
X72344652Y-56471954D01*
X72285386Y-56511045D01*
X72214395Y-56511890D01*
X72159357Y-56479676D01*
X71776667Y-56096986D01*
X71374015Y-55694334D01*
X71342115Y-55640394D01*
X71303332Y-55506900D01*
X71296676Y-55495646D01*
X71279218Y-55426831D01*
X71296679Y-55367367D01*
X71302870Y-55356899D01*
X71348163Y-55201000D01*
X71058386Y-55201000D01*
X70994247Y-55183453D01*
X70959104Y-55162669D01*
X70799942Y-55116428D01*
X70799938Y-55116427D01*
X70799937Y-55116427D01*
X70799935Y-55116426D01*
X70799930Y-55116426D01*
X70762749Y-55113500D01*
X70762747Y-55113500D01*
X70524000Y-55113500D01*
X70285252Y-55113501D01*
X70248064Y-55116426D01*
X70088895Y-55162669D01*
X70053753Y-55183453D01*
X69989614Y-55201000D01*
X69699837Y-55201000D01*
X69745130Y-55356901D01*
X69751322Y-55367370D01*
X69768781Y-55436186D01*
X69751326Y-55495641D01*
X69744667Y-55506902D01*
X69744665Y-55506906D01*
X69698429Y-55666054D01*
X69698426Y-55666069D01*
X69695500Y-55703251D01*
X69695501Y-56130748D01*
X69698426Y-56167935D01*
X69744669Y-56327104D01*
X69829036Y-56469761D01*
X69829042Y-56469768D01*
X69946231Y-56586957D01*
X69946238Y-56586963D01*
X70088895Y-56671330D01*
X70088898Y-56671330D01*
X70088900Y-56671332D01*
X70222395Y-56710115D01*
X70276336Y-56742017D01*
X70997983Y-57463664D01*
X71032009Y-57525976D01*
X71034675Y-57560086D01*
X71031628Y-57612398D01*
X71031628Y-57612403D01*
X71042873Y-57676177D01*
X71043404Y-57679804D01*
X71050920Y-57744112D01*
X71052613Y-57751251D01*
X71050914Y-57751653D01*
X71054825Y-57813358D01*
X71020296Y-57875393D01*
X70996067Y-57894030D01*
X70962238Y-57914036D01*
X70962231Y-57914042D01*
X70937679Y-57938595D01*
X70875367Y-57972621D01*
X70848584Y-57975500D01*
X70453416Y-57975500D01*
X70385295Y-57955498D01*
X70364321Y-57938595D01*
X70339768Y-57914042D01*
X70339761Y-57914036D01*
X70197104Y-57829669D01*
X70037942Y-57783428D01*
X70037938Y-57783427D01*
X70037937Y-57783427D01*
X70037935Y-57783426D01*
X70037930Y-57783426D01*
X70000749Y-57780500D01*
X70000747Y-57780500D01*
X69871239Y-57780500D01*
X69803118Y-57760498D01*
X69782144Y-57743595D01*
X69137405Y-57098856D01*
X69103379Y-57036544D01*
X69100500Y-57009761D01*
X69100500Y-56517015D01*
X69120502Y-56448894D01*
X69137400Y-56427924D01*
X69196285Y-56369040D01*
X69286302Y-56223101D01*
X69340236Y-56060336D01*
X69343035Y-56032936D01*
X69350500Y-55959880D01*
X69350500Y-55112119D01*
X69340236Y-55011666D01*
X69340236Y-55011664D01*
X69286302Y-54848899D01*
X69196285Y-54702960D01*
X69196284Y-54702959D01*
X69196279Y-54702953D01*
X69186326Y-54693000D01*
X69699837Y-54693000D01*
X70270000Y-54693000D01*
X70270000Y-54145204D01*
X70248144Y-54146923D01*
X70248143Y-54146923D01*
X70089098Y-54193130D01*
X69946546Y-54277436D01*
X69946542Y-54277439D01*
X69829439Y-54394542D01*
X69829436Y-54394546D01*
X69745131Y-54537097D01*
X69699837Y-54693000D01*
X69186326Y-54693000D01*
X69075046Y-54581720D01*
X69075040Y-54581715D01*
X69062608Y-54574047D01*
X69007796Y-54540238D01*
X68960320Y-54487454D01*
X68948917Y-54417379D01*
X68977210Y-54352263D01*
X69036215Y-54312781D01*
X69073945Y-54306999D01*
X69123204Y-54306999D01*
X69160356Y-54304076D01*
X69319401Y-54257869D01*
X69461953Y-54173563D01*
X69461957Y-54173560D01*
X69490315Y-54145202D01*
X70778000Y-54145202D01*
X70778000Y-54693000D01*
X71348163Y-54693000D01*
X71302868Y-54537097D01*
X71218563Y-54394546D01*
X71218560Y-54394542D01*
X71101457Y-54277439D01*
X71101453Y-54277436D01*
X70958901Y-54193130D01*
X70799860Y-54146924D01*
X70799855Y-54146923D01*
X70778000Y-54145202D01*
X69490315Y-54145202D01*
X69579060Y-54056457D01*
X69579063Y-54056453D01*
X69663368Y-53913902D01*
X69708663Y-53758000D01*
X68756500Y-53758000D01*
X68688379Y-53737998D01*
X68641886Y-53684342D01*
X68630500Y-53632000D01*
X68630500Y-53463499D01*
X68650502Y-53395378D01*
X68704158Y-53348885D01*
X68756496Y-53337499D01*
X69123246Y-53337499D01*
X69123248Y-53337499D01*
X69141841Y-53336036D01*
X69160437Y-53334573D01*
X69319600Y-53288332D01*
X69319602Y-53288330D01*
X69319604Y-53288330D01*
X69354747Y-53267547D01*
X69418886Y-53250000D01*
X69708663Y-53250000D01*
X69663369Y-53094099D01*
X69657178Y-53083631D01*
X69639718Y-53014815D01*
X69657178Y-52955349D01*
X69663832Y-52944100D01*
X69710073Y-52784937D01*
X69711935Y-52761270D01*
X69713000Y-52747751D01*
X69712999Y-52508187D01*
X69722591Y-52459966D01*
X69731338Y-52438850D01*
X69747000Y-52319885D01*
X69747000Y-52319877D01*
X69752250Y-52280000D01*
X69752250Y-52279998D01*
X69747540Y-52244219D01*
X69747000Y-52235988D01*
X69747000Y-52156000D01*
X70944000Y-52156000D01*
X70944000Y-52350597D01*
X70950505Y-52411093D01*
X71001555Y-52547964D01*
X71001555Y-52547965D01*
X71089095Y-52664904D01*
X71206034Y-52752444D01*
X71342906Y-52803494D01*
X71403402Y-52809999D01*
X71403415Y-52810000D01*
X72048000Y-52810000D01*
X72048000Y-52156000D01*
X70944000Y-52156000D01*
X69747000Y-52156000D01*
X69747000Y-51648000D01*
X70944000Y-51648000D01*
X72048000Y-51648000D01*
X72048000Y-50994000D01*
X72556000Y-50994000D01*
X72556000Y-51648000D01*
X73660000Y-51648000D01*
X73660000Y-51453414D01*
X73659999Y-51453402D01*
X73653494Y-51392906D01*
X73602444Y-51256035D01*
X73602444Y-51256034D01*
X73514904Y-51139095D01*
X73397965Y-51051555D01*
X73261093Y-51000505D01*
X73200597Y-50994000D01*
X72556000Y-50994000D01*
X72048000Y-50994000D01*
X71403402Y-50994000D01*
X71342906Y-51000505D01*
X71206035Y-51051555D01*
X71206034Y-51051555D01*
X71089095Y-51139095D01*
X71001555Y-51256034D01*
X71001555Y-51256035D01*
X70950505Y-51392906D01*
X70944000Y-51453402D01*
X70944000Y-51648000D01*
X69747000Y-51648000D01*
X69747000Y-51183733D01*
X69767002Y-51115612D01*
X69820658Y-51069119D01*
X69828941Y-51065687D01*
X69884704Y-51044889D01*
X70001761Y-50957261D01*
X70046900Y-50896963D01*
X70089387Y-50840207D01*
X70089387Y-50840206D01*
X70089389Y-50840204D01*
X70140489Y-50703201D01*
X70147000Y-50642638D01*
X70147000Y-48745362D01*
X70142767Y-48705984D01*
X70140490Y-48684803D01*
X70140488Y-48684795D01*
X70102658Y-48583372D01*
X70089389Y-48547796D01*
X70089388Y-48547794D01*
X70089387Y-48547792D01*
X70001761Y-48430738D01*
X69884707Y-48343112D01*
X69884702Y-48343110D01*
X69747704Y-48292011D01*
X69747696Y-48292009D01*
X69730127Y-48290121D01*
X69664535Y-48262952D01*
X69643637Y-48241551D01*
X69596978Y-48180744D01*
X69596974Y-48180740D01*
X69589285Y-48170720D01*
X69572486Y-48148827D01*
X69543846Y-48126850D01*
X69537653Y-48121419D01*
X68649487Y-47233253D01*
X68615461Y-47170941D01*
X68620526Y-47100126D01*
X68624000Y-47094720D01*
X68624000Y-45444550D01*
X68644002Y-45376429D01*
X68697658Y-45329936D01*
X68750000Y-45318550D01*
X69006000Y-45318550D01*
X69074121Y-45338552D01*
X69120614Y-45392208D01*
X69132000Y-45444550D01*
X69132000Y-47080550D01*
X69426585Y-47080550D01*
X69426597Y-47080549D01*
X69494931Y-47073202D01*
X69495127Y-47075031D01*
X69530817Y-47075031D01*
X69530961Y-47073697D01*
X69599350Y-47081049D01*
X69599355Y-47081049D01*
X69599362Y-47081050D01*
X69599368Y-47081050D01*
X70696632Y-47081050D01*
X70696638Y-47081050D01*
X70696645Y-47081049D01*
X70696649Y-47081049D01*
X70765039Y-47073697D01*
X70765210Y-47075292D01*
X70800790Y-47075292D01*
X70800961Y-47073697D01*
X70869350Y-47081049D01*
X70869355Y-47081049D01*
X70869362Y-47081050D01*
X70869368Y-47081050D01*
X71966632Y-47081050D01*
X71966638Y-47081050D01*
X71966645Y-47081049D01*
X71966649Y-47081049D01*
X72027196Y-47074540D01*
X72027199Y-47074539D01*
X72027201Y-47074539D01*
X72029459Y-47073697D01*
X72053001Y-47064916D01*
X72164204Y-47023439D01*
X72281261Y-46935811D01*
X72368889Y-46818754D01*
X72419989Y-46681751D01*
X72426500Y-46621188D01*
X72426500Y-44523912D01*
X72426499Y-44523900D01*
X72419990Y-44463353D01*
X72419988Y-44463345D01*
X72368889Y-44326347D01*
X72368887Y-44326342D01*
X72281260Y-44209287D01*
X72269758Y-44200677D01*
X72227212Y-44143841D01*
X72222148Y-44073025D01*
X72256174Y-44010713D01*
X72318486Y-43976689D01*
X72358737Y-43974532D01*
X72358797Y-43974538D01*
X72358799Y-43974539D01*
X72408241Y-43979854D01*
X72419352Y-43981049D01*
X72419353Y-43981049D01*
X72419362Y-43981050D01*
X72733500Y-43981050D01*
X72801621Y-44001052D01*
X72848114Y-44054708D01*
X72859500Y-44107050D01*
X72859500Y-47031761D01*
X72839498Y-47099882D01*
X72822595Y-47120856D01*
X72386856Y-47556595D01*
X72324544Y-47590621D01*
X72297761Y-47593500D01*
X71403350Y-47593500D01*
X71342803Y-47600009D01*
X71342795Y-47600011D01*
X71205797Y-47651110D01*
X71205792Y-47651112D01*
X71088738Y-47738738D01*
X71001112Y-47855792D01*
X71001110Y-47855797D01*
X70950011Y-47992795D01*
X70950009Y-47992803D01*
X70943500Y-48053350D01*
X70943500Y-48950649D01*
X70950009Y-49011196D01*
X70950011Y-49011204D01*
X71001110Y-49148202D01*
X71001112Y-49148207D01*
X71088738Y-49265261D01*
X71205792Y-49352887D01*
X71205794Y-49352888D01*
X71205796Y-49352889D01*
X71261056Y-49373500D01*
X71342795Y-49403988D01*
X71342803Y-49403990D01*
X71403350Y-49410499D01*
X71403355Y-49410499D01*
X71403362Y-49410500D01*
X71403368Y-49410500D01*
X73200632Y-49410500D01*
X73200638Y-49410500D01*
X73200645Y-49410499D01*
X73200649Y-49410499D01*
X73261196Y-49403990D01*
X73261199Y-49403989D01*
X73261201Y-49403989D01*
X73398204Y-49352889D01*
X73515261Y-49265261D01*
X73575029Y-49185421D01*
X73602887Y-49148207D01*
X73602887Y-49148206D01*
X73602889Y-49148204D01*
X73653989Y-49011201D01*
X73659247Y-48962298D01*
X73660499Y-48950649D01*
X73660500Y-48950632D01*
X73660500Y-48056238D01*
X73680502Y-47988117D01*
X73697399Y-47967148D01*
X73867159Y-47797388D01*
X73873341Y-47791966D01*
X73901987Y-47769987D01*
X73920163Y-47746298D01*
X73920170Y-47746291D01*
X73985702Y-47660889D01*
X73999524Y-47642876D01*
X74060838Y-47494851D01*
X74071857Y-47411149D01*
X74076500Y-47375885D01*
X74076500Y-47375879D01*
X74081750Y-47336000D01*
X74077040Y-47300219D01*
X74076500Y-47291988D01*
X74076500Y-44233000D01*
X75552384Y-44233000D01*
X75572783Y-44414047D01*
X75572783Y-44414049D01*
X75572784Y-44414050D01*
X75632957Y-44586015D01*
X75632958Y-44586018D01*
X75729887Y-44740279D01*
X75729888Y-44740281D01*
X75858718Y-44869111D01*
X75858720Y-44869112D01*
X76012981Y-44966041D01*
X76012982Y-44966041D01*
X76012985Y-44966043D01*
X76184953Y-45026217D01*
X76366000Y-45046616D01*
X76547047Y-45026217D01*
X76719015Y-44966043D01*
X76873281Y-44869111D01*
X77002111Y-44740281D01*
X77099043Y-44586015D01*
X77159217Y-44414047D01*
X77168719Y-44329702D01*
X77196221Y-44264251D01*
X77204822Y-44254725D01*
X77781160Y-43678387D01*
X77787341Y-43672966D01*
X77815987Y-43650987D01*
X77834163Y-43627298D01*
X77834170Y-43627291D01*
X77840477Y-43619072D01*
X77913524Y-43523876D01*
X77974838Y-43375851D01*
X77981458Y-43325565D01*
X77990500Y-43256885D01*
X77990500Y-43256879D01*
X77995750Y-43217000D01*
X77994428Y-43206959D01*
X78005364Y-43136812D01*
X78039410Y-43093117D01*
X78098568Y-43044568D01*
X78224595Y-42891004D01*
X78318241Y-42715804D01*
X78375908Y-42525701D01*
X78376415Y-42520561D01*
X78395380Y-42328003D01*
X78395380Y-42327996D01*
X78375909Y-42130305D01*
X78375908Y-42130303D01*
X78375908Y-42130299D01*
X78318241Y-41940196D01*
X78224595Y-41764996D01*
X78098568Y-41611432D01*
X77945004Y-41485405D01*
X77769804Y-41391759D01*
X77579701Y-41334092D01*
X77579700Y-41334091D01*
X77579694Y-41334090D01*
X77382003Y-41314620D01*
X77381997Y-41314620D01*
X77184305Y-41334090D01*
X76994195Y-41391759D01*
X76818995Y-41485405D01*
X76665432Y-41611432D01*
X76539405Y-41764995D01*
X76445759Y-41940195D01*
X76388090Y-42130305D01*
X76368620Y-42327996D01*
X76368620Y-42328003D01*
X76388090Y-42525694D01*
X76388091Y-42525700D01*
X76388092Y-42525701D01*
X76402034Y-42571661D01*
X76445759Y-42715804D01*
X76539405Y-42891004D01*
X76605808Y-42971916D01*
X76633562Y-43037263D01*
X76621580Y-43107242D01*
X76597504Y-43140945D01*
X76344283Y-43394166D01*
X76281971Y-43428192D01*
X76269298Y-43430278D01*
X76184957Y-43439782D01*
X76184950Y-43439783D01*
X76012984Y-43499957D01*
X76012981Y-43499958D01*
X75858720Y-43596887D01*
X75858718Y-43596888D01*
X75729888Y-43725718D01*
X75729887Y-43725720D01*
X75632958Y-43879981D01*
X75632957Y-43879984D01*
X75588803Y-44006171D01*
X75572783Y-44051953D01*
X75552384Y-44233000D01*
X74076500Y-44233000D01*
X74076500Y-44107050D01*
X74096502Y-44038929D01*
X74150158Y-43992436D01*
X74202500Y-43981050D01*
X74516632Y-43981050D01*
X74516638Y-43981050D01*
X74516645Y-43981049D01*
X74516649Y-43981049D01*
X74577196Y-43974540D01*
X74577199Y-43974539D01*
X74577201Y-43974539D01*
X74579459Y-43973697D01*
X74596045Y-43967510D01*
X74714204Y-43923439D01*
X74831261Y-43835811D01*
X74831262Y-43835810D01*
X74918887Y-43718757D01*
X74918887Y-43718756D01*
X74918889Y-43718754D01*
X74969989Y-43581751D01*
X74971301Y-43569554D01*
X74976499Y-43521199D01*
X74976500Y-43521182D01*
X74976500Y-42423917D01*
X74976499Y-42423900D01*
X74969147Y-42355511D01*
X74970742Y-42355339D01*
X74970742Y-42319760D01*
X74969147Y-42319589D01*
X74976499Y-42251199D01*
X74976500Y-42251182D01*
X74976500Y-41153917D01*
X74976499Y-41153900D01*
X74969147Y-41085511D01*
X74970742Y-41085339D01*
X74970742Y-41049760D01*
X74969147Y-41049589D01*
X74976499Y-40981199D01*
X74976500Y-40981182D01*
X74976500Y-40657956D01*
X76851252Y-40657956D01*
X76974391Y-40723776D01*
X77164393Y-40781414D01*
X77164404Y-40781416D01*
X77361997Y-40800877D01*
X77362003Y-40800877D01*
X77559595Y-40781416D01*
X77559606Y-40781414D01*
X77749608Y-40723776D01*
X77749612Y-40723775D01*
X77872747Y-40657956D01*
X77362001Y-40147210D01*
X77362000Y-40147210D01*
X76851252Y-40657956D01*
X74976500Y-40657956D01*
X74976500Y-39883917D01*
X74976499Y-39883900D01*
X74969147Y-39815511D01*
X74970742Y-39815339D01*
X74970742Y-39788003D01*
X76349123Y-39788003D01*
X76368583Y-39985595D01*
X76368585Y-39985606D01*
X76426223Y-40175608D01*
X76492042Y-40298746D01*
X77002788Y-39788001D01*
X77721210Y-39788001D01*
X78231956Y-40298747D01*
X78297775Y-40175612D01*
X78297776Y-40175608D01*
X78355414Y-39985606D01*
X78355416Y-39985595D01*
X78374877Y-39788003D01*
X78374877Y-39787996D01*
X78355416Y-39590404D01*
X78355414Y-39590393D01*
X78297776Y-39400391D01*
X78231956Y-39277252D01*
X77721210Y-39787999D01*
X77721210Y-39788001D01*
X77002788Y-39788001D01*
X77002790Y-39787999D01*
X76492042Y-39277251D01*
X76492041Y-39277252D01*
X76426225Y-39400385D01*
X76426219Y-39400400D01*
X76368585Y-39590393D01*
X76368583Y-39590404D01*
X76349123Y-39787996D01*
X76349123Y-39788003D01*
X74970742Y-39788003D01*
X74970742Y-39779760D01*
X74969147Y-39779589D01*
X74976499Y-39711199D01*
X74976500Y-39711182D01*
X74976500Y-38918042D01*
X76851251Y-38918042D01*
X77361999Y-39428790D01*
X77362000Y-39428790D01*
X77872746Y-38918042D01*
X77872747Y-38918042D01*
X77749608Y-38852223D01*
X77559606Y-38794585D01*
X77559595Y-38794583D01*
X77362003Y-38775123D01*
X77361997Y-38775123D01*
X77164404Y-38794583D01*
X77164393Y-38794585D01*
X76974400Y-38852219D01*
X76974385Y-38852225D01*
X76851252Y-38918041D01*
X76851251Y-38918042D01*
X74976500Y-38918042D01*
X74976500Y-38613917D01*
X74976499Y-38613900D01*
X74969147Y-38545511D01*
X74970742Y-38545339D01*
X74970742Y-38509760D01*
X74969147Y-38509589D01*
X74976499Y-38441199D01*
X74976500Y-38441182D01*
X74976500Y-37666836D01*
X74996502Y-37598715D01*
X75050158Y-37552222D01*
X75116598Y-37541627D01*
X75126291Y-37542719D01*
X75191743Y-37570218D01*
X75201283Y-37578832D01*
X75269605Y-37647154D01*
X75275037Y-37653348D01*
X75297012Y-37681986D01*
X75326836Y-37704871D01*
X75326847Y-37704880D01*
X75393713Y-37756188D01*
X75424119Y-37779520D01*
X75424122Y-37779521D01*
X75424125Y-37779524D01*
X75572150Y-37840838D01*
X75691115Y-37856500D01*
X75691122Y-37856500D01*
X75731000Y-37861750D01*
X75731000Y-37861749D01*
X75731001Y-37861750D01*
X75766781Y-37857040D01*
X75775012Y-37856500D01*
X76517150Y-37856500D01*
X76585271Y-37876502D01*
X76614546Y-37902563D01*
X76665432Y-37964568D01*
X76665434Y-37964570D01*
X76743835Y-38028912D01*
X76818996Y-38090595D01*
X76994196Y-38184241D01*
X77184299Y-38241908D01*
X77184303Y-38241908D01*
X77184305Y-38241909D01*
X77381997Y-38261380D01*
X77382000Y-38261380D01*
X77382003Y-38261380D01*
X77579694Y-38241909D01*
X77579695Y-38241908D01*
X77579701Y-38241908D01*
X77769804Y-38184241D01*
X77945004Y-38090595D01*
X78098568Y-37964568D01*
X78224595Y-37811004D01*
X78318241Y-37635804D01*
X78375908Y-37445701D01*
X78385934Y-37343912D01*
X78395380Y-37248003D01*
X78395380Y-37247996D01*
X78375909Y-37050305D01*
X78375908Y-37050303D01*
X78375908Y-37050299D01*
X78318241Y-36860196D01*
X78224595Y-36684996D01*
X78098568Y-36531432D01*
X77945004Y-36405405D01*
X77769804Y-36311759D01*
X77579701Y-36254092D01*
X77579700Y-36254091D01*
X77579694Y-36254090D01*
X77382003Y-36234620D01*
X77381997Y-36234620D01*
X77184305Y-36254090D01*
X76994195Y-36311759D01*
X76818995Y-36405405D01*
X76665434Y-36531429D01*
X76652860Y-36546751D01*
X76614547Y-36593435D01*
X76555872Y-36633402D01*
X76517150Y-36639500D01*
X76133803Y-36639500D01*
X76065682Y-36619498D01*
X76019189Y-36565842D01*
X76014874Y-36555115D01*
X76011945Y-36546745D01*
X75956043Y-36386985D01*
X75956041Y-36386982D01*
X75956041Y-36386981D01*
X75859112Y-36232720D01*
X75859111Y-36232718D01*
X75802538Y-36176145D01*
X75768512Y-36113833D01*
X75773577Y-36043018D01*
X75816124Y-35986182D01*
X75882644Y-35961371D01*
X75891633Y-35961050D01*
X76693438Y-35961050D01*
X76701669Y-35961590D01*
X76713999Y-35963212D01*
X76737450Y-35966300D01*
X76777330Y-35961050D01*
X76777335Y-35961050D01*
X76885704Y-35946783D01*
X76896301Y-35945388D01*
X77044326Y-35884074D01*
X77139522Y-35811027D01*
X77139522Y-35811026D01*
X77147736Y-35804724D01*
X77147743Y-35804717D01*
X77171437Y-35786537D01*
X77190089Y-35762228D01*
X77247423Y-35720362D01*
X77302399Y-35713539D01*
X77371665Y-35720362D01*
X77381999Y-35721380D01*
X77382000Y-35721380D01*
X77382003Y-35721380D01*
X77579694Y-35701909D01*
X77579695Y-35701908D01*
X77579701Y-35701908D01*
X77769804Y-35644241D01*
X77945004Y-35550595D01*
X78098568Y-35424568D01*
X78224595Y-35271004D01*
X78318241Y-35095804D01*
X78375908Y-34905701D01*
X78391830Y-34744050D01*
X78395380Y-34708003D01*
X78395380Y-34707996D01*
X78375909Y-34510305D01*
X78375908Y-34510303D01*
X78375908Y-34510299D01*
X78318241Y-34320196D01*
X78224595Y-34144996D01*
X78098568Y-33991432D01*
X77945004Y-33865405D01*
X77769804Y-33771759D01*
X77579701Y-33714092D01*
X77579700Y-33714091D01*
X77579694Y-33714090D01*
X77382003Y-33694620D01*
X77381996Y-33694620D01*
X77228915Y-33709696D01*
X77159162Y-33696467D01*
X77107634Y-33647627D01*
X77090691Y-33578681D01*
X77113713Y-33511521D01*
X77127465Y-33495214D01*
X77415901Y-33206778D01*
X77478211Y-33172754D01*
X77492642Y-33170482D01*
X77520598Y-33167729D01*
X77579694Y-33161909D01*
X77579695Y-33161908D01*
X77579701Y-33161908D01*
X77769804Y-33104241D01*
X77945004Y-33010595D01*
X78098568Y-32884568D01*
X78224595Y-32731004D01*
X78318241Y-32555804D01*
X78375908Y-32365701D01*
X78382702Y-32296726D01*
X78395380Y-32168003D01*
X78395380Y-32167996D01*
X78375909Y-31970305D01*
X78375908Y-31970303D01*
X78375908Y-31970299D01*
X78318241Y-31780196D01*
X78224595Y-31604996D01*
X78098568Y-31451432D01*
X77945004Y-31325405D01*
X77769804Y-31231759D01*
X77579701Y-31174092D01*
X77579700Y-31174091D01*
X77579694Y-31174090D01*
X77382003Y-31154620D01*
X77381997Y-31154620D01*
X77184305Y-31174090D01*
X76994195Y-31231759D01*
X76818995Y-31325405D01*
X76665432Y-31451432D01*
X76539405Y-31604995D01*
X76445759Y-31780194D01*
X76407314Y-31906931D01*
X76388092Y-31970299D01*
X76385494Y-31996668D01*
X76379517Y-32057354D01*
X76352934Y-32123186D01*
X76343220Y-32134097D01*
X76088724Y-32388595D01*
X76026412Y-32422620D01*
X75999628Y-32425500D01*
X75397670Y-32425500D01*
X75356055Y-32418429D01*
X75277050Y-32390784D01*
X75277049Y-32390783D01*
X75277047Y-32390783D01*
X75096000Y-32370384D01*
X75095998Y-32370384D01*
X75088968Y-32369592D01*
X75089271Y-32366902D01*
X75033006Y-32350382D01*
X74986513Y-32296726D01*
X74975849Y-32257852D01*
X74969147Y-32195511D01*
X74970742Y-32195339D01*
X74970742Y-32159760D01*
X74969147Y-32159589D01*
X74976499Y-32091199D01*
X74976500Y-32091182D01*
X74976500Y-31422239D01*
X74996502Y-31354118D01*
X75013405Y-31333144D01*
X75709644Y-30636905D01*
X75771956Y-30602879D01*
X75798739Y-30600000D01*
X77093389Y-30600000D01*
X77129958Y-30605424D01*
G37*
G04 #@! TD.AperFunction*
G04 #@! TA.AperFunction,Conductor*
G36*
X61816012Y-47709015D02*
G01*
X61822595Y-47715144D01*
X62524595Y-48417144D01*
X62558621Y-48479456D01*
X62561500Y-48506239D01*
X62561500Y-48950649D01*
X62568009Y-49011196D01*
X62568011Y-49011204D01*
X62619110Y-49148202D01*
X62619112Y-49148207D01*
X62706738Y-49265261D01*
X62823792Y-49352887D01*
X62823794Y-49352888D01*
X62823796Y-49352889D01*
X62879056Y-49373500D01*
X62960795Y-49403988D01*
X62960803Y-49403990D01*
X63021350Y-49410499D01*
X63021355Y-49410499D01*
X63021362Y-49410500D01*
X63021368Y-49410500D01*
X64818632Y-49410500D01*
X64818638Y-49410500D01*
X64818645Y-49410499D01*
X64818649Y-49410499D01*
X64879196Y-49403990D01*
X64879199Y-49403989D01*
X64879201Y-49403989D01*
X65016204Y-49352889D01*
X65133261Y-49265261D01*
X65193029Y-49185421D01*
X65220887Y-49148207D01*
X65220887Y-49148206D01*
X65220889Y-49148204D01*
X65271989Y-49011201D01*
X65277247Y-48962298D01*
X65278499Y-48950649D01*
X65278500Y-48950632D01*
X65278500Y-48299239D01*
X65298502Y-48231118D01*
X65352158Y-48184625D01*
X65422432Y-48174521D01*
X65487012Y-48204015D01*
X65493595Y-48210144D01*
X65671901Y-48388450D01*
X65705927Y-48450762D01*
X65700862Y-48521577D01*
X65691111Y-48539434D01*
X65691932Y-48539882D01*
X65687610Y-48547797D01*
X65636511Y-48684795D01*
X65636509Y-48684803D01*
X65630000Y-48745350D01*
X65630000Y-50642649D01*
X65636509Y-50703196D01*
X65636511Y-50703204D01*
X65687610Y-50840202D01*
X65687612Y-50840207D01*
X65775238Y-50957261D01*
X65892291Y-51044886D01*
X65892292Y-51044886D01*
X65892296Y-51044889D01*
X65948035Y-51065679D01*
X66004868Y-51108224D01*
X66029679Y-51174744D01*
X66030000Y-51183733D01*
X66030000Y-51998988D01*
X66029460Y-52007219D01*
X66024750Y-52042998D01*
X66024750Y-52043001D01*
X66029718Y-52080738D01*
X66029719Y-52080748D01*
X66032255Y-52100013D01*
X66045661Y-52201849D01*
X66106975Y-52349874D01*
X66106980Y-52349882D01*
X66107529Y-52350597D01*
X66180023Y-52445072D01*
X66180025Y-52445074D01*
X66185346Y-52452009D01*
X66204514Y-52476988D01*
X66228704Y-52495550D01*
X66270571Y-52552888D01*
X66278000Y-52595511D01*
X66278001Y-52724748D01*
X66280926Y-52761935D01*
X66327168Y-52921100D01*
X66333823Y-52932353D01*
X66351281Y-53001170D01*
X66333825Y-53060623D01*
X66327631Y-53071097D01*
X66282337Y-53227000D01*
X66572114Y-53227000D01*
X66636253Y-53244547D01*
X66671395Y-53265330D01*
X66671398Y-53265330D01*
X66671400Y-53265332D01*
X66830563Y-53311573D01*
X66867753Y-53314500D01*
X67234500Y-53314499D01*
X67302620Y-53334501D01*
X67349113Y-53388156D01*
X67360500Y-53440499D01*
X67360500Y-54282794D01*
X67382360Y-54281075D01*
X67541401Y-54234869D01*
X67683953Y-54150563D01*
X67683957Y-54150560D01*
X67801060Y-54033457D01*
X67801065Y-54033450D01*
X67880934Y-53898401D01*
X67932826Y-53849948D01*
X68002677Y-53837243D01*
X68068308Y-53864318D01*
X68101108Y-53907363D01*
X68101594Y-53907076D01*
X68104035Y-53911203D01*
X68105026Y-53912504D01*
X68105630Y-53913901D01*
X68189936Y-54056453D01*
X68189939Y-54056457D01*
X68307042Y-54173560D01*
X68307046Y-54173563D01*
X68339991Y-54193047D01*
X68388443Y-54244940D01*
X68401148Y-54314791D01*
X68374072Y-54380421D01*
X68315812Y-54420995D01*
X68275851Y-54427500D01*
X68118120Y-54427500D01*
X68017666Y-54437763D01*
X67854899Y-54491698D01*
X67708959Y-54581715D01*
X67708953Y-54581720D01*
X67587720Y-54702953D01*
X67587715Y-54702959D01*
X67497697Y-54848900D01*
X67494969Y-54854752D01*
X67448051Y-54908036D01*
X67380775Y-54927500D01*
X67272239Y-54927500D01*
X67204118Y-54907498D01*
X67183144Y-54890595D01*
X66793171Y-54500622D01*
X66759145Y-54438310D01*
X66764210Y-54367495D01*
X66806757Y-54310659D01*
X66832912Y-54300903D01*
X66852500Y-54282796D01*
X66852500Y-53735000D01*
X66282336Y-53735000D01*
X66260255Y-53764409D01*
X66203358Y-53806875D01*
X66132535Y-53811838D01*
X66070400Y-53777851D01*
X66044275Y-53751726D01*
X65991910Y-53699361D01*
X65986483Y-53693173D01*
X65964507Y-53664533D01*
X65932594Y-53640045D01*
X65932592Y-53640043D01*
X65891169Y-53608258D01*
X65837402Y-53567000D01*
X65837394Y-53566995D01*
X65689371Y-53505682D01*
X65688733Y-53505598D01*
X65669976Y-53503128D01*
X65634722Y-53498487D01*
X65568561Y-53489777D01*
X65568540Y-53489775D01*
X65530522Y-53484770D01*
X65530519Y-53484770D01*
X65494739Y-53489480D01*
X65486508Y-53490020D01*
X62443478Y-53490020D01*
X62375357Y-53470018D01*
X62328864Y-53416362D01*
X62318760Y-53346088D01*
X62323873Y-53324388D01*
X62340830Y-53273213D01*
X62340831Y-53273206D01*
X62350999Y-53173681D01*
X62351000Y-53173681D01*
X62351000Y-53123000D01*
X61277500Y-53123000D01*
X61209379Y-53102998D01*
X61162886Y-53049342D01*
X61151500Y-52997000D01*
X61151500Y-51886000D01*
X61659500Y-51886000D01*
X61659500Y-52615000D01*
X62350999Y-52615000D01*
X62350999Y-52564320D01*
X62347206Y-52527197D01*
X62360180Y-52457396D01*
X62365248Y-52452009D01*
X62353488Y-52446638D01*
X62329780Y-52411107D01*
X62544472Y-52411107D01*
X62544959Y-52411272D01*
X62589215Y-52466787D01*
X62590608Y-52470357D01*
X62619553Y-52547960D01*
X62619555Y-52547965D01*
X62707095Y-52664904D01*
X62824034Y-52752444D01*
X62960906Y-52803494D01*
X63021402Y-52809999D01*
X63021415Y-52810000D01*
X63666000Y-52810000D01*
X63666000Y-52156000D01*
X64174000Y-52156000D01*
X64174000Y-52810000D01*
X64818585Y-52810000D01*
X64818597Y-52809999D01*
X64879093Y-52803494D01*
X65015964Y-52752444D01*
X65015965Y-52752444D01*
X65132904Y-52664904D01*
X65220444Y-52547965D01*
X65220444Y-52547964D01*
X65271494Y-52411093D01*
X65277999Y-52350597D01*
X65278000Y-52350585D01*
X65278000Y-52156000D01*
X64174000Y-52156000D01*
X63666000Y-52156000D01*
X62562000Y-52156000D01*
X62562000Y-52351414D01*
X62544472Y-52411107D01*
X62329780Y-52411107D01*
X62316395Y-52391046D01*
X62287392Y-52303521D01*
X62198204Y-52158925D01*
X62198199Y-52158919D01*
X62078080Y-52038800D01*
X62078074Y-52038795D01*
X61933479Y-51949607D01*
X61772210Y-51896169D01*
X61772206Y-51896168D01*
X61672681Y-51886000D01*
X61659500Y-51886000D01*
X61151500Y-51886000D01*
X61151500Y-51833806D01*
X61153313Y-51833806D01*
X61156651Y-51787011D01*
X61185616Y-51741931D01*
X61279547Y-51648000D01*
X62562000Y-51648000D01*
X63666000Y-51648000D01*
X63666000Y-50994000D01*
X64174000Y-50994000D01*
X64174000Y-51648000D01*
X65278000Y-51648000D01*
X65278000Y-51453414D01*
X65277999Y-51453402D01*
X65271494Y-51392906D01*
X65220444Y-51256035D01*
X65220444Y-51256034D01*
X65132904Y-51139095D01*
X65015965Y-51051555D01*
X64879093Y-51000505D01*
X64818597Y-50994000D01*
X64174000Y-50994000D01*
X63666000Y-50994000D01*
X63021402Y-50994000D01*
X62960906Y-51000505D01*
X62824035Y-51051555D01*
X62824034Y-51051555D01*
X62707095Y-51139095D01*
X62619555Y-51256034D01*
X62619555Y-51256035D01*
X62568505Y-51392906D01*
X62562000Y-51453402D01*
X62562000Y-51648000D01*
X61279547Y-51648000D01*
X61860145Y-51067403D01*
X61922457Y-51033378D01*
X61949240Y-51030499D01*
X62078749Y-51030499D01*
X62101060Y-51028743D01*
X62115937Y-51027573D01*
X62275100Y-50981332D01*
X62275102Y-50981330D01*
X62275104Y-50981330D01*
X62417761Y-50896963D01*
X62417760Y-50896963D01*
X62417763Y-50896962D01*
X62534962Y-50779763D01*
X62580243Y-50703196D01*
X62619330Y-50637104D01*
X62619330Y-50637102D01*
X62619332Y-50637100D01*
X62665573Y-50477937D01*
X62668500Y-50440747D01*
X62668499Y-49963254D01*
X62665573Y-49926063D01*
X62619332Y-49766900D01*
X62619330Y-49766898D01*
X62619330Y-49766895D01*
X62534963Y-49624238D01*
X62534957Y-49624231D01*
X62417768Y-49507042D01*
X62417761Y-49507036D01*
X62275104Y-49422669D01*
X62115942Y-49376428D01*
X62115938Y-49376427D01*
X62115937Y-49376427D01*
X62115935Y-49376426D01*
X62115930Y-49376426D01*
X62078749Y-49373500D01*
X61733500Y-49373500D01*
X61665379Y-49353498D01*
X61618886Y-49299842D01*
X61607500Y-49247500D01*
X61607500Y-47804239D01*
X61627502Y-47736118D01*
X61681158Y-47689625D01*
X61751432Y-47679521D01*
X61816012Y-47709015D01*
G37*
G04 #@! TD.AperFunction*
G04 #@! TA.AperFunction,Conductor*
G36*
X71980498Y-30620002D02*
G01*
X72026991Y-30673658D01*
X72037095Y-30743932D01*
X72019175Y-30787199D01*
X72021432Y-30788432D01*
X72017110Y-30796347D01*
X71966011Y-30933345D01*
X71966009Y-30933353D01*
X71959500Y-30993900D01*
X71959500Y-31093050D01*
X71939498Y-31161171D01*
X71885842Y-31207664D01*
X71833500Y-31219050D01*
X70869350Y-31219050D01*
X70808803Y-31225559D01*
X70808795Y-31225561D01*
X70671797Y-31276660D01*
X70671792Y-31276662D01*
X70554738Y-31364288D01*
X70467112Y-31481342D01*
X70467110Y-31481347D01*
X70416011Y-31618345D01*
X70416009Y-31618353D01*
X70409500Y-31678900D01*
X70409500Y-32676199D01*
X70416009Y-32736745D01*
X70416010Y-32736748D01*
X70427860Y-32768520D01*
X70432923Y-32839336D01*
X70427860Y-32856580D01*
X70416010Y-32888351D01*
X70416009Y-32888354D01*
X70409500Y-32948900D01*
X70409500Y-33946199D01*
X70416009Y-34006745D01*
X70416010Y-34006748D01*
X70427860Y-34038520D01*
X70432923Y-34109336D01*
X70427860Y-34126580D01*
X70416010Y-34158351D01*
X70416009Y-34158354D01*
X70409500Y-34218900D01*
X70409500Y-35216199D01*
X70416009Y-35276745D01*
X70416010Y-35276748D01*
X70427860Y-35308520D01*
X70432923Y-35379336D01*
X70427860Y-35396580D01*
X70416010Y-35428351D01*
X70416009Y-35428354D01*
X70409500Y-35488900D01*
X70409500Y-36486199D01*
X70416009Y-36546745D01*
X70416010Y-36546748D01*
X70427860Y-36578520D01*
X70432923Y-36649336D01*
X70427860Y-36666580D01*
X70416010Y-36698351D01*
X70416009Y-36698354D01*
X70409500Y-36758900D01*
X70409500Y-37756188D01*
X70416009Y-37816745D01*
X70416010Y-37816748D01*
X70427860Y-37848520D01*
X70432923Y-37919336D01*
X70427860Y-37936580D01*
X70416010Y-37968351D01*
X70416009Y-37968354D01*
X70409500Y-38028900D01*
X70409500Y-39026199D01*
X70416009Y-39086745D01*
X70416010Y-39086748D01*
X70427860Y-39118520D01*
X70432923Y-39189336D01*
X70427860Y-39206580D01*
X70416010Y-39238351D01*
X70416009Y-39238354D01*
X70409500Y-39298900D01*
X70409500Y-40296199D01*
X70416009Y-40356745D01*
X70416010Y-40356748D01*
X70427860Y-40388520D01*
X70432923Y-40459336D01*
X70427860Y-40476580D01*
X70416010Y-40508351D01*
X70416009Y-40508354D01*
X70409500Y-40568900D01*
X70409500Y-41566199D01*
X70416009Y-41626746D01*
X70416011Y-41626754D01*
X70467110Y-41763752D01*
X70467112Y-41763757D01*
X70554738Y-41880811D01*
X70671792Y-41968437D01*
X70671794Y-41968438D01*
X70671796Y-41968439D01*
X70730875Y-41990474D01*
X70808795Y-42019538D01*
X70808803Y-42019540D01*
X70869350Y-42026049D01*
X70869355Y-42026049D01*
X70869362Y-42026050D01*
X70869368Y-42026050D01*
X71833500Y-42026050D01*
X71901621Y-42046052D01*
X71948114Y-42099708D01*
X71959500Y-42152050D01*
X71959500Y-42251199D01*
X71966853Y-42319588D01*
X71965265Y-42319758D01*
X71965265Y-42355341D01*
X71966853Y-42355512D01*
X71959500Y-42423900D01*
X71959500Y-42830321D01*
X71939498Y-42898442D01*
X71885842Y-42944935D01*
X71815568Y-42955039D01*
X71750988Y-42925545D01*
X71715445Y-42874354D01*
X71678889Y-42776347D01*
X71678887Y-42776342D01*
X71591261Y-42659288D01*
X71474207Y-42571662D01*
X71474202Y-42571660D01*
X71337204Y-42520561D01*
X71337196Y-42520559D01*
X71276649Y-42514050D01*
X71276638Y-42514050D01*
X70279362Y-42514050D01*
X70279350Y-42514050D01*
X70218804Y-42520559D01*
X70218801Y-42520560D01*
X70187030Y-42532410D01*
X70116214Y-42537473D01*
X70098970Y-42532410D01*
X70067198Y-42520560D01*
X70067195Y-42520559D01*
X70006649Y-42514050D01*
X70006638Y-42514050D01*
X69009362Y-42514050D01*
X69009350Y-42514050D01*
X68948804Y-42520559D01*
X68948801Y-42520560D01*
X68917030Y-42532410D01*
X68846214Y-42537473D01*
X68828970Y-42532410D01*
X68797198Y-42520560D01*
X68797195Y-42520559D01*
X68736649Y-42514050D01*
X68736638Y-42514050D01*
X67739362Y-42514050D01*
X67739350Y-42514050D01*
X67678804Y-42520559D01*
X67678801Y-42520560D01*
X67647030Y-42532410D01*
X67576214Y-42537473D01*
X67558970Y-42532410D01*
X67527198Y-42520560D01*
X67527195Y-42520559D01*
X67466649Y-42514050D01*
X67466638Y-42514050D01*
X66469362Y-42514050D01*
X66469350Y-42514050D01*
X66408804Y-42520559D01*
X66408801Y-42520560D01*
X66377030Y-42532410D01*
X66306214Y-42537473D01*
X66288970Y-42532410D01*
X66257198Y-42520560D01*
X66257195Y-42520559D01*
X66196649Y-42514050D01*
X66196638Y-42514050D01*
X65199362Y-42514050D01*
X65199350Y-42514050D01*
X65138804Y-42520559D01*
X65138801Y-42520560D01*
X65107030Y-42532410D01*
X65036214Y-42537473D01*
X65018970Y-42532410D01*
X64987198Y-42520560D01*
X64987195Y-42520559D01*
X64926649Y-42514050D01*
X64926638Y-42514050D01*
X63929362Y-42514050D01*
X63929350Y-42514050D01*
X63868804Y-42520559D01*
X63868801Y-42520560D01*
X63837030Y-42532410D01*
X63766214Y-42537473D01*
X63748970Y-42532410D01*
X63717198Y-42520560D01*
X63717195Y-42520559D01*
X63656649Y-42514050D01*
X63656638Y-42514050D01*
X62659362Y-42514050D01*
X62659350Y-42514050D01*
X62598803Y-42520559D01*
X62598795Y-42520561D01*
X62461797Y-42571660D01*
X62461792Y-42571662D01*
X62344738Y-42659288D01*
X62257112Y-42776342D01*
X62257110Y-42776347D01*
X62220555Y-42874354D01*
X62178008Y-42931190D01*
X62111488Y-42956000D01*
X62042114Y-42940908D01*
X61991912Y-42890706D01*
X61976500Y-42830321D01*
X61976500Y-42423917D01*
X61976499Y-42423900D01*
X61969147Y-42355511D01*
X61970742Y-42355339D01*
X61970742Y-42319760D01*
X61969147Y-42319589D01*
X61976499Y-42251199D01*
X61976500Y-42251182D01*
X61976500Y-41153917D01*
X61976499Y-41153900D01*
X61969147Y-41085511D01*
X61970742Y-41085339D01*
X61970742Y-41049760D01*
X61969147Y-41049589D01*
X61976499Y-40981199D01*
X61976500Y-40981182D01*
X61976500Y-39883917D01*
X61976499Y-39883900D01*
X61969147Y-39815511D01*
X61970742Y-39815339D01*
X61970742Y-39779760D01*
X61969147Y-39779589D01*
X61976499Y-39711199D01*
X61976500Y-39711182D01*
X61976500Y-38613917D01*
X61976499Y-38613900D01*
X61969147Y-38545511D01*
X61970742Y-38545339D01*
X61970742Y-38509760D01*
X61969147Y-38509589D01*
X61976499Y-38441199D01*
X61976500Y-38441182D01*
X61976500Y-37343917D01*
X61976499Y-37343900D01*
X61971073Y-37293428D01*
X61983679Y-37223560D01*
X62032058Y-37171598D01*
X62100849Y-37154040D01*
X62110438Y-37154750D01*
X62269000Y-37172616D01*
X62450047Y-37152217D01*
X62622015Y-37092043D01*
X62776281Y-36995111D01*
X62905111Y-36866281D01*
X63002043Y-36712015D01*
X63062217Y-36540047D01*
X63082616Y-36359000D01*
X63062217Y-36177953D01*
X63002043Y-36005985D01*
X63002041Y-36005982D01*
X63002041Y-36005981D01*
X62905112Y-35851720D01*
X62905111Y-35851718D01*
X62776281Y-35722888D01*
X62776279Y-35722887D01*
X62622018Y-35625958D01*
X62622015Y-35625957D01*
X62450050Y-35565784D01*
X62450049Y-35565783D01*
X62450047Y-35565783D01*
X62387122Y-35558692D01*
X62365701Y-35556279D01*
X62300248Y-35528774D01*
X62290715Y-35520166D01*
X62231144Y-35460595D01*
X62197118Y-35398283D01*
X62202183Y-35327468D01*
X62244730Y-35270632D01*
X62311250Y-35245821D01*
X62334785Y-35247639D01*
X62334922Y-35246424D01*
X62341949Y-35247215D01*
X62341953Y-35247217D01*
X62523000Y-35267616D01*
X62704047Y-35247217D01*
X62876015Y-35187043D01*
X63030281Y-35090111D01*
X63159111Y-34961281D01*
X63256043Y-34807015D01*
X63316217Y-34635047D01*
X63336616Y-34454000D01*
X63316217Y-34272953D01*
X63256043Y-34100985D01*
X63256041Y-34100982D01*
X63256041Y-34100981D01*
X63159112Y-33946720D01*
X63159111Y-33946718D01*
X63030281Y-33817888D01*
X63030279Y-33817887D01*
X62876018Y-33720958D01*
X62876015Y-33720957D01*
X62800748Y-33694620D01*
X62704047Y-33660783D01*
X62618612Y-33651156D01*
X62556002Y-33625900D01*
X62553618Y-33624070D01*
X62458432Y-33551030D01*
X62458424Y-33551025D01*
X62310401Y-33489712D01*
X62291006Y-33487158D01*
X62255752Y-33482517D01*
X62189591Y-33473807D01*
X62189570Y-33473805D01*
X62151552Y-33468800D01*
X62151549Y-33468800D01*
X62115769Y-33473510D01*
X62107538Y-33474050D01*
X62102500Y-33474050D01*
X62034379Y-33454048D01*
X61987886Y-33400392D01*
X61976500Y-33348050D01*
X61976500Y-32263917D01*
X61976499Y-32263900D01*
X61969147Y-32195511D01*
X61970742Y-32195339D01*
X61970742Y-32159760D01*
X61969147Y-32159589D01*
X61976499Y-32091199D01*
X61976500Y-32091182D01*
X61976500Y-30993917D01*
X61976499Y-30993900D01*
X61969990Y-30933353D01*
X61969988Y-30933345D01*
X61918889Y-30796347D01*
X61918889Y-30796346D01*
X61918886Y-30796343D01*
X61914568Y-30788432D01*
X61917315Y-30786932D01*
X61897943Y-30734975D01*
X61913042Y-30665602D01*
X61963250Y-30615406D01*
X62023623Y-30600000D01*
X71912377Y-30600000D01*
X71980498Y-30620002D01*
G37*
G04 #@! TD.AperFunction*
M02*
