%TF.GenerationSoftware,KiCad,Pcbnew,7.0.9*%
%TF.CreationDate,2023-12-13T20:02:08+01:00*%
%TF.ProjectId,parasite,70617261-7369-4746-952e-6b696361645f,2.0.0*%
%TF.SameCoordinates,Original*%
%TF.FileFunction,Drillmap*%
%TF.FilePolarity,Positive*%
%FSLAX45Y45*%
G04 Gerber Fmt 4.5, Leading zero omitted, Abs format (unit mm)*
G04 Created by KiCad (PCBNEW 7.0.9) date 2023-12-13 20:02:08*
%MOMM*%
%LPD*%
G01*
G04 APERTURE LIST*
%ADD10C,0.050000*%
%ADD11C,0.200000*%
G04 APERTURE END LIST*
D10*
X6000000Y-2700000D02*
X7600000Y-2700000D01*
X6700000Y-15300000D02*
G75*
G03*
X6900000Y-15300000I100000J100000D01*
G01*
X6700000Y-15300000D02*
X5700000Y-14300000D01*
X6900000Y-15300000D02*
X7900000Y-14300000D01*
X5700000Y-3000000D02*
X5700000Y-14300000D01*
X7900000Y-14300000D02*
X7900000Y-3000000D01*
X7641421Y-6800000D02*
G75*
G03*
X7641421Y-6800000I-141421J0D01*
G01*
X6000000Y-2700000D02*
G75*
G03*
X5700000Y-3000000I0J-300000D01*
G01*
X6241421Y-6800000D02*
G75*
G03*
X6241421Y-6800000I-141421J0D01*
G01*
X7900000Y-3000000D02*
G75*
G03*
X7600000Y-2700000I-300000J0D01*
G01*
D11*
X5958277Y-15655405D02*
X5958277Y-15455405D01*
X5958277Y-15455405D02*
X6005896Y-15455405D01*
X6005896Y-15455405D02*
X6034467Y-15464929D01*
X6034467Y-15464929D02*
X6053515Y-15483976D01*
X6053515Y-15483976D02*
X6063039Y-15503024D01*
X6063039Y-15503024D02*
X6072562Y-15541119D01*
X6072562Y-15541119D02*
X6072562Y-15569691D01*
X6072562Y-15569691D02*
X6063039Y-15607786D01*
X6063039Y-15607786D02*
X6053515Y-15626833D01*
X6053515Y-15626833D02*
X6034467Y-15645881D01*
X6034467Y-15645881D02*
X6005896Y-15655405D01*
X6005896Y-15655405D02*
X5958277Y-15655405D01*
X6158277Y-15655405D02*
X6158277Y-15522072D01*
X6158277Y-15560167D02*
X6167801Y-15541119D01*
X6167801Y-15541119D02*
X6177324Y-15531595D01*
X6177324Y-15531595D02*
X6196372Y-15522072D01*
X6196372Y-15522072D02*
X6215420Y-15522072D01*
X6282086Y-15655405D02*
X6282086Y-15522072D01*
X6282086Y-15455405D02*
X6272562Y-15464929D01*
X6272562Y-15464929D02*
X6282086Y-15474453D01*
X6282086Y-15474453D02*
X6291610Y-15464929D01*
X6291610Y-15464929D02*
X6282086Y-15455405D01*
X6282086Y-15455405D02*
X6282086Y-15474453D01*
X6405896Y-15655405D02*
X6386848Y-15645881D01*
X6386848Y-15645881D02*
X6377324Y-15626833D01*
X6377324Y-15626833D02*
X6377324Y-15455405D01*
X6510658Y-15655405D02*
X6491610Y-15645881D01*
X6491610Y-15645881D02*
X6482086Y-15626833D01*
X6482086Y-15626833D02*
X6482086Y-15455405D01*
X6739229Y-15655405D02*
X6739229Y-15455405D01*
X6739229Y-15455405D02*
X6805896Y-15598262D01*
X6805896Y-15598262D02*
X6872562Y-15455405D01*
X6872562Y-15455405D02*
X6872562Y-15655405D01*
X7053515Y-15655405D02*
X7053515Y-15550643D01*
X7053515Y-15550643D02*
X7043991Y-15531595D01*
X7043991Y-15531595D02*
X7024943Y-15522072D01*
X7024943Y-15522072D02*
X6986848Y-15522072D01*
X6986848Y-15522072D02*
X6967801Y-15531595D01*
X7053515Y-15645881D02*
X7034467Y-15655405D01*
X7034467Y-15655405D02*
X6986848Y-15655405D01*
X6986848Y-15655405D02*
X6967801Y-15645881D01*
X6967801Y-15645881D02*
X6958277Y-15626833D01*
X6958277Y-15626833D02*
X6958277Y-15607786D01*
X6958277Y-15607786D02*
X6967801Y-15588738D01*
X6967801Y-15588738D02*
X6986848Y-15579214D01*
X6986848Y-15579214D02*
X7034467Y-15579214D01*
X7034467Y-15579214D02*
X7053515Y-15569691D01*
X7148753Y-15522072D02*
X7148753Y-15722072D01*
X7148753Y-15531595D02*
X7167801Y-15522072D01*
X7167801Y-15522072D02*
X7205896Y-15522072D01*
X7205896Y-15522072D02*
X7224943Y-15531595D01*
X7224943Y-15531595D02*
X7234467Y-15541119D01*
X7234467Y-15541119D02*
X7243991Y-15560167D01*
X7243991Y-15560167D02*
X7243991Y-15617310D01*
X7243991Y-15617310D02*
X7234467Y-15636357D01*
X7234467Y-15636357D02*
X7224943Y-15645881D01*
X7224943Y-15645881D02*
X7205896Y-15655405D01*
X7205896Y-15655405D02*
X7167801Y-15655405D01*
X7167801Y-15655405D02*
X7148753Y-15645881D01*
X7329705Y-15636357D02*
X7339229Y-15645881D01*
X7339229Y-15645881D02*
X7329705Y-15655405D01*
X7329705Y-15655405D02*
X7320182Y-15645881D01*
X7320182Y-15645881D02*
X7329705Y-15636357D01*
X7329705Y-15636357D02*
X7329705Y-15655405D01*
X7329705Y-15531595D02*
X7339229Y-15541119D01*
X7339229Y-15541119D02*
X7329705Y-15550643D01*
X7329705Y-15550643D02*
X7320182Y-15541119D01*
X7320182Y-15541119D02*
X7329705Y-15531595D01*
X7329705Y-15531595D02*
X7329705Y-15550643D01*
M02*
